M48
; DRILL file {KiCad (5.1.5)-3} date 2020/03/26 12:29:54
; FORMAT={-:-/ absolute / metric / decimal}
; #@! TF.CreationDate,2020-03-26T12:29:54+09:00
; #@! TF.GenerationSoftware,Kicad,Pcbnew,(5.1.5)-3
FMAT,2
METRIC
T1C0.200
T2C0.400
T3C0.600
T4C0.650
T5C1.000
T6C3.048
%
G90
G05
T1
X151.9Y-98.037
X151.903Y-97.487
X152.07Y-96.25
X154.8Y-90.37
X155.128Y-100.232
X155.327Y-93.683
T2
X134.5Y-90.0
X134.5Y-91.5
X134.5Y-93.0
X134.5Y-94.5
X134.5Y-102.0
X134.5Y-103.5
X134.5Y-105.0
X135.75Y-90.75
X135.75Y-92.25
X135.75Y-93.75
X135.75Y-102.75
X135.75Y-104.25
X137.0Y-90.0
X137.0Y-91.5
X137.0Y-93.0
X137.0Y-94.5
X137.0Y-96.0
X137.0Y-97.5
X137.0Y-99.0
X137.0Y-102.0
X137.0Y-103.5
X137.0Y-105.0
X138.25Y-89.25
X138.25Y-90.75
X138.25Y-104.25
X138.25Y-105.75
X139.5Y-85.5
X139.5Y-87.0
X139.5Y-88.5
X139.5Y-90.0
X139.5Y-105.0
X139.6Y-104.15
X139.795Y-99.916
X139.85Y-93.75
X139.86Y-92.75
X140.361Y-103.69
X140.42Y-100.47
X140.58Y-95.27
X140.7Y-91.52
X140.75Y-86.25
X140.75Y-87.75
X141.207Y-100.727
X141.243Y-103.466
X141.95Y-103.84
X142.0Y-85.5
X142.0Y-87.0
X142.088Y-91.136
X142.125Y-100.71
X142.27Y-107.39
X142.52Y-103.24
X142.88Y-91.35
X143.25Y-86.25
X143.25Y-87.75
X143.371Y-101.915
X143.4Y-94.17
X143.41Y-96.45
X143.74Y-91.3
X143.955Y-102.635
X144.36Y-101.11
X144.5Y-85.5
X144.5Y-87.0
X144.79Y-102.45
X144.91Y-91.38
X145.0Y-101.59
X145.109Y-103.313
X145.67Y-91.13
X145.68Y-92.07
X145.68Y-94.16
X145.75Y-86.25
X145.75Y-87.75
X146.79Y-107.05
X147.0Y-85.5
X147.0Y-87.0
X147.13Y-95.33
X147.44Y-97.21
X147.51Y-103.46
X147.9Y-96.45
X147.91Y-94.16
X147.93Y-97.86
X148.25Y-86.25
X148.25Y-87.75
X148.25Y-91.13
X148.25Y-107.25
X148.25Y-108.75
X148.47Y-103.89
X148.55Y-102.61
X148.94Y-93.18
X149.5Y-85.5
X149.5Y-87.0
X149.5Y-108.0
X149.75Y-91.1
X149.981Y-101.595
X150.17Y-96.45
X150.42Y-100.05
X150.55Y-91.13
X150.75Y-86.25
X150.75Y-87.75
X150.75Y-107.25
X150.75Y-108.75
X150.86Y-102.49
X151.16Y-103.68
X151.219Y-95.661
X151.81Y-95.07
X151.88Y-99.41
X152.62Y-96.86
X152.62Y-102.49
X152.647Y-93.677
X152.768Y-94.467
X153.25Y-87.75
X153.25Y-89.25
X153.25Y-104.25
X153.25Y-105.75
X153.25Y-107.25
X154.5Y-105.0
X155.25Y-94.42
X152.65Y-107.9
X155.75Y-97.5
X152.65Y-85.5
X155.75Y-99.1
X155.75Y-102.3
X157.0Y-99.1
X155.75Y-103.9
X157.0Y-97.5
X157.0Y-100.7
X158.25Y-105.5
X158.25Y-99.1
X158.25Y-103.9
X157.0Y-102.3
X158.25Y-97.5
X151.05Y-107.9
X155.75Y-100.7
X152.65Y-87.1
X152.65Y-109.5
X158.25Y-102.3
X158.25Y-100.7
X151.05Y-109.5
X157.0Y-103.9
T3
X140.379Y-102.24
T4
X135.455Y-98.77
X135.455Y-100.04
X135.455Y-94.96
X135.455Y-96.23
X156.23Y-90.92
X156.23Y-92.19
X156.23Y-93.46
X156.23Y-94.73
X156.23Y-96.0
X157.5Y-90.92
X157.5Y-92.19
X157.5Y-93.46
X157.5Y-94.73
X157.5Y-96.0
T5
X139.95Y-108.12
X145.03Y-108.12
T6
X136.248Y-107.45
X156.248Y-87.49
X156.248Y-107.49
X136.248Y-87.49
T0
M30
