G04 #@! TF.GenerationSoftware,KiCad,Pcbnew,(5.1.5-0-10_14)*
G04 #@! TF.CreationDate,2020-03-26T12:42:47+09:00*
G04 #@! TF.ProjectId,imxrt1020-breakout,696d7872-7431-4303-9230-2d627265616b,rev?*
G04 #@! TF.SameCoordinates,Original*
G04 #@! TF.FileFunction,Legend,Bot*
G04 #@! TF.FilePolarity,Positive*
%FSLAX46Y46*%
G04 Gerber Fmt 4.6, Leading zero omitted, Abs format (unit mm)*
G04 Created by KiCad (PCBNEW (5.1.5-0-10_14)) date 2020-03-26 12:42:47*
%MOMM*%
%LPD*%
G04 APERTURE LIST*
%ADD10C,0.100000*%
%ADD11C,0.152400*%
%ADD12C,0.120000*%
%ADD13C,0.150000*%
G04 APERTURE END LIST*
D10*
X140550000Y-103850000D02*
X141850000Y-104500000D01*
X141400000Y-103800000D02*
X142800000Y-104500000D01*
D11*
G04 #@! TO.C,Y2*
X147263440Y-96643700D02*
X148096560Y-96643700D01*
X148096560Y-98396300D02*
X147263440Y-98396300D01*
G04 #@! TO.C,Y1*
X148323164Y-100372100D02*
X148616836Y-100372100D01*
X148616836Y-102327900D02*
X148323164Y-102327900D01*
D12*
G04 #@! TO.C,C1*
X138760000Y-100062779D02*
X138760000Y-99737221D01*
X137740000Y-100062779D02*
X137740000Y-99737221D01*
G04 #@! TO.C,C14*
X153327221Y-92340000D02*
X153652779Y-92340000D01*
X153327221Y-91320000D02*
X153652779Y-91320000D01*
G04 #@! TO.C,L1*
X141150000Y-96000000D02*
X145150000Y-96000000D01*
X141150000Y-100200000D02*
X145150000Y-100200000D01*
G04 #@! TO.C,C6*
X143752064Y-92900000D02*
X142547936Y-92900000D01*
X143752064Y-95620000D02*
X142547936Y-95620000D01*
G04 #@! TO.C,D1*
X143460000Y-110050000D02*
X140775000Y-110050000D01*
X140775000Y-110050000D02*
X140775000Y-108130000D01*
X140775000Y-108130000D02*
X143460000Y-108130000D01*
G04 #@! TO.C,U2*
X145600000Y-93570000D02*
X146530000Y-93570000D01*
X148760000Y-93570000D02*
X147830000Y-93570000D01*
X148760000Y-93570000D02*
X148760000Y-95730000D01*
X145600000Y-93570000D02*
X145600000Y-95030000D01*
G04 #@! TO.C,Y2*
D10*
X150535714Y-96785714D02*
X150535714Y-97071428D01*
X150735714Y-96471428D02*
X150535714Y-96785714D01*
X150335714Y-96471428D01*
X150164285Y-96528571D02*
X150135714Y-96500000D01*
X150078571Y-96471428D01*
X149935714Y-96471428D01*
X149878571Y-96500000D01*
X149850000Y-96528571D01*
X149821428Y-96585714D01*
X149821428Y-96642857D01*
X149850000Y-96728571D01*
X150192857Y-97071428D01*
X149821428Y-97071428D01*
D13*
X147680000Y-97302380D02*
X147680000Y-97540476D01*
X147918095Y-97445238D02*
X147680000Y-97540476D01*
X147441904Y-97445238D01*
X147822857Y-97730952D02*
X147680000Y-97540476D01*
X147537142Y-97730952D01*
G04 #@! TO.C,Y1*
D10*
X148755714Y-102935714D02*
X148755714Y-103221428D01*
X148955714Y-102621428D02*
X148755714Y-102935714D01*
X148555714Y-102621428D01*
X148041428Y-103221428D02*
X148384285Y-103221428D01*
X148212857Y-103221428D02*
X148212857Y-102621428D01*
X148270000Y-102707142D01*
X148327142Y-102764285D01*
X148384285Y-102792857D01*
G04 #@! TO.C,C1*
X138464285Y-97800000D02*
X138492857Y-97771428D01*
X138521428Y-97685714D01*
X138521428Y-97628571D01*
X138492857Y-97542857D01*
X138435714Y-97485714D01*
X138378571Y-97457142D01*
X138264285Y-97428571D01*
X138178571Y-97428571D01*
X138064285Y-97457142D01*
X138007142Y-97485714D01*
X137950000Y-97542857D01*
X137921428Y-97628571D01*
X137921428Y-97685714D01*
X137950000Y-97771428D01*
X137978571Y-97800000D01*
X138521428Y-98371428D02*
X138521428Y-98028571D01*
X138521428Y-98200000D02*
X137921428Y-98200000D01*
X138007142Y-98142857D01*
X138064285Y-98085714D01*
X138092857Y-98028571D01*
G04 #@! TO.C,C4*
X137060000Y-103114285D02*
X137088571Y-103142857D01*
X137174285Y-103171428D01*
X137231428Y-103171428D01*
X137317142Y-103142857D01*
X137374285Y-103085714D01*
X137402857Y-103028571D01*
X137431428Y-102914285D01*
X137431428Y-102828571D01*
X137402857Y-102714285D01*
X137374285Y-102657142D01*
X137317142Y-102600000D01*
X137231428Y-102571428D01*
X137174285Y-102571428D01*
X137088571Y-102600000D01*
X137060000Y-102628571D01*
X136545714Y-102771428D02*
X136545714Y-103171428D01*
X136688571Y-102542857D02*
X136831428Y-102971428D01*
X136460000Y-102971428D01*
G04 #@! TO.C,C5*
X139400000Y-105964285D02*
X139428571Y-105992857D01*
X139514285Y-106021428D01*
X139571428Y-106021428D01*
X139657142Y-105992857D01*
X139714285Y-105935714D01*
X139742857Y-105878571D01*
X139771428Y-105764285D01*
X139771428Y-105678571D01*
X139742857Y-105564285D01*
X139714285Y-105507142D01*
X139657142Y-105450000D01*
X139571428Y-105421428D01*
X139514285Y-105421428D01*
X139428571Y-105450000D01*
X139400000Y-105478571D01*
X138857142Y-105421428D02*
X139142857Y-105421428D01*
X139171428Y-105707142D01*
X139142857Y-105678571D01*
X139085714Y-105650000D01*
X138942857Y-105650000D01*
X138885714Y-105678571D01*
X138857142Y-105707142D01*
X138828571Y-105764285D01*
X138828571Y-105907142D01*
X138857142Y-105964285D01*
X138885714Y-105992857D01*
X138942857Y-106021428D01*
X139085714Y-106021428D01*
X139142857Y-105992857D01*
X139171428Y-105964285D01*
G04 #@! TO.C,C8*
X154150000Y-104514285D02*
X154178571Y-104542857D01*
X154264285Y-104571428D01*
X154321428Y-104571428D01*
X154407142Y-104542857D01*
X154464285Y-104485714D01*
X154492857Y-104428571D01*
X154521428Y-104314285D01*
X154521428Y-104228571D01*
X154492857Y-104114285D01*
X154464285Y-104057142D01*
X154407142Y-104000000D01*
X154321428Y-103971428D01*
X154264285Y-103971428D01*
X154178571Y-104000000D01*
X154150000Y-104028571D01*
X153807142Y-104228571D02*
X153864285Y-104200000D01*
X153892857Y-104171428D01*
X153921428Y-104114285D01*
X153921428Y-104085714D01*
X153892857Y-104028571D01*
X153864285Y-104000000D01*
X153807142Y-103971428D01*
X153692857Y-103971428D01*
X153635714Y-104000000D01*
X153607142Y-104028571D01*
X153578571Y-104085714D01*
X153578571Y-104114285D01*
X153607142Y-104171428D01*
X153635714Y-104200000D01*
X153692857Y-104228571D01*
X153807142Y-104228571D01*
X153864285Y-104257142D01*
X153892857Y-104285714D01*
X153921428Y-104342857D01*
X153921428Y-104457142D01*
X153892857Y-104514285D01*
X153864285Y-104542857D01*
X153807142Y-104571428D01*
X153692857Y-104571428D01*
X153635714Y-104542857D01*
X153607142Y-104514285D01*
X153578571Y-104457142D01*
X153578571Y-104342857D01*
X153607142Y-104285714D01*
X153635714Y-104257142D01*
X153692857Y-104228571D01*
G04 #@! TO.C,C10*
X150514285Y-103114285D02*
X150542857Y-103085714D01*
X150571428Y-103000000D01*
X150571428Y-102942857D01*
X150542857Y-102857142D01*
X150485714Y-102800000D01*
X150428571Y-102771428D01*
X150314285Y-102742857D01*
X150228571Y-102742857D01*
X150114285Y-102771428D01*
X150057142Y-102800000D01*
X150000000Y-102857142D01*
X149971428Y-102942857D01*
X149971428Y-103000000D01*
X150000000Y-103085714D01*
X150028571Y-103114285D01*
X150571428Y-103685714D02*
X150571428Y-103342857D01*
X150571428Y-103514285D02*
X149971428Y-103514285D01*
X150057142Y-103457142D01*
X150114285Y-103400000D01*
X150142857Y-103342857D01*
X149971428Y-104057142D02*
X149971428Y-104114285D01*
X150000000Y-104171428D01*
X150028571Y-104200000D01*
X150085714Y-104228571D01*
X150200000Y-104257142D01*
X150342857Y-104257142D01*
X150457142Y-104228571D01*
X150514285Y-104200000D01*
X150542857Y-104171428D01*
X150571428Y-104114285D01*
X150571428Y-104057142D01*
X150542857Y-104000000D01*
X150514285Y-103971428D01*
X150457142Y-103942857D01*
X150342857Y-103914285D01*
X150200000Y-103914285D01*
X150085714Y-103942857D01*
X150028571Y-103971428D01*
X150000000Y-104000000D01*
X149971428Y-104057142D01*
G04 #@! TO.C,C11*
X144485714Y-103014285D02*
X144514285Y-103042857D01*
X144600000Y-103071428D01*
X144657142Y-103071428D01*
X144742857Y-103042857D01*
X144800000Y-102985714D01*
X144828571Y-102928571D01*
X144857142Y-102814285D01*
X144857142Y-102728571D01*
X144828571Y-102614285D01*
X144800000Y-102557142D01*
X144742857Y-102500000D01*
X144657142Y-102471428D01*
X144600000Y-102471428D01*
X144514285Y-102500000D01*
X144485714Y-102528571D01*
X143914285Y-103071428D02*
X144257142Y-103071428D01*
X144085714Y-103071428D02*
X144085714Y-102471428D01*
X144142857Y-102557142D01*
X144200000Y-102614285D01*
X144257142Y-102642857D01*
X143342857Y-103071428D02*
X143685714Y-103071428D01*
X143514285Y-103071428D02*
X143514285Y-102471428D01*
X143571428Y-102557142D01*
X143628571Y-102614285D01*
X143685714Y-102642857D01*
G04 #@! TO.C,C13*
X140414285Y-102664285D02*
X140442857Y-102635714D01*
X140471428Y-102550000D01*
X140471428Y-102492857D01*
X140442857Y-102407142D01*
X140385714Y-102350000D01*
X140328571Y-102321428D01*
X140214285Y-102292857D01*
X140128571Y-102292857D01*
X140014285Y-102321428D01*
X139957142Y-102350000D01*
X139900000Y-102407142D01*
X139871428Y-102492857D01*
X139871428Y-102550000D01*
X139900000Y-102635714D01*
X139928571Y-102664285D01*
X140471428Y-103235714D02*
X140471428Y-102892857D01*
X140471428Y-103064285D02*
X139871428Y-103064285D01*
X139957142Y-103007142D01*
X140014285Y-102950000D01*
X140042857Y-102892857D01*
X139871428Y-103435714D02*
X139871428Y-103807142D01*
X140100000Y-103607142D01*
X140100000Y-103692857D01*
X140128571Y-103750000D01*
X140157142Y-103778571D01*
X140214285Y-103807142D01*
X140357142Y-103807142D01*
X140414285Y-103778571D01*
X140442857Y-103750000D01*
X140471428Y-103692857D01*
X140471428Y-103521428D01*
X140442857Y-103464285D01*
X140414285Y-103435714D01*
G04 #@! TO.C,C14*
X153875714Y-90964285D02*
X153904285Y-90992857D01*
X153990000Y-91021428D01*
X154047142Y-91021428D01*
X154132857Y-90992857D01*
X154190000Y-90935714D01*
X154218571Y-90878571D01*
X154247142Y-90764285D01*
X154247142Y-90678571D01*
X154218571Y-90564285D01*
X154190000Y-90507142D01*
X154132857Y-90450000D01*
X154047142Y-90421428D01*
X153990000Y-90421428D01*
X153904285Y-90450000D01*
X153875714Y-90478571D01*
X153304285Y-91021428D02*
X153647142Y-91021428D01*
X153475714Y-91021428D02*
X153475714Y-90421428D01*
X153532857Y-90507142D01*
X153590000Y-90564285D01*
X153647142Y-90592857D01*
X152790000Y-90621428D02*
X152790000Y-91021428D01*
X152932857Y-90392857D02*
X153075714Y-90821428D01*
X152704285Y-90821428D01*
G04 #@! TO.C,C15*
X140335714Y-98514285D02*
X140364285Y-98542857D01*
X140450000Y-98571428D01*
X140507142Y-98571428D01*
X140592857Y-98542857D01*
X140650000Y-98485714D01*
X140678571Y-98428571D01*
X140707142Y-98314285D01*
X140707142Y-98228571D01*
X140678571Y-98114285D01*
X140650000Y-98057142D01*
X140592857Y-98000000D01*
X140507142Y-97971428D01*
X140450000Y-97971428D01*
X140364285Y-98000000D01*
X140335714Y-98028571D01*
X139764285Y-98571428D02*
X140107142Y-98571428D01*
X139935714Y-98571428D02*
X139935714Y-97971428D01*
X139992857Y-98057142D01*
X140050000Y-98114285D01*
X140107142Y-98142857D01*
X139221428Y-97971428D02*
X139507142Y-97971428D01*
X139535714Y-98257142D01*
X139507142Y-98228571D01*
X139450000Y-98200000D01*
X139307142Y-98200000D01*
X139250000Y-98228571D01*
X139221428Y-98257142D01*
X139192857Y-98314285D01*
X139192857Y-98457142D01*
X139221428Y-98514285D01*
X139250000Y-98542857D01*
X139307142Y-98571428D01*
X139450000Y-98571428D01*
X139507142Y-98542857D01*
X139535714Y-98514285D01*
G04 #@! TO.C,C16*
X143164285Y-101614285D02*
X143192857Y-101585714D01*
X143221428Y-101500000D01*
X143221428Y-101442857D01*
X143192857Y-101357142D01*
X143135714Y-101300000D01*
X143078571Y-101271428D01*
X142964285Y-101242857D01*
X142878571Y-101242857D01*
X142764285Y-101271428D01*
X142707142Y-101300000D01*
X142650000Y-101357142D01*
X142621428Y-101442857D01*
X142621428Y-101500000D01*
X142650000Y-101585714D01*
X142678571Y-101614285D01*
X143221428Y-102185714D02*
X143221428Y-101842857D01*
X143221428Y-102014285D02*
X142621428Y-102014285D01*
X142707142Y-101957142D01*
X142764285Y-101900000D01*
X142792857Y-101842857D01*
X142621428Y-102700000D02*
X142621428Y-102585714D01*
X142650000Y-102528571D01*
X142678571Y-102500000D01*
X142764285Y-102442857D01*
X142878571Y-102414285D01*
X143107142Y-102414285D01*
X143164285Y-102442857D01*
X143192857Y-102471428D01*
X143221428Y-102528571D01*
X143221428Y-102642857D01*
X143192857Y-102700000D01*
X143164285Y-102728571D01*
X143107142Y-102757142D01*
X142964285Y-102757142D01*
X142907142Y-102728571D01*
X142878571Y-102700000D01*
X142850000Y-102642857D01*
X142850000Y-102528571D01*
X142878571Y-102471428D01*
X142907142Y-102442857D01*
X142964285Y-102414285D01*
G04 #@! TO.C,C17*
X154425714Y-94164285D02*
X154454285Y-94192857D01*
X154540000Y-94221428D01*
X154597142Y-94221428D01*
X154682857Y-94192857D01*
X154740000Y-94135714D01*
X154768571Y-94078571D01*
X154797142Y-93964285D01*
X154797142Y-93878571D01*
X154768571Y-93764285D01*
X154740000Y-93707142D01*
X154682857Y-93650000D01*
X154597142Y-93621428D01*
X154540000Y-93621428D01*
X154454285Y-93650000D01*
X154425714Y-93678571D01*
X153854285Y-94221428D02*
X154197142Y-94221428D01*
X154025714Y-94221428D02*
X154025714Y-93621428D01*
X154082857Y-93707142D01*
X154140000Y-93764285D01*
X154197142Y-93792857D01*
X153654285Y-93621428D02*
X153254285Y-93621428D01*
X153511428Y-94221428D01*
G04 #@! TO.C,C18*
X150035714Y-91314285D02*
X150064285Y-91342857D01*
X150150000Y-91371428D01*
X150207142Y-91371428D01*
X150292857Y-91342857D01*
X150350000Y-91285714D01*
X150378571Y-91228571D01*
X150407142Y-91114285D01*
X150407142Y-91028571D01*
X150378571Y-90914285D01*
X150350000Y-90857142D01*
X150292857Y-90800000D01*
X150207142Y-90771428D01*
X150150000Y-90771428D01*
X150064285Y-90800000D01*
X150035714Y-90828571D01*
X149464285Y-91371428D02*
X149807142Y-91371428D01*
X149635714Y-91371428D02*
X149635714Y-90771428D01*
X149692857Y-90857142D01*
X149750000Y-90914285D01*
X149807142Y-90942857D01*
X149121428Y-91028571D02*
X149178571Y-91000000D01*
X149207142Y-90971428D01*
X149235714Y-90914285D01*
X149235714Y-90885714D01*
X149207142Y-90828571D01*
X149178571Y-90800000D01*
X149121428Y-90771428D01*
X149007142Y-90771428D01*
X148950000Y-90800000D01*
X148921428Y-90828571D01*
X148892857Y-90885714D01*
X148892857Y-90914285D01*
X148921428Y-90971428D01*
X148950000Y-91000000D01*
X149007142Y-91028571D01*
X149121428Y-91028571D01*
X149178571Y-91057142D01*
X149207142Y-91085714D01*
X149235714Y-91142857D01*
X149235714Y-91257142D01*
X149207142Y-91314285D01*
X149178571Y-91342857D01*
X149121428Y-91371428D01*
X149007142Y-91371428D01*
X148950000Y-91342857D01*
X148921428Y-91314285D01*
X148892857Y-91257142D01*
X148892857Y-91142857D01*
X148921428Y-91085714D01*
X148950000Y-91057142D01*
X149007142Y-91028571D01*
G04 #@! TO.C,C19*
X145835714Y-91614285D02*
X145864285Y-91642857D01*
X145950000Y-91671428D01*
X146007142Y-91671428D01*
X146092857Y-91642857D01*
X146150000Y-91585714D01*
X146178571Y-91528571D01*
X146207142Y-91414285D01*
X146207142Y-91328571D01*
X146178571Y-91214285D01*
X146150000Y-91157142D01*
X146092857Y-91100000D01*
X146007142Y-91071428D01*
X145950000Y-91071428D01*
X145864285Y-91100000D01*
X145835714Y-91128571D01*
X145264285Y-91671428D02*
X145607142Y-91671428D01*
X145435714Y-91671428D02*
X145435714Y-91071428D01*
X145492857Y-91157142D01*
X145550000Y-91214285D01*
X145607142Y-91242857D01*
X144978571Y-91671428D02*
X144864285Y-91671428D01*
X144807142Y-91642857D01*
X144778571Y-91614285D01*
X144721428Y-91528571D01*
X144692857Y-91414285D01*
X144692857Y-91185714D01*
X144721428Y-91128571D01*
X144750000Y-91100000D01*
X144807142Y-91071428D01*
X144921428Y-91071428D01*
X144978571Y-91100000D01*
X145007142Y-91128571D01*
X145035714Y-91185714D01*
X145035714Y-91328571D01*
X145007142Y-91385714D01*
X144978571Y-91414285D01*
X144921428Y-91442857D01*
X144807142Y-91442857D01*
X144750000Y-91414285D01*
X144721428Y-91385714D01*
X144692857Y-91328571D01*
G04 #@! TO.C,C21*
X152035714Y-104164285D02*
X152064285Y-104192857D01*
X152150000Y-104221428D01*
X152207142Y-104221428D01*
X152292857Y-104192857D01*
X152350000Y-104135714D01*
X152378571Y-104078571D01*
X152407142Y-103964285D01*
X152407142Y-103878571D01*
X152378571Y-103764285D01*
X152350000Y-103707142D01*
X152292857Y-103650000D01*
X152207142Y-103621428D01*
X152150000Y-103621428D01*
X152064285Y-103650000D01*
X152035714Y-103678571D01*
X151807142Y-103678571D02*
X151778571Y-103650000D01*
X151721428Y-103621428D01*
X151578571Y-103621428D01*
X151521428Y-103650000D01*
X151492857Y-103678571D01*
X151464285Y-103735714D01*
X151464285Y-103792857D01*
X151492857Y-103878571D01*
X151835714Y-104221428D01*
X151464285Y-104221428D01*
X150892857Y-104221428D02*
X151235714Y-104221428D01*
X151064285Y-104221428D02*
X151064285Y-103621428D01*
X151121428Y-103707142D01*
X151178571Y-103764285D01*
X151235714Y-103792857D01*
G04 #@! TO.C,C23*
X148335714Y-104164285D02*
X148364285Y-104192857D01*
X148450000Y-104221428D01*
X148507142Y-104221428D01*
X148592857Y-104192857D01*
X148650000Y-104135714D01*
X148678571Y-104078571D01*
X148707142Y-103964285D01*
X148707142Y-103878571D01*
X148678571Y-103764285D01*
X148650000Y-103707142D01*
X148592857Y-103650000D01*
X148507142Y-103621428D01*
X148450000Y-103621428D01*
X148364285Y-103650000D01*
X148335714Y-103678571D01*
X148107142Y-103678571D02*
X148078571Y-103650000D01*
X148021428Y-103621428D01*
X147878571Y-103621428D01*
X147821428Y-103650000D01*
X147792857Y-103678571D01*
X147764285Y-103735714D01*
X147764285Y-103792857D01*
X147792857Y-103878571D01*
X148135714Y-104221428D01*
X147764285Y-104221428D01*
X147564285Y-103621428D02*
X147192857Y-103621428D01*
X147392857Y-103850000D01*
X147307142Y-103850000D01*
X147250000Y-103878571D01*
X147221428Y-103907142D01*
X147192857Y-103964285D01*
X147192857Y-104107142D01*
X147221428Y-104164285D01*
X147250000Y-104192857D01*
X147307142Y-104221428D01*
X147478571Y-104221428D01*
X147535714Y-104192857D01*
X147564285Y-104164285D01*
G04 #@! TO.C,C25*
X146535714Y-105014285D02*
X146564285Y-105042857D01*
X146650000Y-105071428D01*
X146707142Y-105071428D01*
X146792857Y-105042857D01*
X146850000Y-104985714D01*
X146878571Y-104928571D01*
X146907142Y-104814285D01*
X146907142Y-104728571D01*
X146878571Y-104614285D01*
X146850000Y-104557142D01*
X146792857Y-104500000D01*
X146707142Y-104471428D01*
X146650000Y-104471428D01*
X146564285Y-104500000D01*
X146535714Y-104528571D01*
X146307142Y-104528571D02*
X146278571Y-104500000D01*
X146221428Y-104471428D01*
X146078571Y-104471428D01*
X146021428Y-104500000D01*
X145992857Y-104528571D01*
X145964285Y-104585714D01*
X145964285Y-104642857D01*
X145992857Y-104728571D01*
X146335714Y-105071428D01*
X145964285Y-105071428D01*
X145421428Y-104471428D02*
X145707142Y-104471428D01*
X145735714Y-104757142D01*
X145707142Y-104728571D01*
X145650000Y-104700000D01*
X145507142Y-104700000D01*
X145450000Y-104728571D01*
X145421428Y-104757142D01*
X145392857Y-104814285D01*
X145392857Y-104957142D01*
X145421428Y-105014285D01*
X145450000Y-105042857D01*
X145507142Y-105071428D01*
X145650000Y-105071428D01*
X145707142Y-105042857D01*
X145735714Y-105014285D01*
G04 #@! TO.C,C2*
X140250000Y-100914285D02*
X140278571Y-100942857D01*
X140364285Y-100971428D01*
X140421428Y-100971428D01*
X140507142Y-100942857D01*
X140564285Y-100885714D01*
X140592857Y-100828571D01*
X140621428Y-100714285D01*
X140621428Y-100628571D01*
X140592857Y-100514285D01*
X140564285Y-100457142D01*
X140507142Y-100400000D01*
X140421428Y-100371428D01*
X140364285Y-100371428D01*
X140278571Y-100400000D01*
X140250000Y-100428571D01*
X140021428Y-100428571D02*
X139992857Y-100400000D01*
X139935714Y-100371428D01*
X139792857Y-100371428D01*
X139735714Y-100400000D01*
X139707142Y-100428571D01*
X139678571Y-100485714D01*
X139678571Y-100542857D01*
X139707142Y-100628571D01*
X140050000Y-100971428D01*
X139678571Y-100971428D01*
G04 #@! TO.C,C3*
X137060000Y-102164285D02*
X137088571Y-102192857D01*
X137174285Y-102221428D01*
X137231428Y-102221428D01*
X137317142Y-102192857D01*
X137374285Y-102135714D01*
X137402857Y-102078571D01*
X137431428Y-101964285D01*
X137431428Y-101878571D01*
X137402857Y-101764285D01*
X137374285Y-101707142D01*
X137317142Y-101650000D01*
X137231428Y-101621428D01*
X137174285Y-101621428D01*
X137088571Y-101650000D01*
X137060000Y-101678571D01*
X136860000Y-101621428D02*
X136488571Y-101621428D01*
X136688571Y-101850000D01*
X136602857Y-101850000D01*
X136545714Y-101878571D01*
X136517142Y-101907142D01*
X136488571Y-101964285D01*
X136488571Y-102107142D01*
X136517142Y-102164285D01*
X136545714Y-102192857D01*
X136602857Y-102221428D01*
X136774285Y-102221428D01*
X136831428Y-102192857D01*
X136860000Y-102164285D01*
G04 #@! TO.C,C7*
X152650000Y-102714285D02*
X152678571Y-102742857D01*
X152764285Y-102771428D01*
X152821428Y-102771428D01*
X152907142Y-102742857D01*
X152964285Y-102685714D01*
X152992857Y-102628571D01*
X153021428Y-102514285D01*
X153021428Y-102428571D01*
X152992857Y-102314285D01*
X152964285Y-102257142D01*
X152907142Y-102200000D01*
X152821428Y-102171428D01*
X152764285Y-102171428D01*
X152678571Y-102200000D01*
X152650000Y-102228571D01*
X152450000Y-102171428D02*
X152050000Y-102171428D01*
X152307142Y-102771428D01*
G04 #@! TO.C,C9*
X149614285Y-103700000D02*
X149642857Y-103671428D01*
X149671428Y-103585714D01*
X149671428Y-103528571D01*
X149642857Y-103442857D01*
X149585714Y-103385714D01*
X149528571Y-103357142D01*
X149414285Y-103328571D01*
X149328571Y-103328571D01*
X149214285Y-103357142D01*
X149157142Y-103385714D01*
X149100000Y-103442857D01*
X149071428Y-103528571D01*
X149071428Y-103585714D01*
X149100000Y-103671428D01*
X149128571Y-103700000D01*
X149671428Y-103985714D02*
X149671428Y-104100000D01*
X149642857Y-104157142D01*
X149614285Y-104185714D01*
X149528571Y-104242857D01*
X149414285Y-104271428D01*
X149185714Y-104271428D01*
X149128571Y-104242857D01*
X149100000Y-104214285D01*
X149071428Y-104157142D01*
X149071428Y-104042857D01*
X149100000Y-103985714D01*
X149128571Y-103957142D01*
X149185714Y-103928571D01*
X149328571Y-103928571D01*
X149385714Y-103957142D01*
X149414285Y-103985714D01*
X149442857Y-104042857D01*
X149442857Y-104157142D01*
X149414285Y-104214285D01*
X149385714Y-104242857D01*
X149328571Y-104271428D01*
G04 #@! TO.C,C12*
X141214285Y-102664285D02*
X141242857Y-102635714D01*
X141271428Y-102550000D01*
X141271428Y-102492857D01*
X141242857Y-102407142D01*
X141185714Y-102350000D01*
X141128571Y-102321428D01*
X141014285Y-102292857D01*
X140928571Y-102292857D01*
X140814285Y-102321428D01*
X140757142Y-102350000D01*
X140700000Y-102407142D01*
X140671428Y-102492857D01*
X140671428Y-102550000D01*
X140700000Y-102635714D01*
X140728571Y-102664285D01*
X141271428Y-103235714D02*
X141271428Y-102892857D01*
X141271428Y-103064285D02*
X140671428Y-103064285D01*
X140757142Y-103007142D01*
X140814285Y-102950000D01*
X140842857Y-102892857D01*
X140728571Y-103464285D02*
X140700000Y-103492857D01*
X140671428Y-103550000D01*
X140671428Y-103692857D01*
X140700000Y-103750000D01*
X140728571Y-103778571D01*
X140785714Y-103807142D01*
X140842857Y-103807142D01*
X140928571Y-103778571D01*
X141271428Y-103435714D01*
X141271428Y-103807142D01*
G04 #@! TO.C,C20*
X152085714Y-106864285D02*
X152114285Y-106892857D01*
X152200000Y-106921428D01*
X152257142Y-106921428D01*
X152342857Y-106892857D01*
X152400000Y-106835714D01*
X152428571Y-106778571D01*
X152457142Y-106664285D01*
X152457142Y-106578571D01*
X152428571Y-106464285D01*
X152400000Y-106407142D01*
X152342857Y-106350000D01*
X152257142Y-106321428D01*
X152200000Y-106321428D01*
X152114285Y-106350000D01*
X152085714Y-106378571D01*
X151857142Y-106378571D02*
X151828571Y-106350000D01*
X151771428Y-106321428D01*
X151628571Y-106321428D01*
X151571428Y-106350000D01*
X151542857Y-106378571D01*
X151514285Y-106435714D01*
X151514285Y-106492857D01*
X151542857Y-106578571D01*
X151885714Y-106921428D01*
X151514285Y-106921428D01*
X151142857Y-106321428D02*
X151085714Y-106321428D01*
X151028571Y-106350000D01*
X151000000Y-106378571D01*
X150971428Y-106435714D01*
X150942857Y-106550000D01*
X150942857Y-106692857D01*
X150971428Y-106807142D01*
X151000000Y-106864285D01*
X151028571Y-106892857D01*
X151085714Y-106921428D01*
X151142857Y-106921428D01*
X151200000Y-106892857D01*
X151228571Y-106864285D01*
X151257142Y-106807142D01*
X151285714Y-106692857D01*
X151285714Y-106550000D01*
X151257142Y-106435714D01*
X151228571Y-106378571D01*
X151200000Y-106350000D01*
X151142857Y-106321428D01*
G04 #@! TO.C,C22*
X148335714Y-106864285D02*
X148364285Y-106892857D01*
X148450000Y-106921428D01*
X148507142Y-106921428D01*
X148592857Y-106892857D01*
X148650000Y-106835714D01*
X148678571Y-106778571D01*
X148707142Y-106664285D01*
X148707142Y-106578571D01*
X148678571Y-106464285D01*
X148650000Y-106407142D01*
X148592857Y-106350000D01*
X148507142Y-106321428D01*
X148450000Y-106321428D01*
X148364285Y-106350000D01*
X148335714Y-106378571D01*
X148107142Y-106378571D02*
X148078571Y-106350000D01*
X148021428Y-106321428D01*
X147878571Y-106321428D01*
X147821428Y-106350000D01*
X147792857Y-106378571D01*
X147764285Y-106435714D01*
X147764285Y-106492857D01*
X147792857Y-106578571D01*
X148135714Y-106921428D01*
X147764285Y-106921428D01*
X147535714Y-106378571D02*
X147507142Y-106350000D01*
X147450000Y-106321428D01*
X147307142Y-106321428D01*
X147250000Y-106350000D01*
X147221428Y-106378571D01*
X147192857Y-106435714D01*
X147192857Y-106492857D01*
X147221428Y-106578571D01*
X147564285Y-106921428D01*
X147192857Y-106921428D01*
G04 #@! TO.C,C24*
X146535714Y-106014285D02*
X146564285Y-106042857D01*
X146650000Y-106071428D01*
X146707142Y-106071428D01*
X146792857Y-106042857D01*
X146850000Y-105985714D01*
X146878571Y-105928571D01*
X146907142Y-105814285D01*
X146907142Y-105728571D01*
X146878571Y-105614285D01*
X146850000Y-105557142D01*
X146792857Y-105500000D01*
X146707142Y-105471428D01*
X146650000Y-105471428D01*
X146564285Y-105500000D01*
X146535714Y-105528571D01*
X146307142Y-105528571D02*
X146278571Y-105500000D01*
X146221428Y-105471428D01*
X146078571Y-105471428D01*
X146021428Y-105500000D01*
X145992857Y-105528571D01*
X145964285Y-105585714D01*
X145964285Y-105642857D01*
X145992857Y-105728571D01*
X146335714Y-106071428D01*
X145964285Y-106071428D01*
X145450000Y-105671428D02*
X145450000Y-106071428D01*
X145592857Y-105442857D02*
X145735714Y-105871428D01*
X145364285Y-105871428D01*
G04 #@! TO.C,R1*
X139400000Y-105071428D02*
X139600000Y-104785714D01*
X139742857Y-105071428D02*
X139742857Y-104471428D01*
X139514285Y-104471428D01*
X139457142Y-104500000D01*
X139428571Y-104528571D01*
X139400000Y-104585714D01*
X139400000Y-104671428D01*
X139428571Y-104728571D01*
X139457142Y-104757142D01*
X139514285Y-104785714D01*
X139742857Y-104785714D01*
X138828571Y-105071428D02*
X139171428Y-105071428D01*
X139000000Y-105071428D02*
X139000000Y-104471428D01*
X139057142Y-104557142D01*
X139114285Y-104614285D01*
X139171428Y-104642857D01*
G04 #@! TO.C,R2*
X138560000Y-92221428D02*
X138760000Y-91935714D01*
X138902857Y-92221428D02*
X138902857Y-91621428D01*
X138674285Y-91621428D01*
X138617142Y-91650000D01*
X138588571Y-91678571D01*
X138560000Y-91735714D01*
X138560000Y-91821428D01*
X138588571Y-91878571D01*
X138617142Y-91907142D01*
X138674285Y-91935714D01*
X138902857Y-91935714D01*
X138331428Y-91678571D02*
X138302857Y-91650000D01*
X138245714Y-91621428D01*
X138102857Y-91621428D01*
X138045714Y-91650000D01*
X138017142Y-91678571D01*
X137988571Y-91735714D01*
X137988571Y-91792857D01*
X138017142Y-91878571D01*
X138360000Y-92221428D01*
X137988571Y-92221428D01*
G04 #@! TO.C,R3*
X138321428Y-95550000D02*
X138035714Y-95350000D01*
X138321428Y-95207142D02*
X137721428Y-95207142D01*
X137721428Y-95435714D01*
X137750000Y-95492857D01*
X137778571Y-95521428D01*
X137835714Y-95550000D01*
X137921428Y-95550000D01*
X137978571Y-95521428D01*
X138007142Y-95492857D01*
X138035714Y-95435714D01*
X138035714Y-95207142D01*
X137721428Y-95750000D02*
X137721428Y-96121428D01*
X137950000Y-95921428D01*
X137950000Y-96007142D01*
X137978571Y-96064285D01*
X138007142Y-96092857D01*
X138064285Y-96121428D01*
X138207142Y-96121428D01*
X138264285Y-96092857D01*
X138292857Y-96064285D01*
X138321428Y-96007142D01*
X138321428Y-95835714D01*
X138292857Y-95778571D01*
X138264285Y-95750000D01*
G04 #@! TO.C,R4*
X141721428Y-89600000D02*
X141435714Y-89400000D01*
X141721428Y-89257142D02*
X141121428Y-89257142D01*
X141121428Y-89485714D01*
X141150000Y-89542857D01*
X141178571Y-89571428D01*
X141235714Y-89600000D01*
X141321428Y-89600000D01*
X141378571Y-89571428D01*
X141407142Y-89542857D01*
X141435714Y-89485714D01*
X141435714Y-89257142D01*
X141321428Y-90114285D02*
X141721428Y-90114285D01*
X141092857Y-89971428D02*
X141521428Y-89828571D01*
X141521428Y-90200000D01*
G04 #@! TO.C,L1*
X143250000Y-101021428D02*
X143535714Y-101021428D01*
X143535714Y-100421428D01*
X142735714Y-101021428D02*
X143078571Y-101021428D01*
X142907142Y-101021428D02*
X142907142Y-100421428D01*
X142964285Y-100507142D01*
X143021428Y-100564285D01*
X143078571Y-100592857D01*
G04 #@! TO.C,C6*
X141850000Y-92514285D02*
X141878571Y-92542857D01*
X141964285Y-92571428D01*
X142021428Y-92571428D01*
X142107142Y-92542857D01*
X142164285Y-92485714D01*
X142192857Y-92428571D01*
X142221428Y-92314285D01*
X142221428Y-92228571D01*
X142192857Y-92114285D01*
X142164285Y-92057142D01*
X142107142Y-92000000D01*
X142021428Y-91971428D01*
X141964285Y-91971428D01*
X141878571Y-92000000D01*
X141850000Y-92028571D01*
X141335714Y-91971428D02*
X141450000Y-91971428D01*
X141507142Y-92000000D01*
X141535714Y-92028571D01*
X141592857Y-92114285D01*
X141621428Y-92228571D01*
X141621428Y-92457142D01*
X141592857Y-92514285D01*
X141564285Y-92542857D01*
X141507142Y-92571428D01*
X141392857Y-92571428D01*
X141335714Y-92542857D01*
X141307142Y-92514285D01*
X141278571Y-92457142D01*
X141278571Y-92314285D01*
X141307142Y-92257142D01*
X141335714Y-92228571D01*
X141392857Y-92200000D01*
X141507142Y-92200000D01*
X141564285Y-92228571D01*
X141592857Y-92257142D01*
X141621428Y-92314285D01*
G04 #@! TO.C,C26*
X144835714Y-102244285D02*
X144864285Y-102272857D01*
X144950000Y-102301428D01*
X145007142Y-102301428D01*
X145092857Y-102272857D01*
X145150000Y-102215714D01*
X145178571Y-102158571D01*
X145207142Y-102044285D01*
X145207142Y-101958571D01*
X145178571Y-101844285D01*
X145150000Y-101787142D01*
X145092857Y-101730000D01*
X145007142Y-101701428D01*
X144950000Y-101701428D01*
X144864285Y-101730000D01*
X144835714Y-101758571D01*
X144607142Y-101758571D02*
X144578571Y-101730000D01*
X144521428Y-101701428D01*
X144378571Y-101701428D01*
X144321428Y-101730000D01*
X144292857Y-101758571D01*
X144264285Y-101815714D01*
X144264285Y-101872857D01*
X144292857Y-101958571D01*
X144635714Y-102301428D01*
X144264285Y-102301428D01*
X143750000Y-101701428D02*
X143864285Y-101701428D01*
X143921428Y-101730000D01*
X143950000Y-101758571D01*
X144007142Y-101844285D01*
X144035714Y-101958571D01*
X144035714Y-102187142D01*
X144007142Y-102244285D01*
X143978571Y-102272857D01*
X143921428Y-102301428D01*
X143807142Y-102301428D01*
X143750000Y-102272857D01*
X143721428Y-102244285D01*
X143692857Y-102187142D01*
X143692857Y-102044285D01*
X143721428Y-101987142D01*
X143750000Y-101958571D01*
X143807142Y-101930000D01*
X143921428Y-101930000D01*
X143978571Y-101958571D01*
X144007142Y-101987142D01*
X144035714Y-102044285D01*
G04 #@! TO.C,C27*
X151385714Y-102264285D02*
X151414285Y-102292857D01*
X151500000Y-102321428D01*
X151557142Y-102321428D01*
X151642857Y-102292857D01*
X151700000Y-102235714D01*
X151728571Y-102178571D01*
X151757142Y-102064285D01*
X151757142Y-101978571D01*
X151728571Y-101864285D01*
X151700000Y-101807142D01*
X151642857Y-101750000D01*
X151557142Y-101721428D01*
X151500000Y-101721428D01*
X151414285Y-101750000D01*
X151385714Y-101778571D01*
X151157142Y-101778571D02*
X151128571Y-101750000D01*
X151071428Y-101721428D01*
X150928571Y-101721428D01*
X150871428Y-101750000D01*
X150842857Y-101778571D01*
X150814285Y-101835714D01*
X150814285Y-101892857D01*
X150842857Y-101978571D01*
X151185714Y-102321428D01*
X150814285Y-102321428D01*
X150614285Y-101721428D02*
X150214285Y-101721428D01*
X150471428Y-102321428D01*
G04 #@! TO.C,R5*
X144850000Y-101361428D02*
X145050000Y-101075714D01*
X145192857Y-101361428D02*
X145192857Y-100761428D01*
X144964285Y-100761428D01*
X144907142Y-100790000D01*
X144878571Y-100818571D01*
X144850000Y-100875714D01*
X144850000Y-100961428D01*
X144878571Y-101018571D01*
X144907142Y-101047142D01*
X144964285Y-101075714D01*
X145192857Y-101075714D01*
X144307142Y-100761428D02*
X144592857Y-100761428D01*
X144621428Y-101047142D01*
X144592857Y-101018571D01*
X144535714Y-100990000D01*
X144392857Y-100990000D01*
X144335714Y-101018571D01*
X144307142Y-101047142D01*
X144278571Y-101104285D01*
X144278571Y-101247142D01*
X144307142Y-101304285D01*
X144335714Y-101332857D01*
X144392857Y-101361428D01*
X144535714Y-101361428D01*
X144592857Y-101332857D01*
X144621428Y-101304285D01*
G04 #@! TO.C,R6*
X149050000Y-99271428D02*
X149250000Y-98985714D01*
X149392857Y-99271428D02*
X149392857Y-98671428D01*
X149164285Y-98671428D01*
X149107142Y-98700000D01*
X149078571Y-98728571D01*
X149050000Y-98785714D01*
X149050000Y-98871428D01*
X149078571Y-98928571D01*
X149107142Y-98957142D01*
X149164285Y-98985714D01*
X149392857Y-98985714D01*
X148535714Y-98671428D02*
X148650000Y-98671428D01*
X148707142Y-98700000D01*
X148735714Y-98728571D01*
X148792857Y-98814285D01*
X148821428Y-98928571D01*
X148821428Y-99157142D01*
X148792857Y-99214285D01*
X148764285Y-99242857D01*
X148707142Y-99271428D01*
X148592857Y-99271428D01*
X148535714Y-99242857D01*
X148507142Y-99214285D01*
X148478571Y-99157142D01*
X148478571Y-99014285D01*
X148507142Y-98957142D01*
X148535714Y-98928571D01*
X148592857Y-98900000D01*
X148707142Y-98900000D01*
X148764285Y-98928571D01*
X148792857Y-98957142D01*
X148821428Y-99014285D01*
G04 #@! TO.C,C28*
X145835714Y-90764285D02*
X145864285Y-90792857D01*
X145950000Y-90821428D01*
X146007142Y-90821428D01*
X146092857Y-90792857D01*
X146150000Y-90735714D01*
X146178571Y-90678571D01*
X146207142Y-90564285D01*
X146207142Y-90478571D01*
X146178571Y-90364285D01*
X146150000Y-90307142D01*
X146092857Y-90250000D01*
X146007142Y-90221428D01*
X145950000Y-90221428D01*
X145864285Y-90250000D01*
X145835714Y-90278571D01*
X145607142Y-90278571D02*
X145578571Y-90250000D01*
X145521428Y-90221428D01*
X145378571Y-90221428D01*
X145321428Y-90250000D01*
X145292857Y-90278571D01*
X145264285Y-90335714D01*
X145264285Y-90392857D01*
X145292857Y-90478571D01*
X145635714Y-90821428D01*
X145264285Y-90821428D01*
X144921428Y-90478571D02*
X144978571Y-90450000D01*
X145007142Y-90421428D01*
X145035714Y-90364285D01*
X145035714Y-90335714D01*
X145007142Y-90278571D01*
X144978571Y-90250000D01*
X144921428Y-90221428D01*
X144807142Y-90221428D01*
X144750000Y-90250000D01*
X144721428Y-90278571D01*
X144692857Y-90335714D01*
X144692857Y-90364285D01*
X144721428Y-90421428D01*
X144750000Y-90450000D01*
X144807142Y-90478571D01*
X144921428Y-90478571D01*
X144978571Y-90507142D01*
X145007142Y-90535714D01*
X145035714Y-90592857D01*
X145035714Y-90707142D01*
X145007142Y-90764285D01*
X144978571Y-90792857D01*
X144921428Y-90821428D01*
X144807142Y-90821428D01*
X144750000Y-90792857D01*
X144721428Y-90764285D01*
X144692857Y-90707142D01*
X144692857Y-90592857D01*
X144721428Y-90535714D01*
X144750000Y-90507142D01*
X144807142Y-90478571D01*
G04 #@! TO.C,C29*
X154485714Y-100564285D02*
X154514285Y-100592857D01*
X154600000Y-100621428D01*
X154657142Y-100621428D01*
X154742857Y-100592857D01*
X154800000Y-100535714D01*
X154828571Y-100478571D01*
X154857142Y-100364285D01*
X154857142Y-100278571D01*
X154828571Y-100164285D01*
X154800000Y-100107142D01*
X154742857Y-100050000D01*
X154657142Y-100021428D01*
X154600000Y-100021428D01*
X154514285Y-100050000D01*
X154485714Y-100078571D01*
X154257142Y-100078571D02*
X154228571Y-100050000D01*
X154171428Y-100021428D01*
X154028571Y-100021428D01*
X153971428Y-100050000D01*
X153942857Y-100078571D01*
X153914285Y-100135714D01*
X153914285Y-100192857D01*
X153942857Y-100278571D01*
X154285714Y-100621428D01*
X153914285Y-100621428D01*
X153628571Y-100621428D02*
X153514285Y-100621428D01*
X153457142Y-100592857D01*
X153428571Y-100564285D01*
X153371428Y-100478571D01*
X153342857Y-100364285D01*
X153342857Y-100135714D01*
X153371428Y-100078571D01*
X153400000Y-100050000D01*
X153457142Y-100021428D01*
X153571428Y-100021428D01*
X153628571Y-100050000D01*
X153657142Y-100078571D01*
X153685714Y-100135714D01*
X153685714Y-100278571D01*
X153657142Y-100335714D01*
X153628571Y-100364285D01*
X153571428Y-100392857D01*
X153457142Y-100392857D01*
X153400000Y-100364285D01*
X153371428Y-100335714D01*
X153342857Y-100278571D01*
G04 #@! TO.C,C30*
X151184285Y-95074285D02*
X151212857Y-95045714D01*
X151241428Y-94960000D01*
X151241428Y-94902857D01*
X151212857Y-94817142D01*
X151155714Y-94760000D01*
X151098571Y-94731428D01*
X150984285Y-94702857D01*
X150898571Y-94702857D01*
X150784285Y-94731428D01*
X150727142Y-94760000D01*
X150670000Y-94817142D01*
X150641428Y-94902857D01*
X150641428Y-94960000D01*
X150670000Y-95045714D01*
X150698571Y-95074285D01*
X150641428Y-95274285D02*
X150641428Y-95645714D01*
X150870000Y-95445714D01*
X150870000Y-95531428D01*
X150898571Y-95588571D01*
X150927142Y-95617142D01*
X150984285Y-95645714D01*
X151127142Y-95645714D01*
X151184285Y-95617142D01*
X151212857Y-95588571D01*
X151241428Y-95531428D01*
X151241428Y-95360000D01*
X151212857Y-95302857D01*
X151184285Y-95274285D01*
X150641428Y-96017142D02*
X150641428Y-96074285D01*
X150670000Y-96131428D01*
X150698571Y-96160000D01*
X150755714Y-96188571D01*
X150870000Y-96217142D01*
X151012857Y-96217142D01*
X151127142Y-96188571D01*
X151184285Y-96160000D01*
X151212857Y-96131428D01*
X151241428Y-96074285D01*
X151241428Y-96017142D01*
X151212857Y-95960000D01*
X151184285Y-95931428D01*
X151127142Y-95902857D01*
X151012857Y-95874285D01*
X150870000Y-95874285D01*
X150755714Y-95902857D01*
X150698571Y-95931428D01*
X150670000Y-95960000D01*
X150641428Y-96017142D01*
G04 #@! TO.C,C31*
X150305714Y-89434285D02*
X150334285Y-89462857D01*
X150420000Y-89491428D01*
X150477142Y-89491428D01*
X150562857Y-89462857D01*
X150620000Y-89405714D01*
X150648571Y-89348571D01*
X150677142Y-89234285D01*
X150677142Y-89148571D01*
X150648571Y-89034285D01*
X150620000Y-88977142D01*
X150562857Y-88920000D01*
X150477142Y-88891428D01*
X150420000Y-88891428D01*
X150334285Y-88920000D01*
X150305714Y-88948571D01*
X150105714Y-88891428D02*
X149734285Y-88891428D01*
X149934285Y-89120000D01*
X149848571Y-89120000D01*
X149791428Y-89148571D01*
X149762857Y-89177142D01*
X149734285Y-89234285D01*
X149734285Y-89377142D01*
X149762857Y-89434285D01*
X149791428Y-89462857D01*
X149848571Y-89491428D01*
X150020000Y-89491428D01*
X150077142Y-89462857D01*
X150105714Y-89434285D01*
X149162857Y-89491428D02*
X149505714Y-89491428D01*
X149334285Y-89491428D02*
X149334285Y-88891428D01*
X149391428Y-88977142D01*
X149448571Y-89034285D01*
X149505714Y-89062857D01*
G04 #@! TO.C,C32*
X139164285Y-95564285D02*
X139192857Y-95535714D01*
X139221428Y-95450000D01*
X139221428Y-95392857D01*
X139192857Y-95307142D01*
X139135714Y-95250000D01*
X139078571Y-95221428D01*
X138964285Y-95192857D01*
X138878571Y-95192857D01*
X138764285Y-95221428D01*
X138707142Y-95250000D01*
X138650000Y-95307142D01*
X138621428Y-95392857D01*
X138621428Y-95450000D01*
X138650000Y-95535714D01*
X138678571Y-95564285D01*
X138621428Y-95764285D02*
X138621428Y-96135714D01*
X138850000Y-95935714D01*
X138850000Y-96021428D01*
X138878571Y-96078571D01*
X138907142Y-96107142D01*
X138964285Y-96135714D01*
X139107142Y-96135714D01*
X139164285Y-96107142D01*
X139192857Y-96078571D01*
X139221428Y-96021428D01*
X139221428Y-95850000D01*
X139192857Y-95792857D01*
X139164285Y-95764285D01*
X138678571Y-96364285D02*
X138650000Y-96392857D01*
X138621428Y-96450000D01*
X138621428Y-96592857D01*
X138650000Y-96650000D01*
X138678571Y-96678571D01*
X138735714Y-96707142D01*
X138792857Y-96707142D01*
X138878571Y-96678571D01*
X139221428Y-96335714D01*
X139221428Y-96707142D01*
G04 #@! TO.C,C33*
X145835714Y-89514285D02*
X145864285Y-89542857D01*
X145950000Y-89571428D01*
X146007142Y-89571428D01*
X146092857Y-89542857D01*
X146150000Y-89485714D01*
X146178571Y-89428571D01*
X146207142Y-89314285D01*
X146207142Y-89228571D01*
X146178571Y-89114285D01*
X146150000Y-89057142D01*
X146092857Y-89000000D01*
X146007142Y-88971428D01*
X145950000Y-88971428D01*
X145864285Y-89000000D01*
X145835714Y-89028571D01*
X145635714Y-88971428D02*
X145264285Y-88971428D01*
X145464285Y-89200000D01*
X145378571Y-89200000D01*
X145321428Y-89228571D01*
X145292857Y-89257142D01*
X145264285Y-89314285D01*
X145264285Y-89457142D01*
X145292857Y-89514285D01*
X145321428Y-89542857D01*
X145378571Y-89571428D01*
X145550000Y-89571428D01*
X145607142Y-89542857D01*
X145635714Y-89514285D01*
X145064285Y-88971428D02*
X144692857Y-88971428D01*
X144892857Y-89200000D01*
X144807142Y-89200000D01*
X144750000Y-89228571D01*
X144721428Y-89257142D01*
X144692857Y-89314285D01*
X144692857Y-89457142D01*
X144721428Y-89514285D01*
X144750000Y-89542857D01*
X144807142Y-89571428D01*
X144978571Y-89571428D01*
X145035714Y-89542857D01*
X145064285Y-89514285D01*
G04 #@! TO.C,C34*
X152595714Y-99614285D02*
X152624285Y-99642857D01*
X152710000Y-99671428D01*
X152767142Y-99671428D01*
X152852857Y-99642857D01*
X152910000Y-99585714D01*
X152938571Y-99528571D01*
X152967142Y-99414285D01*
X152967142Y-99328571D01*
X152938571Y-99214285D01*
X152910000Y-99157142D01*
X152852857Y-99100000D01*
X152767142Y-99071428D01*
X152710000Y-99071428D01*
X152624285Y-99100000D01*
X152595714Y-99128571D01*
X152395714Y-99071428D02*
X152024285Y-99071428D01*
X152224285Y-99300000D01*
X152138571Y-99300000D01*
X152081428Y-99328571D01*
X152052857Y-99357142D01*
X152024285Y-99414285D01*
X152024285Y-99557142D01*
X152052857Y-99614285D01*
X152081428Y-99642857D01*
X152138571Y-99671428D01*
X152310000Y-99671428D01*
X152367142Y-99642857D01*
X152395714Y-99614285D01*
X151510000Y-99271428D02*
X151510000Y-99671428D01*
X151652857Y-99042857D02*
X151795714Y-99471428D01*
X151424285Y-99471428D01*
G04 #@! TO.C,C35*
X150305714Y-90374285D02*
X150334285Y-90402857D01*
X150420000Y-90431428D01*
X150477142Y-90431428D01*
X150562857Y-90402857D01*
X150620000Y-90345714D01*
X150648571Y-90288571D01*
X150677142Y-90174285D01*
X150677142Y-90088571D01*
X150648571Y-89974285D01*
X150620000Y-89917142D01*
X150562857Y-89860000D01*
X150477142Y-89831428D01*
X150420000Y-89831428D01*
X150334285Y-89860000D01*
X150305714Y-89888571D01*
X150105714Y-89831428D02*
X149734285Y-89831428D01*
X149934285Y-90060000D01*
X149848571Y-90060000D01*
X149791428Y-90088571D01*
X149762857Y-90117142D01*
X149734285Y-90174285D01*
X149734285Y-90317142D01*
X149762857Y-90374285D01*
X149791428Y-90402857D01*
X149848571Y-90431428D01*
X150020000Y-90431428D01*
X150077142Y-90402857D01*
X150105714Y-90374285D01*
X149191428Y-89831428D02*
X149477142Y-89831428D01*
X149505714Y-90117142D01*
X149477142Y-90088571D01*
X149420000Y-90060000D01*
X149277142Y-90060000D01*
X149220000Y-90088571D01*
X149191428Y-90117142D01*
X149162857Y-90174285D01*
X149162857Y-90317142D01*
X149191428Y-90374285D01*
X149220000Y-90402857D01*
X149277142Y-90431428D01*
X149420000Y-90431428D01*
X149477142Y-90402857D01*
X149505714Y-90374285D01*
G04 #@! TO.C,C36*
X152124285Y-95074285D02*
X152152857Y-95045714D01*
X152181428Y-94960000D01*
X152181428Y-94902857D01*
X152152857Y-94817142D01*
X152095714Y-94760000D01*
X152038571Y-94731428D01*
X151924285Y-94702857D01*
X151838571Y-94702857D01*
X151724285Y-94731428D01*
X151667142Y-94760000D01*
X151610000Y-94817142D01*
X151581428Y-94902857D01*
X151581428Y-94960000D01*
X151610000Y-95045714D01*
X151638571Y-95074285D01*
X151581428Y-95274285D02*
X151581428Y-95645714D01*
X151810000Y-95445714D01*
X151810000Y-95531428D01*
X151838571Y-95588571D01*
X151867142Y-95617142D01*
X151924285Y-95645714D01*
X152067142Y-95645714D01*
X152124285Y-95617142D01*
X152152857Y-95588571D01*
X152181428Y-95531428D01*
X152181428Y-95360000D01*
X152152857Y-95302857D01*
X152124285Y-95274285D01*
X151581428Y-96160000D02*
X151581428Y-96045714D01*
X151610000Y-95988571D01*
X151638571Y-95960000D01*
X151724285Y-95902857D01*
X151838571Y-95874285D01*
X152067142Y-95874285D01*
X152124285Y-95902857D01*
X152152857Y-95931428D01*
X152181428Y-95988571D01*
X152181428Y-96102857D01*
X152152857Y-96160000D01*
X152124285Y-96188571D01*
X152067142Y-96217142D01*
X151924285Y-96217142D01*
X151867142Y-96188571D01*
X151838571Y-96160000D01*
X151810000Y-96102857D01*
X151810000Y-95988571D01*
X151838571Y-95931428D01*
X151867142Y-95902857D01*
X151924285Y-95874285D01*
G04 #@! TO.C,C37*
X146635714Y-100214285D02*
X146664285Y-100242857D01*
X146750000Y-100271428D01*
X146807142Y-100271428D01*
X146892857Y-100242857D01*
X146950000Y-100185714D01*
X146978571Y-100128571D01*
X147007142Y-100014285D01*
X147007142Y-99928571D01*
X146978571Y-99814285D01*
X146950000Y-99757142D01*
X146892857Y-99700000D01*
X146807142Y-99671428D01*
X146750000Y-99671428D01*
X146664285Y-99700000D01*
X146635714Y-99728571D01*
X146435714Y-99671428D02*
X146064285Y-99671428D01*
X146264285Y-99900000D01*
X146178571Y-99900000D01*
X146121428Y-99928571D01*
X146092857Y-99957142D01*
X146064285Y-100014285D01*
X146064285Y-100157142D01*
X146092857Y-100214285D01*
X146121428Y-100242857D01*
X146178571Y-100271428D01*
X146350000Y-100271428D01*
X146407142Y-100242857D01*
X146435714Y-100214285D01*
X145864285Y-99671428D02*
X145464285Y-99671428D01*
X145721428Y-100271428D01*
G04 #@! TO.C,C38*
X151364285Y-97914285D02*
X151392857Y-97885714D01*
X151421428Y-97800000D01*
X151421428Y-97742857D01*
X151392857Y-97657142D01*
X151335714Y-97600000D01*
X151278571Y-97571428D01*
X151164285Y-97542857D01*
X151078571Y-97542857D01*
X150964285Y-97571428D01*
X150907142Y-97600000D01*
X150850000Y-97657142D01*
X150821428Y-97742857D01*
X150821428Y-97800000D01*
X150850000Y-97885714D01*
X150878571Y-97914285D01*
X150821428Y-98114285D02*
X150821428Y-98485714D01*
X151050000Y-98285714D01*
X151050000Y-98371428D01*
X151078571Y-98428571D01*
X151107142Y-98457142D01*
X151164285Y-98485714D01*
X151307142Y-98485714D01*
X151364285Y-98457142D01*
X151392857Y-98428571D01*
X151421428Y-98371428D01*
X151421428Y-98200000D01*
X151392857Y-98142857D01*
X151364285Y-98114285D01*
X151078571Y-98828571D02*
X151050000Y-98771428D01*
X151021428Y-98742857D01*
X150964285Y-98714285D01*
X150935714Y-98714285D01*
X150878571Y-98742857D01*
X150850000Y-98771428D01*
X150821428Y-98828571D01*
X150821428Y-98942857D01*
X150850000Y-99000000D01*
X150878571Y-99028571D01*
X150935714Y-99057142D01*
X150964285Y-99057142D01*
X151021428Y-99028571D01*
X151050000Y-99000000D01*
X151078571Y-98942857D01*
X151078571Y-98828571D01*
X151107142Y-98771428D01*
X151135714Y-98742857D01*
X151192857Y-98714285D01*
X151307142Y-98714285D01*
X151364285Y-98742857D01*
X151392857Y-98771428D01*
X151421428Y-98828571D01*
X151421428Y-98942857D01*
X151392857Y-99000000D01*
X151364285Y-99028571D01*
X151307142Y-99057142D01*
X151192857Y-99057142D01*
X151135714Y-99028571D01*
X151107142Y-99000000D01*
X151078571Y-98942857D01*
G04 #@! TO.C,D1*
X141992857Y-107971428D02*
X141992857Y-107371428D01*
X141850000Y-107371428D01*
X141764285Y-107400000D01*
X141707142Y-107457142D01*
X141678571Y-107514285D01*
X141650000Y-107628571D01*
X141650000Y-107714285D01*
X141678571Y-107828571D01*
X141707142Y-107885714D01*
X141764285Y-107942857D01*
X141850000Y-107971428D01*
X141992857Y-107971428D01*
X141078571Y-107971428D02*
X141421428Y-107971428D01*
X141250000Y-107971428D02*
X141250000Y-107371428D01*
X141307142Y-107457142D01*
X141364285Y-107514285D01*
X141421428Y-107542857D01*
G04 #@! TO.C,R7*
X144321428Y-106900000D02*
X144035714Y-106700000D01*
X144321428Y-106557142D02*
X143721428Y-106557142D01*
X143721428Y-106785714D01*
X143750000Y-106842857D01*
X143778571Y-106871428D01*
X143835714Y-106900000D01*
X143921428Y-106900000D01*
X143978571Y-106871428D01*
X144007142Y-106842857D01*
X144035714Y-106785714D01*
X144035714Y-106557142D01*
X143721428Y-107100000D02*
X143721428Y-107500000D01*
X144321428Y-107242857D01*
G04 #@! TO.C,U2*
X149021428Y-93872857D02*
X149507142Y-93872857D01*
X149564285Y-93901428D01*
X149592857Y-93930000D01*
X149621428Y-93987142D01*
X149621428Y-94101428D01*
X149592857Y-94158571D01*
X149564285Y-94187142D01*
X149507142Y-94215714D01*
X149021428Y-94215714D01*
X149078571Y-94472857D02*
X149050000Y-94501428D01*
X149021428Y-94558571D01*
X149021428Y-94701428D01*
X149050000Y-94758571D01*
X149078571Y-94787142D01*
X149135714Y-94815714D01*
X149192857Y-94815714D01*
X149278571Y-94787142D01*
X149621428Y-94444285D01*
X149621428Y-94815714D01*
G04 #@! TD*
M02*
