G04 #@! TF.GenerationSoftware,KiCad,Pcbnew,(5.1.5)-3*
G04 #@! TF.CreationDate,2020-04-11T20:19:15+09:00*
G04 #@! TF.ProjectId,imxrt1020-breakout,696d7872-7431-4303-9230-2d627265616b,rev?*
G04 #@! TF.SameCoordinates,Original*
G04 #@! TF.FileFunction,Legend,Top*
G04 #@! TF.FilePolarity,Positive*
%FSLAX46Y46*%
G04 Gerber Fmt 4.6, Leading zero omitted, Abs format (unit mm)*
G04 Created by KiCad (PCBNEW (5.1.5)-3) date 2020-04-11 20:19:15*
%MOMM*%
%LPD*%
G04 APERTURE LIST*
%ADD10C,0.100000*%
%ADD11C,0.150000*%
%ADD12C,0.200000*%
%ADD13C,0.120000*%
%ADD14C,0.010000*%
G04 APERTURE END LIST*
D10*
X146771428Y-108921428D02*
X146571428Y-108635714D01*
X146428571Y-108921428D02*
X146428571Y-108321428D01*
X146657142Y-108321428D01*
X146714285Y-108350000D01*
X146742857Y-108378571D01*
X146771428Y-108435714D01*
X146771428Y-108521428D01*
X146742857Y-108578571D01*
X146714285Y-108607142D01*
X146657142Y-108635714D01*
X146428571Y-108635714D01*
X147000000Y-108892857D02*
X147085714Y-108921428D01*
X147228571Y-108921428D01*
X147285714Y-108892857D01*
X147314285Y-108864285D01*
X147342857Y-108807142D01*
X147342857Y-108750000D01*
X147314285Y-108692857D01*
X147285714Y-108664285D01*
X147228571Y-108635714D01*
X147114285Y-108607142D01*
X147057142Y-108578571D01*
X147028571Y-108550000D01*
X147000000Y-108492857D01*
X147000000Y-108435714D01*
X147028571Y-108378571D01*
X147057142Y-108350000D01*
X147114285Y-108321428D01*
X147257142Y-108321428D01*
X147342857Y-108350000D01*
X147514285Y-108321428D02*
X147857142Y-108321428D01*
X147685714Y-108921428D02*
X147685714Y-108321428D01*
X134785714Y-90557142D02*
X134871428Y-90585714D01*
X134900000Y-90614285D01*
X134928571Y-90671428D01*
X134928571Y-90757142D01*
X134900000Y-90814285D01*
X134871428Y-90842857D01*
X134814285Y-90871428D01*
X134585714Y-90871428D01*
X134585714Y-90271428D01*
X134785714Y-90271428D01*
X134842857Y-90300000D01*
X134871428Y-90328571D01*
X134900000Y-90385714D01*
X134900000Y-90442857D01*
X134871428Y-90500000D01*
X134842857Y-90528571D01*
X134785714Y-90557142D01*
X134585714Y-90557142D01*
X135300000Y-90271428D02*
X135414285Y-90271428D01*
X135471428Y-90300000D01*
X135528571Y-90357142D01*
X135557142Y-90471428D01*
X135557142Y-90671428D01*
X135528571Y-90785714D01*
X135471428Y-90842857D01*
X135414285Y-90871428D01*
X135300000Y-90871428D01*
X135242857Y-90842857D01*
X135185714Y-90785714D01*
X135157142Y-90671428D01*
X135157142Y-90471428D01*
X135185714Y-90357142D01*
X135242857Y-90300000D01*
X135300000Y-90271428D01*
X135928571Y-90271428D02*
X136042857Y-90271428D01*
X136100000Y-90300000D01*
X136157142Y-90357142D01*
X136185714Y-90471428D01*
X136185714Y-90671428D01*
X136157142Y-90785714D01*
X136100000Y-90842857D01*
X136042857Y-90871428D01*
X135928571Y-90871428D01*
X135871428Y-90842857D01*
X135814285Y-90785714D01*
X135785714Y-90671428D01*
X135785714Y-90471428D01*
X135814285Y-90357142D01*
X135871428Y-90300000D01*
X135928571Y-90271428D01*
X136357142Y-90271428D02*
X136700000Y-90271428D01*
X136528571Y-90871428D02*
X136528571Y-90271428D01*
X133957142Y-91842857D02*
X134042857Y-91871428D01*
X134185714Y-91871428D01*
X134242857Y-91842857D01*
X134271428Y-91814285D01*
X134300000Y-91757142D01*
X134300000Y-91700000D01*
X134271428Y-91642857D01*
X134242857Y-91614285D01*
X134185714Y-91585714D01*
X134071428Y-91557142D01*
X134014285Y-91528571D01*
X133985714Y-91500000D01*
X133957142Y-91442857D01*
X133957142Y-91385714D01*
X133985714Y-91328571D01*
X134014285Y-91300000D01*
X134071428Y-91271428D01*
X134214285Y-91271428D01*
X134300000Y-91300000D01*
X134471428Y-91271428D02*
X134814285Y-91271428D01*
X134642857Y-91871428D02*
X134642857Y-91271428D01*
X135014285Y-91814285D02*
X135042857Y-91842857D01*
X135014285Y-91871428D01*
X134985714Y-91842857D01*
X135014285Y-91814285D01*
X135014285Y-91871428D01*
X135014285Y-91500000D02*
X135042857Y-91528571D01*
X135014285Y-91557142D01*
X134985714Y-91528571D01*
X135014285Y-91500000D01*
X135014285Y-91557142D01*
X135300000Y-91271428D02*
X135300000Y-91757142D01*
X135328571Y-91814285D01*
X135357142Y-91842857D01*
X135414285Y-91871428D01*
X135528571Y-91871428D01*
X135585714Y-91842857D01*
X135614285Y-91814285D01*
X135642857Y-91757142D01*
X135642857Y-91271428D01*
X135900000Y-91700000D02*
X136185714Y-91700000D01*
X135842857Y-91871428D02*
X136042857Y-91271428D01*
X136242857Y-91871428D01*
X136785714Y-91871428D02*
X136585714Y-91585714D01*
X136442857Y-91871428D02*
X136442857Y-91271428D01*
X136671428Y-91271428D01*
X136728571Y-91300000D01*
X136757142Y-91328571D01*
X136785714Y-91385714D01*
X136785714Y-91471428D01*
X136757142Y-91528571D01*
X136728571Y-91557142D01*
X136671428Y-91585714D01*
X136442857Y-91585714D01*
X136957142Y-91271428D02*
X137300000Y-91271428D01*
X137128571Y-91871428D02*
X137128571Y-91271428D01*
X134071428Y-92271428D02*
X134185714Y-92271428D01*
X134242857Y-92300000D01*
X134300000Y-92357142D01*
X134328571Y-92471428D01*
X134328571Y-92671428D01*
X134300000Y-92785714D01*
X134242857Y-92842857D01*
X134185714Y-92871428D01*
X134071428Y-92871428D01*
X134014285Y-92842857D01*
X133957142Y-92785714D01*
X133928571Y-92671428D01*
X133928571Y-92471428D01*
X133957142Y-92357142D01*
X134014285Y-92300000D01*
X134071428Y-92271428D01*
X134585714Y-92871428D02*
X134585714Y-92271428D01*
X134814285Y-92271428D01*
X134871428Y-92300000D01*
X134900000Y-92328571D01*
X134928571Y-92385714D01*
X134928571Y-92471428D01*
X134900000Y-92528571D01*
X134871428Y-92557142D01*
X134814285Y-92585714D01*
X134585714Y-92585714D01*
X135185714Y-92814285D02*
X135214285Y-92842857D01*
X135185714Y-92871428D01*
X135157142Y-92842857D01*
X135185714Y-92814285D01*
X135185714Y-92871428D01*
X135185714Y-92500000D02*
X135214285Y-92528571D01*
X135185714Y-92557142D01*
X135157142Y-92528571D01*
X135185714Y-92500000D01*
X135185714Y-92557142D01*
X135671428Y-92557142D02*
X135471428Y-92557142D01*
X135471428Y-92871428D02*
X135471428Y-92271428D01*
X135757142Y-92271428D01*
X136242857Y-92471428D02*
X136242857Y-92871428D01*
X135985714Y-92471428D02*
X135985714Y-92785714D01*
X136014285Y-92842857D01*
X136071428Y-92871428D01*
X136157142Y-92871428D01*
X136214285Y-92842857D01*
X136242857Y-92814285D01*
X136500000Y-92842857D02*
X136557142Y-92871428D01*
X136671428Y-92871428D01*
X136728571Y-92842857D01*
X136757142Y-92785714D01*
X136757142Y-92757142D01*
X136728571Y-92700000D01*
X136671428Y-92671428D01*
X136585714Y-92671428D01*
X136528571Y-92642857D01*
X136500000Y-92585714D01*
X136500000Y-92557142D01*
X136528571Y-92500000D01*
X136585714Y-92471428D01*
X136671428Y-92471428D01*
X136728571Y-92500000D01*
X137242857Y-92842857D02*
X137185714Y-92871428D01*
X137071428Y-92871428D01*
X137014285Y-92842857D01*
X136985714Y-92785714D01*
X136985714Y-92557142D01*
X137014285Y-92500000D01*
X137071428Y-92471428D01*
X137185714Y-92471428D01*
X137242857Y-92500000D01*
X137271428Y-92557142D01*
X137271428Y-92614285D01*
X136985714Y-92671428D01*
X136550000Y-102750000D02*
X134000000Y-102750000D01*
X134400000Y-100700000D02*
X134200000Y-100900000D01*
X134400000Y-100700000D02*
X134600000Y-100900000D01*
X134400000Y-100700000D02*
X134400000Y-102750000D01*
X134707142Y-102021428D02*
X135078571Y-102021428D01*
X134878571Y-102250000D01*
X134964285Y-102250000D01*
X135021428Y-102278571D01*
X135050000Y-102307142D01*
X135078571Y-102364285D01*
X135078571Y-102507142D01*
X135050000Y-102564285D01*
X135021428Y-102592857D01*
X134964285Y-102621428D01*
X134792857Y-102621428D01*
X134735714Y-102592857D01*
X134707142Y-102564285D01*
X135250000Y-102021428D02*
X135450000Y-102621428D01*
X135650000Y-102021428D01*
X135792857Y-102021428D02*
X136164285Y-102021428D01*
X135964285Y-102250000D01*
X136050000Y-102250000D01*
X136107142Y-102278571D01*
X136135714Y-102307142D01*
X136164285Y-102364285D01*
X136164285Y-102507142D01*
X136135714Y-102564285D01*
X136107142Y-102592857D01*
X136050000Y-102621428D01*
X135878571Y-102621428D01*
X135821428Y-102592857D01*
X135792857Y-102564285D01*
D11*
X134019047Y-100071428D02*
X134780952Y-100071428D01*
X134400000Y-100452380D02*
X134400000Y-99690476D01*
D12*
X140950000Y-87721428D02*
X140892857Y-87664285D01*
X140778571Y-87607142D01*
X140664285Y-87607142D01*
X140550000Y-87664285D01*
X140492857Y-87721428D01*
X140435714Y-87835714D01*
X140435714Y-87950000D01*
X140492857Y-88064285D01*
X140550000Y-88121428D01*
X140664285Y-88178571D01*
X140778571Y-88178571D01*
X140892857Y-88121428D01*
X140950000Y-88064285D01*
X140950000Y-87607142D02*
X140950000Y-88064285D01*
X141007142Y-88121428D01*
X141064285Y-88121428D01*
X141178571Y-88064285D01*
X141235714Y-87950000D01*
X141235714Y-87664285D01*
X141121428Y-87492857D01*
X140950000Y-87378571D01*
X140721428Y-87321428D01*
X140492857Y-87378571D01*
X140321428Y-87492857D01*
X140207142Y-87664285D01*
X140150000Y-87892857D01*
X140207142Y-88121428D01*
X140321428Y-88292857D01*
X140492857Y-88407142D01*
X140721428Y-88464285D01*
X140950000Y-88407142D01*
X141121428Y-88292857D01*
X141578571Y-87492857D02*
X142035714Y-87492857D01*
X141750000Y-87092857D02*
X141750000Y-88121428D01*
X141807142Y-88235714D01*
X141921428Y-88292857D01*
X142035714Y-88292857D01*
X142607142Y-88292857D02*
X142492857Y-88235714D01*
X142435714Y-88178571D01*
X142378571Y-88064285D01*
X142378571Y-87721428D01*
X142435714Y-87607142D01*
X142492857Y-87550000D01*
X142607142Y-87492857D01*
X142778571Y-87492857D01*
X142892857Y-87550000D01*
X142950000Y-87607142D01*
X143007142Y-87721428D01*
X143007142Y-88064285D01*
X142950000Y-88178571D01*
X142892857Y-88235714D01*
X142778571Y-88292857D01*
X142607142Y-88292857D01*
X143521428Y-88292857D02*
X143521428Y-87092857D01*
X143635714Y-87835714D02*
X143978571Y-88292857D01*
X143978571Y-87492857D02*
X143521428Y-87950000D01*
X145007142Y-87492857D02*
X145007142Y-88292857D01*
X144492857Y-87492857D02*
X144492857Y-88121428D01*
X144550000Y-88235714D01*
X144664285Y-88292857D01*
X144835714Y-88292857D01*
X144950000Y-88235714D01*
X145007142Y-88178571D01*
X145578571Y-88292857D02*
X145578571Y-87092857D01*
X146092857Y-88292857D02*
X146092857Y-87664285D01*
X146035714Y-87550000D01*
X145921428Y-87492857D01*
X145750000Y-87492857D01*
X145635714Y-87550000D01*
X145578571Y-87607142D01*
X146664285Y-88292857D02*
X146664285Y-87492857D01*
X146664285Y-87092857D02*
X146607142Y-87150000D01*
X146664285Y-87207142D01*
X146721428Y-87150000D01*
X146664285Y-87092857D01*
X146664285Y-87207142D01*
X147235714Y-88292857D02*
X147235714Y-87492857D01*
X147235714Y-87721428D02*
X147292857Y-87607142D01*
X147350000Y-87550000D01*
X147464285Y-87492857D01*
X147578571Y-87492857D01*
X148492857Y-88292857D02*
X148492857Y-87664285D01*
X148435714Y-87550000D01*
X148321428Y-87492857D01*
X148092857Y-87492857D01*
X147978571Y-87550000D01*
X148492857Y-88235714D02*
X148378571Y-88292857D01*
X148092857Y-88292857D01*
X147978571Y-88235714D01*
X147921428Y-88121428D01*
X147921428Y-88007142D01*
X147978571Y-87892857D01*
X148092857Y-87835714D01*
X148378571Y-87835714D01*
X148492857Y-87778571D01*
X138965714Y-86742857D02*
X138965714Y-85942857D01*
X138965714Y-85542857D02*
X138908571Y-85600000D01*
X138965714Y-85657142D01*
X139022857Y-85600000D01*
X138965714Y-85542857D01*
X138965714Y-85657142D01*
X139537142Y-86628571D02*
X139594285Y-86685714D01*
X139537142Y-86742857D01*
X139480000Y-86685714D01*
X139537142Y-86628571D01*
X139537142Y-86742857D01*
X140108571Y-86742857D02*
X140108571Y-85542857D01*
X140508571Y-86400000D01*
X140908571Y-85542857D01*
X140908571Y-86742857D01*
X141365714Y-85542857D02*
X142165714Y-86742857D01*
X142165714Y-85542857D02*
X141365714Y-86742857D01*
X144222857Y-86742857D02*
X143822857Y-86171428D01*
X143537142Y-86742857D02*
X143537142Y-85542857D01*
X143994285Y-85542857D01*
X144108571Y-85600000D01*
X144165714Y-85657142D01*
X144222857Y-85771428D01*
X144222857Y-85942857D01*
X144165714Y-86057142D01*
X144108571Y-86114285D01*
X143994285Y-86171428D01*
X143537142Y-86171428D01*
X144565714Y-85542857D02*
X145251428Y-85542857D01*
X144908571Y-86742857D02*
X144908571Y-85542857D01*
X146280000Y-86742857D02*
X145594285Y-86742857D01*
X145937142Y-86742857D02*
X145937142Y-85542857D01*
X145822857Y-85714285D01*
X145708571Y-85828571D01*
X145594285Y-85885714D01*
X147022857Y-85542857D02*
X147137142Y-85542857D01*
X147251428Y-85600000D01*
X147308571Y-85657142D01*
X147365714Y-85771428D01*
X147422857Y-86000000D01*
X147422857Y-86285714D01*
X147365714Y-86514285D01*
X147308571Y-86628571D01*
X147251428Y-86685714D01*
X147137142Y-86742857D01*
X147022857Y-86742857D01*
X146908571Y-86685714D01*
X146851428Y-86628571D01*
X146794285Y-86514285D01*
X146737142Y-86285714D01*
X146737142Y-86000000D01*
X146794285Y-85771428D01*
X146851428Y-85657142D01*
X146908571Y-85600000D01*
X147022857Y-85542857D01*
X147880000Y-85657142D02*
X147937142Y-85600000D01*
X148051428Y-85542857D01*
X148337142Y-85542857D01*
X148451428Y-85600000D01*
X148508571Y-85657142D01*
X148565714Y-85771428D01*
X148565714Y-85885714D01*
X148508571Y-86057142D01*
X147822857Y-86742857D01*
X148565714Y-86742857D01*
X149308571Y-85542857D02*
X149422857Y-85542857D01*
X149537142Y-85600000D01*
X149594285Y-85657142D01*
X149651428Y-85771428D01*
X149708571Y-86000000D01*
X149708571Y-86285714D01*
X149651428Y-86514285D01*
X149594285Y-86628571D01*
X149537142Y-86685714D01*
X149422857Y-86742857D01*
X149308571Y-86742857D01*
X149194285Y-86685714D01*
X149137142Y-86628571D01*
X149080000Y-86514285D01*
X149022857Y-86285714D01*
X149022857Y-86000000D01*
X149080000Y-85771428D01*
X149137142Y-85657142D01*
X149194285Y-85600000D01*
X149308571Y-85542857D01*
D13*
G04 #@! TO.C,SW1*
X138750000Y-109520000D02*
X138750000Y-106720000D01*
X146230000Y-109520000D02*
X138750000Y-109520000D01*
X146230000Y-106720000D02*
X146230000Y-109520000D01*
X138750000Y-106720000D02*
X146230000Y-106720000D01*
D14*
G04 #@! TO.C,G\002A\002A\002A*
G36*
X145145060Y-92705332D02*
G01*
X145492347Y-92724285D01*
X145805500Y-92746361D01*
X146147589Y-92765587D01*
X146547555Y-92777314D01*
X146978937Y-92781489D01*
X147415273Y-92778061D01*
X147830102Y-92766976D01*
X148154008Y-92750996D01*
X148416693Y-92736019D01*
X148611549Y-92731284D01*
X148755106Y-92739848D01*
X148863896Y-92764768D01*
X148954451Y-92809100D01*
X149043301Y-92875901D01*
X149100384Y-92925979D01*
X149237426Y-93095683D01*
X149317878Y-93312615D01*
X149345362Y-93540844D01*
X149345498Y-93683667D01*
X149324744Y-93774904D01*
X149273134Y-93846930D01*
X149241706Y-93877529D01*
X149165557Y-93971213D01*
X149129184Y-94061406D01*
X149128667Y-94070307D01*
X149107326Y-94150860D01*
X149037946Y-94179441D01*
X148912488Y-94157228D01*
X148802246Y-94118161D01*
X148649396Y-94069292D01*
X148560694Y-94067828D01*
X148547941Y-94075993D01*
X148516412Y-94099253D01*
X148467878Y-94111607D01*
X148384537Y-94113795D01*
X148248583Y-94106560D01*
X148094884Y-94094879D01*
X147941824Y-94076274D01*
X147837360Y-94040218D01*
X147745437Y-93971000D01*
X147694033Y-93920199D01*
X147587985Y-93820450D01*
X147485498Y-93753069D01*
X147366796Y-93712452D01*
X147212101Y-93692990D01*
X147001636Y-93689079D01*
X146885000Y-93690867D01*
X146679467Y-93693846D01*
X146418069Y-93695693D01*
X146129602Y-93696304D01*
X145842863Y-93695577D01*
X145744142Y-93694956D01*
X145047784Y-93689755D01*
X144908059Y-93825182D01*
X144823981Y-93917246D01*
X144774182Y-93992203D01*
X144768334Y-94012781D01*
X144749568Y-94087087D01*
X144686019Y-94138100D01*
X144566804Y-94169354D01*
X144381044Y-94184385D01*
X144231834Y-94187093D01*
X144000190Y-94191088D01*
X143751406Y-94200262D01*
X143529833Y-94212859D01*
X143476084Y-94216979D01*
X143313900Y-94226594D01*
X143185354Y-94227013D01*
X143112747Y-94218379D01*
X143105667Y-94214556D01*
X143088624Y-94158136D01*
X143077490Y-94045738D01*
X143075000Y-93951970D01*
X143087117Y-93791306D01*
X143129442Y-93630751D01*
X143210349Y-93439039D01*
X143884699Y-93439039D01*
X143939435Y-93546382D01*
X144006708Y-93593063D01*
X144124749Y-93639578D01*
X144225962Y-93635330D01*
X144321842Y-93598538D01*
X144409111Y-93521605D01*
X144433885Y-93414504D01*
X144423871Y-93379461D01*
X148211014Y-93379461D01*
X148281628Y-93481249D01*
X148301243Y-93501424D01*
X148432148Y-93588138D01*
X148564240Y-93594806D01*
X148670250Y-93535272D01*
X148739294Y-93426553D01*
X148728218Y-93305733D01*
X148638512Y-93183263D01*
X148617419Y-93164597D01*
X148499305Y-93080389D01*
X148410764Y-93063683D01*
X148330090Y-93114604D01*
X148285073Y-93166543D01*
X148212598Y-93283583D01*
X148211014Y-93379461D01*
X144423871Y-93379461D01*
X144400785Y-93298682D01*
X144314431Y-93195586D01*
X144223459Y-93141928D01*
X144081093Y-93117568D01*
X143967658Y-93165112D01*
X143899472Y-93277369D01*
X143897251Y-93285707D01*
X143884699Y-93439039D01*
X143210349Y-93439039D01*
X143210935Y-93437651D01*
X143223167Y-93412000D01*
X143292473Y-93262930D01*
X143344438Y-93141680D01*
X143370084Y-93069497D01*
X143371334Y-93061380D01*
X143407037Y-92996779D01*
X143496107Y-92923801D01*
X143611481Y-92860523D01*
X143724878Y-92825205D01*
X143828909Y-92808488D01*
X143986719Y-92782182D01*
X144168677Y-92751241D01*
X144218019Y-92742749D01*
X144407753Y-92716473D01*
X144616408Y-92701457D01*
X144857629Y-92697734D01*
X145145060Y-92705332D01*
G37*
X145145060Y-92705332D02*
X145492347Y-92724285D01*
X145805500Y-92746361D01*
X146147589Y-92765587D01*
X146547555Y-92777314D01*
X146978937Y-92781489D01*
X147415273Y-92778061D01*
X147830102Y-92766976D01*
X148154008Y-92750996D01*
X148416693Y-92736019D01*
X148611549Y-92731284D01*
X148755106Y-92739848D01*
X148863896Y-92764768D01*
X148954451Y-92809100D01*
X149043301Y-92875901D01*
X149100384Y-92925979D01*
X149237426Y-93095683D01*
X149317878Y-93312615D01*
X149345362Y-93540844D01*
X149345498Y-93683667D01*
X149324744Y-93774904D01*
X149273134Y-93846930D01*
X149241706Y-93877529D01*
X149165557Y-93971213D01*
X149129184Y-94061406D01*
X149128667Y-94070307D01*
X149107326Y-94150860D01*
X149037946Y-94179441D01*
X148912488Y-94157228D01*
X148802246Y-94118161D01*
X148649396Y-94069292D01*
X148560694Y-94067828D01*
X148547941Y-94075993D01*
X148516412Y-94099253D01*
X148467878Y-94111607D01*
X148384537Y-94113795D01*
X148248583Y-94106560D01*
X148094884Y-94094879D01*
X147941824Y-94076274D01*
X147837360Y-94040218D01*
X147745437Y-93971000D01*
X147694033Y-93920199D01*
X147587985Y-93820450D01*
X147485498Y-93753069D01*
X147366796Y-93712452D01*
X147212101Y-93692990D01*
X147001636Y-93689079D01*
X146885000Y-93690867D01*
X146679467Y-93693846D01*
X146418069Y-93695693D01*
X146129602Y-93696304D01*
X145842863Y-93695577D01*
X145744142Y-93694956D01*
X145047784Y-93689755D01*
X144908059Y-93825182D01*
X144823981Y-93917246D01*
X144774182Y-93992203D01*
X144768334Y-94012781D01*
X144749568Y-94087087D01*
X144686019Y-94138100D01*
X144566804Y-94169354D01*
X144381044Y-94184385D01*
X144231834Y-94187093D01*
X144000190Y-94191088D01*
X143751406Y-94200262D01*
X143529833Y-94212859D01*
X143476084Y-94216979D01*
X143313900Y-94226594D01*
X143185354Y-94227013D01*
X143112747Y-94218379D01*
X143105667Y-94214556D01*
X143088624Y-94158136D01*
X143077490Y-94045738D01*
X143075000Y-93951970D01*
X143087117Y-93791306D01*
X143129442Y-93630751D01*
X143210349Y-93439039D01*
X143884699Y-93439039D01*
X143939435Y-93546382D01*
X144006708Y-93593063D01*
X144124749Y-93639578D01*
X144225962Y-93635330D01*
X144321842Y-93598538D01*
X144409111Y-93521605D01*
X144433885Y-93414504D01*
X144423871Y-93379461D01*
X148211014Y-93379461D01*
X148281628Y-93481249D01*
X148301243Y-93501424D01*
X148432148Y-93588138D01*
X148564240Y-93594806D01*
X148670250Y-93535272D01*
X148739294Y-93426553D01*
X148728218Y-93305733D01*
X148638512Y-93183263D01*
X148617419Y-93164597D01*
X148499305Y-93080389D01*
X148410764Y-93063683D01*
X148330090Y-93114604D01*
X148285073Y-93166543D01*
X148212598Y-93283583D01*
X148211014Y-93379461D01*
X144423871Y-93379461D01*
X144400785Y-93298682D01*
X144314431Y-93195586D01*
X144223459Y-93141928D01*
X144081093Y-93117568D01*
X143967658Y-93165112D01*
X143899472Y-93277369D01*
X143897251Y-93285707D01*
X143884699Y-93439039D01*
X143210349Y-93439039D01*
X143210935Y-93437651D01*
X143223167Y-93412000D01*
X143292473Y-93262930D01*
X143344438Y-93141680D01*
X143370084Y-93069497D01*
X143371334Y-93061380D01*
X143407037Y-92996779D01*
X143496107Y-92923801D01*
X143611481Y-92860523D01*
X143724878Y-92825205D01*
X143828909Y-92808488D01*
X143986719Y-92782182D01*
X144168677Y-92751241D01*
X144218019Y-92742749D01*
X144407753Y-92716473D01*
X144616408Y-92701457D01*
X144857629Y-92697734D01*
X145145060Y-92705332D01*
G36*
X149282205Y-94164096D02*
G01*
X149285905Y-94167762D01*
X149329852Y-94242311D01*
X149308764Y-94287778D01*
X149241653Y-94285305D01*
X149194442Y-94258492D01*
X149140440Y-94201933D01*
X149158142Y-94151770D01*
X149162994Y-94146739D01*
X149217057Y-94121133D01*
X149282205Y-94164096D01*
G37*
X149282205Y-94164096D02*
X149285905Y-94167762D01*
X149329852Y-94242311D01*
X149308764Y-94287778D01*
X149241653Y-94285305D01*
X149194442Y-94258492D01*
X149140440Y-94201933D01*
X149158142Y-94151770D01*
X149162994Y-94146739D01*
X149217057Y-94121133D01*
X149282205Y-94164096D01*
G36*
X146878064Y-94365017D02*
G01*
X147094174Y-94369911D01*
X147337484Y-94377081D01*
X147592443Y-94385941D01*
X147843499Y-94395905D01*
X148075102Y-94406387D01*
X148271699Y-94416801D01*
X148417739Y-94426561D01*
X148497672Y-94435083D01*
X148504152Y-94436527D01*
X148538019Y-94450152D01*
X148564242Y-94476683D01*
X148584851Y-94527456D01*
X148601872Y-94613807D01*
X148617333Y-94747073D01*
X148633261Y-94938587D01*
X148651685Y-95199686D01*
X148658364Y-95298667D01*
X148677783Y-95558660D01*
X148700688Y-95819583D01*
X148724593Y-96055652D01*
X148747015Y-96241083D01*
X148753366Y-96284834D01*
X148777341Y-96454523D01*
X148784473Y-96562026D01*
X148773796Y-96628322D01*
X148744343Y-96674391D01*
X148734972Y-96684171D01*
X148675300Y-96730408D01*
X148622636Y-96713406D01*
X148590235Y-96686091D01*
X148508796Y-96650407D01*
X148371246Y-96623351D01*
X148205889Y-96607034D01*
X148041029Y-96603567D01*
X147904970Y-96615059D01*
X147847323Y-96630696D01*
X147756580Y-96638117D01*
X147646202Y-96610669D01*
X147537002Y-96580623D01*
X147465402Y-96603652D01*
X147463150Y-96605481D01*
X147401842Y-96632717D01*
X147379375Y-96625597D01*
X147326688Y-96613904D01*
X147214966Y-96607907D01*
X147069614Y-96607131D01*
X146916039Y-96611100D01*
X146779645Y-96619339D01*
X146685839Y-96631372D01*
X146662243Y-96639021D01*
X146663339Y-96676274D01*
X146712558Y-96723654D01*
X146780215Y-96796278D01*
X146800334Y-96854325D01*
X146807601Y-96896047D01*
X146839276Y-96869434D01*
X146858945Y-96843360D01*
X146924513Y-96789705D01*
X147030868Y-96772152D01*
X147101269Y-96774043D01*
X147246589Y-96796553D01*
X147321261Y-96850636D01*
X147337130Y-96948796D01*
X147327752Y-97013167D01*
X147301779Y-97143899D01*
X147282061Y-97243034D01*
X147253130Y-97348125D01*
X147203931Y-97398765D01*
X147107945Y-97414465D01*
X147047872Y-97415334D01*
X146930994Y-97406071D01*
X146872685Y-97370871D01*
X146854385Y-97328572D01*
X146831696Y-97241811D01*
X146750866Y-97328572D01*
X146632439Y-97402274D01*
X146498724Y-97405657D01*
X146409829Y-97362417D01*
X146343027Y-97276446D01*
X146323734Y-97224834D01*
X146307437Y-97175121D01*
X146285188Y-97194674D01*
X146257711Y-97256584D01*
X146199809Y-97344095D01*
X146105399Y-97372402D01*
X146080386Y-97373000D01*
X145984688Y-97357568D01*
X145935337Y-97320425D01*
X145935233Y-97320084D01*
X145907337Y-97237756D01*
X145886780Y-97182500D01*
X145877294Y-97161334D01*
X146800334Y-97161334D01*
X146815823Y-97196179D01*
X146828556Y-97189556D01*
X146833622Y-97139316D01*
X146828556Y-97133111D01*
X146803389Y-97138922D01*
X146800334Y-97161334D01*
X145877294Y-97161334D01*
X145860614Y-97124118D01*
X145846289Y-97145455D01*
X145837844Y-97190009D01*
X145783508Y-97307910D01*
X145682481Y-97361565D01*
X145596953Y-97356399D01*
X145528125Y-97323516D01*
X145487983Y-97252654D01*
X145464245Y-97137660D01*
X145451314Y-96981896D01*
X145454846Y-96832417D01*
X145459014Y-96799155D01*
X145465874Y-96688906D01*
X145462675Y-96685058D01*
X145629769Y-96685058D01*
X145690963Y-96695667D01*
X145691200Y-96695667D01*
X145766717Y-96720226D01*
X145784334Y-96759167D01*
X145802939Y-96816800D01*
X145850054Y-96802723D01*
X145899619Y-96741027D01*
X145925194Y-96682408D01*
X145893271Y-96650429D01*
X145820951Y-96630911D01*
X145707972Y-96624157D01*
X145644683Y-96649051D01*
X145629769Y-96685058D01*
X145462675Y-96685058D01*
X145437625Y-96654933D01*
X145380050Y-96689948D01*
X145279580Y-96739831D01*
X145119578Y-96774705D01*
X144923984Y-96793725D01*
X144716741Y-96796042D01*
X144521788Y-96780809D01*
X144363069Y-96747180D01*
X144313612Y-96727678D01*
X144200787Y-96704171D01*
X144110537Y-96731040D01*
X144018522Y-96767446D01*
X143965372Y-96780334D01*
X143938688Y-96764272D01*
X143917041Y-96710906D01*
X143899753Y-96612458D01*
X143886143Y-96461155D01*
X143875531Y-96249220D01*
X143867237Y-95968879D01*
X143860581Y-95612356D01*
X143860035Y-95575988D01*
X143857266Y-95348230D01*
X144111571Y-95348230D01*
X144131976Y-95399396D01*
X144156451Y-95427822D01*
X144233756Y-95487354D01*
X144356057Y-95556449D01*
X144432685Y-95592262D01*
X144568241Y-95666318D01*
X144634610Y-95751418D01*
X144635391Y-95863100D01*
X144574185Y-96016899D01*
X144544212Y-96073687D01*
X144471942Y-96222541D01*
X144411227Y-96375321D01*
X144399032Y-96413098D01*
X144370518Y-96515158D01*
X144372547Y-96549807D01*
X144411514Y-96530781D01*
X144443236Y-96508055D01*
X144551220Y-96431800D01*
X144641334Y-96370251D01*
X144742328Y-96294317D01*
X144858063Y-96196234D01*
X144881706Y-96174689D01*
X145011489Y-96087397D01*
X145132616Y-96079894D01*
X145252761Y-96153624D01*
X145346098Y-96262079D01*
X145473308Y-96419663D01*
X145572778Y-96508040D01*
X145623091Y-96526334D01*
X145650492Y-96489360D01*
X145654675Y-96392290D01*
X145637488Y-96255897D01*
X145600777Y-96100957D01*
X145579249Y-96033226D01*
X145537563Y-95905293D01*
X145525311Y-95826578D01*
X145543045Y-95766714D01*
X145585253Y-95703646D01*
X145676654Y-95611814D01*
X145800942Y-95524559D01*
X145831289Y-95507976D01*
X145950125Y-95438718D01*
X145991955Y-95390113D01*
X145955223Y-95360898D01*
X145838372Y-95349814D01*
X145642932Y-95355422D01*
X145475338Y-95361533D01*
X145339298Y-95360150D01*
X145257651Y-95351718D01*
X145246857Y-95347680D01*
X145220110Y-95293855D01*
X145193180Y-95181287D01*
X145174166Y-95052392D01*
X145154955Y-94902206D01*
X145134904Y-94781087D01*
X145120797Y-94723228D01*
X145083647Y-94680427D01*
X145039453Y-94712612D01*
X144993291Y-94810972D01*
X144950235Y-94966699D01*
X144934313Y-95047007D01*
X144881774Y-95341000D01*
X144737966Y-95341000D01*
X144603255Y-95330109D01*
X144446196Y-95303020D01*
X144405934Y-95293604D01*
X144273496Y-95268276D01*
X144191449Y-95276736D01*
X144153286Y-95299674D01*
X144111571Y-95348230D01*
X143857266Y-95348230D01*
X143856014Y-95245299D01*
X143856016Y-94989650D01*
X143861678Y-94799450D01*
X143874635Y-94665107D01*
X143896527Y-94577027D01*
X143928988Y-94525619D01*
X143973658Y-94501290D01*
X144032172Y-94494448D01*
X144044635Y-94494334D01*
X144121485Y-94482163D01*
X144143392Y-94470164D01*
X144200405Y-94453595D01*
X144326985Y-94438646D01*
X144508295Y-94425607D01*
X144729494Y-94414768D01*
X144975746Y-94406416D01*
X145232211Y-94400843D01*
X145484050Y-94398336D01*
X145716426Y-94399185D01*
X145914499Y-94403680D01*
X146063431Y-94412110D01*
X146148384Y-94424764D01*
X146160899Y-94430834D01*
X146183121Y-94496741D01*
X146198818Y-94635649D01*
X146207847Y-94836128D01*
X146210067Y-95086754D01*
X146205335Y-95376100D01*
X146193508Y-95692738D01*
X146179745Y-95943669D01*
X146162882Y-96192151D01*
X146146794Y-96369490D01*
X146129156Y-96489153D01*
X146107642Y-96564606D01*
X146079928Y-96609317D01*
X146062094Y-96625036D01*
X146014995Y-96666240D01*
X146032837Y-96689355D01*
X146111596Y-96708203D01*
X146219673Y-96755971D01*
X146272775Y-96852336D01*
X146294552Y-96922892D01*
X146309443Y-96927397D01*
X146326357Y-96858815D01*
X146337138Y-96801500D01*
X146348680Y-96665786D01*
X146318287Y-96577264D01*
X146305370Y-96561044D01*
X146272543Y-96478858D01*
X146251268Y-96331640D01*
X146241845Y-96138275D01*
X146244573Y-95917647D01*
X146259752Y-95688640D01*
X146287680Y-95470139D01*
X146288037Y-95468000D01*
X146310749Y-95286166D01*
X146311559Y-95275459D01*
X146461667Y-95275459D01*
X146495865Y-95330578D01*
X146585364Y-95409400D01*
X146710523Y-95496232D01*
X146810917Y-95554488D01*
X146928669Y-95638099D01*
X146969493Y-95725468D01*
X146969667Y-95732029D01*
X146951088Y-95847208D01*
X146904439Y-95998867D01*
X146843353Y-96149804D01*
X146781465Y-96262814D01*
X146769405Y-96278526D01*
X146738264Y-96341315D01*
X146781529Y-96380655D01*
X146837520Y-96395991D01*
X146876227Y-96373152D01*
X146956465Y-96311351D01*
X147006854Y-96269633D01*
X147133355Y-96164571D01*
X147281096Y-96044552D01*
X147350179Y-95989378D01*
X147540192Y-95838823D01*
X147773513Y-96098209D01*
X147885252Y-96217858D01*
X147977489Y-96308234D01*
X148034635Y-96354339D01*
X148042795Y-96357298D01*
X148069924Y-96321779D01*
X148069741Y-96231751D01*
X148047271Y-96110956D01*
X148007536Y-95983134D01*
X147955560Y-95872024D01*
X147932958Y-95838218D01*
X147864357Y-95723860D01*
X147863449Y-95636446D01*
X147935700Y-95563688D01*
X148086349Y-95493384D01*
X148232640Y-95421020D01*
X148299561Y-95351637D01*
X148292335Y-95291729D01*
X148216187Y-95247791D01*
X148076339Y-95226316D01*
X147878016Y-95233799D01*
X147877588Y-95233845D01*
X147729395Y-95246779D01*
X147642314Y-95242993D01*
X147593744Y-95218451D01*
X147565813Y-95178168D01*
X147541309Y-95076432D01*
X147546824Y-94963466D01*
X147553201Y-94862802D01*
X147523928Y-94833000D01*
X147472989Y-94798009D01*
X147440005Y-94738566D01*
X147419185Y-94701407D01*
X147392226Y-94707183D01*
X147350948Y-94765708D01*
X147287168Y-94886798D01*
X147244892Y-94972623D01*
X147084713Y-95301114D01*
X146773190Y-95272885D01*
X146623419Y-95263131D01*
X146513042Y-95263221D01*
X146462754Y-95272981D01*
X146461667Y-95275459D01*
X146311559Y-95275459D01*
X146327488Y-95065035D01*
X146334902Y-94849937D01*
X146334995Y-94833000D01*
X146339032Y-94662401D01*
X146348936Y-94522202D01*
X146362835Y-94435644D01*
X146368051Y-94422698D01*
X146426800Y-94390411D01*
X146537034Y-94368423D01*
X146589653Y-94364400D01*
X146704707Y-94362985D01*
X146878064Y-94365017D01*
G37*
X146878064Y-94365017D02*
X147094174Y-94369911D01*
X147337484Y-94377081D01*
X147592443Y-94385941D01*
X147843499Y-94395905D01*
X148075102Y-94406387D01*
X148271699Y-94416801D01*
X148417739Y-94426561D01*
X148497672Y-94435083D01*
X148504152Y-94436527D01*
X148538019Y-94450152D01*
X148564242Y-94476683D01*
X148584851Y-94527456D01*
X148601872Y-94613807D01*
X148617333Y-94747073D01*
X148633261Y-94938587D01*
X148651685Y-95199686D01*
X148658364Y-95298667D01*
X148677783Y-95558660D01*
X148700688Y-95819583D01*
X148724593Y-96055652D01*
X148747015Y-96241083D01*
X148753366Y-96284834D01*
X148777341Y-96454523D01*
X148784473Y-96562026D01*
X148773796Y-96628322D01*
X148744343Y-96674391D01*
X148734972Y-96684171D01*
X148675300Y-96730408D01*
X148622636Y-96713406D01*
X148590235Y-96686091D01*
X148508796Y-96650407D01*
X148371246Y-96623351D01*
X148205889Y-96607034D01*
X148041029Y-96603567D01*
X147904970Y-96615059D01*
X147847323Y-96630696D01*
X147756580Y-96638117D01*
X147646202Y-96610669D01*
X147537002Y-96580623D01*
X147465402Y-96603652D01*
X147463150Y-96605481D01*
X147401842Y-96632717D01*
X147379375Y-96625597D01*
X147326688Y-96613904D01*
X147214966Y-96607907D01*
X147069614Y-96607131D01*
X146916039Y-96611100D01*
X146779645Y-96619339D01*
X146685839Y-96631372D01*
X146662243Y-96639021D01*
X146663339Y-96676274D01*
X146712558Y-96723654D01*
X146780215Y-96796278D01*
X146800334Y-96854325D01*
X146807601Y-96896047D01*
X146839276Y-96869434D01*
X146858945Y-96843360D01*
X146924513Y-96789705D01*
X147030868Y-96772152D01*
X147101269Y-96774043D01*
X147246589Y-96796553D01*
X147321261Y-96850636D01*
X147337130Y-96948796D01*
X147327752Y-97013167D01*
X147301779Y-97143899D01*
X147282061Y-97243034D01*
X147253130Y-97348125D01*
X147203931Y-97398765D01*
X147107945Y-97414465D01*
X147047872Y-97415334D01*
X146930994Y-97406071D01*
X146872685Y-97370871D01*
X146854385Y-97328572D01*
X146831696Y-97241811D01*
X146750866Y-97328572D01*
X146632439Y-97402274D01*
X146498724Y-97405657D01*
X146409829Y-97362417D01*
X146343027Y-97276446D01*
X146323734Y-97224834D01*
X146307437Y-97175121D01*
X146285188Y-97194674D01*
X146257711Y-97256584D01*
X146199809Y-97344095D01*
X146105399Y-97372402D01*
X146080386Y-97373000D01*
X145984688Y-97357568D01*
X145935337Y-97320425D01*
X145935233Y-97320084D01*
X145907337Y-97237756D01*
X145886780Y-97182500D01*
X145877294Y-97161334D01*
X146800334Y-97161334D01*
X146815823Y-97196179D01*
X146828556Y-97189556D01*
X146833622Y-97139316D01*
X146828556Y-97133111D01*
X146803389Y-97138922D01*
X146800334Y-97161334D01*
X145877294Y-97161334D01*
X145860614Y-97124118D01*
X145846289Y-97145455D01*
X145837844Y-97190009D01*
X145783508Y-97307910D01*
X145682481Y-97361565D01*
X145596953Y-97356399D01*
X145528125Y-97323516D01*
X145487983Y-97252654D01*
X145464245Y-97137660D01*
X145451314Y-96981896D01*
X145454846Y-96832417D01*
X145459014Y-96799155D01*
X145465874Y-96688906D01*
X145462675Y-96685058D01*
X145629769Y-96685058D01*
X145690963Y-96695667D01*
X145691200Y-96695667D01*
X145766717Y-96720226D01*
X145784334Y-96759167D01*
X145802939Y-96816800D01*
X145850054Y-96802723D01*
X145899619Y-96741027D01*
X145925194Y-96682408D01*
X145893271Y-96650429D01*
X145820951Y-96630911D01*
X145707972Y-96624157D01*
X145644683Y-96649051D01*
X145629769Y-96685058D01*
X145462675Y-96685058D01*
X145437625Y-96654933D01*
X145380050Y-96689948D01*
X145279580Y-96739831D01*
X145119578Y-96774705D01*
X144923984Y-96793725D01*
X144716741Y-96796042D01*
X144521788Y-96780809D01*
X144363069Y-96747180D01*
X144313612Y-96727678D01*
X144200787Y-96704171D01*
X144110537Y-96731040D01*
X144018522Y-96767446D01*
X143965372Y-96780334D01*
X143938688Y-96764272D01*
X143917041Y-96710906D01*
X143899753Y-96612458D01*
X143886143Y-96461155D01*
X143875531Y-96249220D01*
X143867237Y-95968879D01*
X143860581Y-95612356D01*
X143860035Y-95575988D01*
X143857266Y-95348230D01*
X144111571Y-95348230D01*
X144131976Y-95399396D01*
X144156451Y-95427822D01*
X144233756Y-95487354D01*
X144356057Y-95556449D01*
X144432685Y-95592262D01*
X144568241Y-95666318D01*
X144634610Y-95751418D01*
X144635391Y-95863100D01*
X144574185Y-96016899D01*
X144544212Y-96073687D01*
X144471942Y-96222541D01*
X144411227Y-96375321D01*
X144399032Y-96413098D01*
X144370518Y-96515158D01*
X144372547Y-96549807D01*
X144411514Y-96530781D01*
X144443236Y-96508055D01*
X144551220Y-96431800D01*
X144641334Y-96370251D01*
X144742328Y-96294317D01*
X144858063Y-96196234D01*
X144881706Y-96174689D01*
X145011489Y-96087397D01*
X145132616Y-96079894D01*
X145252761Y-96153624D01*
X145346098Y-96262079D01*
X145473308Y-96419663D01*
X145572778Y-96508040D01*
X145623091Y-96526334D01*
X145650492Y-96489360D01*
X145654675Y-96392290D01*
X145637488Y-96255897D01*
X145600777Y-96100957D01*
X145579249Y-96033226D01*
X145537563Y-95905293D01*
X145525311Y-95826578D01*
X145543045Y-95766714D01*
X145585253Y-95703646D01*
X145676654Y-95611814D01*
X145800942Y-95524559D01*
X145831289Y-95507976D01*
X145950125Y-95438718D01*
X145991955Y-95390113D01*
X145955223Y-95360898D01*
X145838372Y-95349814D01*
X145642932Y-95355422D01*
X145475338Y-95361533D01*
X145339298Y-95360150D01*
X145257651Y-95351718D01*
X145246857Y-95347680D01*
X145220110Y-95293855D01*
X145193180Y-95181287D01*
X145174166Y-95052392D01*
X145154955Y-94902206D01*
X145134904Y-94781087D01*
X145120797Y-94723228D01*
X145083647Y-94680427D01*
X145039453Y-94712612D01*
X144993291Y-94810972D01*
X144950235Y-94966699D01*
X144934313Y-95047007D01*
X144881774Y-95341000D01*
X144737966Y-95341000D01*
X144603255Y-95330109D01*
X144446196Y-95303020D01*
X144405934Y-95293604D01*
X144273496Y-95268276D01*
X144191449Y-95276736D01*
X144153286Y-95299674D01*
X144111571Y-95348230D01*
X143857266Y-95348230D01*
X143856014Y-95245299D01*
X143856016Y-94989650D01*
X143861678Y-94799450D01*
X143874635Y-94665107D01*
X143896527Y-94577027D01*
X143928988Y-94525619D01*
X143973658Y-94501290D01*
X144032172Y-94494448D01*
X144044635Y-94494334D01*
X144121485Y-94482163D01*
X144143392Y-94470164D01*
X144200405Y-94453595D01*
X144326985Y-94438646D01*
X144508295Y-94425607D01*
X144729494Y-94414768D01*
X144975746Y-94406416D01*
X145232211Y-94400843D01*
X145484050Y-94398336D01*
X145716426Y-94399185D01*
X145914499Y-94403680D01*
X146063431Y-94412110D01*
X146148384Y-94424764D01*
X146160899Y-94430834D01*
X146183121Y-94496741D01*
X146198818Y-94635649D01*
X146207847Y-94836128D01*
X146210067Y-95086754D01*
X146205335Y-95376100D01*
X146193508Y-95692738D01*
X146179745Y-95943669D01*
X146162882Y-96192151D01*
X146146794Y-96369490D01*
X146129156Y-96489153D01*
X146107642Y-96564606D01*
X146079928Y-96609317D01*
X146062094Y-96625036D01*
X146014995Y-96666240D01*
X146032837Y-96689355D01*
X146111596Y-96708203D01*
X146219673Y-96755971D01*
X146272775Y-96852336D01*
X146294552Y-96922892D01*
X146309443Y-96927397D01*
X146326357Y-96858815D01*
X146337138Y-96801500D01*
X146348680Y-96665786D01*
X146318287Y-96577264D01*
X146305370Y-96561044D01*
X146272543Y-96478858D01*
X146251268Y-96331640D01*
X146241845Y-96138275D01*
X146244573Y-95917647D01*
X146259752Y-95688640D01*
X146287680Y-95470139D01*
X146288037Y-95468000D01*
X146310749Y-95286166D01*
X146311559Y-95275459D01*
X146461667Y-95275459D01*
X146495865Y-95330578D01*
X146585364Y-95409400D01*
X146710523Y-95496232D01*
X146810917Y-95554488D01*
X146928669Y-95638099D01*
X146969493Y-95725468D01*
X146969667Y-95732029D01*
X146951088Y-95847208D01*
X146904439Y-95998867D01*
X146843353Y-96149804D01*
X146781465Y-96262814D01*
X146769405Y-96278526D01*
X146738264Y-96341315D01*
X146781529Y-96380655D01*
X146837520Y-96395991D01*
X146876227Y-96373152D01*
X146956465Y-96311351D01*
X147006854Y-96269633D01*
X147133355Y-96164571D01*
X147281096Y-96044552D01*
X147350179Y-95989378D01*
X147540192Y-95838823D01*
X147773513Y-96098209D01*
X147885252Y-96217858D01*
X147977489Y-96308234D01*
X148034635Y-96354339D01*
X148042795Y-96357298D01*
X148069924Y-96321779D01*
X148069741Y-96231751D01*
X148047271Y-96110956D01*
X148007536Y-95983134D01*
X147955560Y-95872024D01*
X147932958Y-95838218D01*
X147864357Y-95723860D01*
X147863449Y-95636446D01*
X147935700Y-95563688D01*
X148086349Y-95493384D01*
X148232640Y-95421020D01*
X148299561Y-95351637D01*
X148292335Y-95291729D01*
X148216187Y-95247791D01*
X148076339Y-95226316D01*
X147878016Y-95233799D01*
X147877588Y-95233845D01*
X147729395Y-95246779D01*
X147642314Y-95242993D01*
X147593744Y-95218451D01*
X147565813Y-95178168D01*
X147541309Y-95076432D01*
X147546824Y-94963466D01*
X147553201Y-94862802D01*
X147523928Y-94833000D01*
X147472989Y-94798009D01*
X147440005Y-94738566D01*
X147419185Y-94701407D01*
X147392226Y-94707183D01*
X147350948Y-94765708D01*
X147287168Y-94886798D01*
X147244892Y-94972623D01*
X147084713Y-95301114D01*
X146773190Y-95272885D01*
X146623419Y-95263131D01*
X146513042Y-95263221D01*
X146462754Y-95272981D01*
X146461667Y-95275459D01*
X146311559Y-95275459D01*
X146327488Y-95065035D01*
X146334902Y-94849937D01*
X146334995Y-94833000D01*
X146339032Y-94662401D01*
X146348936Y-94522202D01*
X146362835Y-94435644D01*
X146368051Y-94422698D01*
X146426800Y-94390411D01*
X146537034Y-94368423D01*
X146589653Y-94364400D01*
X146704707Y-94362985D01*
X146878064Y-94365017D01*
G36*
X147886411Y-97582600D02*
G01*
X148011946Y-97603904D01*
X148078597Y-97639904D01*
X148112142Y-97705950D01*
X148115864Y-97719216D01*
X148114963Y-97858913D01*
X148084627Y-97920300D01*
X148038533Y-97967925D01*
X147969191Y-97994688D01*
X147854141Y-98006133D01*
X147729266Y-98008000D01*
X147435334Y-98008000D01*
X147435334Y-97836623D01*
X147443799Y-97720754D01*
X147481437Y-97656140D01*
X147561241Y-97612306D01*
X147699723Y-97581356D01*
X147870095Y-97580872D01*
X147886411Y-97582600D01*
G37*
X147886411Y-97582600D02*
X148011946Y-97603904D01*
X148078597Y-97639904D01*
X148112142Y-97705950D01*
X148115864Y-97719216D01*
X148114963Y-97858913D01*
X148084627Y-97920300D01*
X148038533Y-97967925D01*
X147969191Y-97994688D01*
X147854141Y-98006133D01*
X147729266Y-98008000D01*
X147435334Y-98008000D01*
X147435334Y-97836623D01*
X147443799Y-97720754D01*
X147481437Y-97656140D01*
X147561241Y-97612306D01*
X147699723Y-97581356D01*
X147870095Y-97580872D01*
X147886411Y-97582600D01*
G36*
X144875931Y-97635208D02*
G01*
X145015724Y-97644324D01*
X145090231Y-97660316D01*
X145118753Y-97693724D01*
X145120589Y-97755083D01*
X145119689Y-97768292D01*
X145098532Y-97884872D01*
X145044596Y-97957234D01*
X144942150Y-97994959D01*
X144775460Y-98007624D01*
X144726000Y-98008000D01*
X144545493Y-98000523D01*
X144434435Y-97976306D01*
X144386293Y-97943247D01*
X144354164Y-97868093D01*
X144379670Y-97775081D01*
X144435220Y-97697614D01*
X144526192Y-97651465D01*
X144668395Y-97632177D01*
X144875931Y-97635208D01*
G37*
X144875931Y-97635208D02*
X145015724Y-97644324D01*
X145090231Y-97660316D01*
X145118753Y-97693724D01*
X145120589Y-97755083D01*
X145119689Y-97768292D01*
X145098532Y-97884872D01*
X145044596Y-97957234D01*
X144942150Y-97994959D01*
X144775460Y-98007624D01*
X144726000Y-98008000D01*
X144545493Y-98000523D01*
X144434435Y-97976306D01*
X144386293Y-97943247D01*
X144354164Y-97868093D01*
X144379670Y-97775081D01*
X144435220Y-97697614D01*
X144526192Y-97651465D01*
X144668395Y-97632177D01*
X144875931Y-97635208D01*
G36*
X151573490Y-98298228D02*
G01*
X151584000Y-98367834D01*
X151569509Y-98447391D01*
X151541667Y-98473667D01*
X151509844Y-98437439D01*
X151499334Y-98367834D01*
X151513825Y-98288276D01*
X151541667Y-98262000D01*
X151573490Y-98298228D01*
G37*
X151573490Y-98298228D02*
X151584000Y-98367834D01*
X151569509Y-98447391D01*
X151541667Y-98473667D01*
X151509844Y-98437439D01*
X151499334Y-98367834D01*
X151513825Y-98288276D01*
X151541667Y-98262000D01*
X151573490Y-98298228D01*
G36*
X144486951Y-98121215D02*
G01*
X144610948Y-98125193D01*
X144744143Y-98128650D01*
X144939719Y-98145223D01*
X145063982Y-98189521D01*
X145128030Y-98269862D01*
X145142961Y-98394561D01*
X145140992Y-98426016D01*
X145132398Y-98502692D01*
X145111517Y-98550942D01*
X145062480Y-98575957D01*
X144969419Y-98582930D01*
X144816468Y-98577054D01*
X144700408Y-98570186D01*
X144549900Y-98556180D01*
X144460314Y-98531187D01*
X144407942Y-98486601D01*
X144390016Y-98457513D01*
X144358085Y-98356878D01*
X144352972Y-98247157D01*
X144372160Y-98157764D01*
X144413129Y-98118112D01*
X144419084Y-98118067D01*
X144486951Y-98121215D01*
G37*
X144486951Y-98121215D02*
X144610948Y-98125193D01*
X144744143Y-98128650D01*
X144939719Y-98145223D01*
X145063982Y-98189521D01*
X145128030Y-98269862D01*
X145142961Y-98394561D01*
X145140992Y-98426016D01*
X145132398Y-98502692D01*
X145111517Y-98550942D01*
X145062480Y-98575957D01*
X144969419Y-98582930D01*
X144816468Y-98577054D01*
X144700408Y-98570186D01*
X144549900Y-98556180D01*
X144460314Y-98531187D01*
X144407942Y-98486601D01*
X144390016Y-98457513D01*
X144358085Y-98356878D01*
X144352972Y-98247157D01*
X144372160Y-98157764D01*
X144413129Y-98118112D01*
X144419084Y-98118067D01*
X144486951Y-98121215D01*
G36*
X147887717Y-98077108D02*
G01*
X147918705Y-98080124D01*
X148057881Y-98099247D01*
X148134790Y-98127010D01*
X148171807Y-98174045D01*
X148181592Y-98205045D01*
X148177092Y-98324230D01*
X148103687Y-98403944D01*
X147980483Y-98431334D01*
X147883821Y-98443388D01*
X147866181Y-98473890D01*
X147926320Y-98514346D01*
X147996250Y-98538996D01*
X148106128Y-98594620D01*
X148148001Y-98679633D01*
X148149738Y-98759761D01*
X148117635Y-98812344D01*
X148036825Y-98846156D01*
X147892437Y-98869973D01*
X147810128Y-98879017D01*
X147657672Y-98892091D01*
X147567056Y-98889679D01*
X147516247Y-98867853D01*
X147483212Y-98822683D01*
X147482039Y-98820503D01*
X147460930Y-98723977D01*
X147477955Y-98618933D01*
X147523330Y-98538676D01*
X147571869Y-98514713D01*
X147587743Y-98498207D01*
X147551750Y-98470276D01*
X147492295Y-98388060D01*
X147477667Y-98280015D01*
X147498255Y-98168538D01*
X147566738Y-98100606D01*
X147693199Y-98071653D01*
X147887717Y-98077108D01*
G37*
X147887717Y-98077108D02*
X147918705Y-98080124D01*
X148057881Y-98099247D01*
X148134790Y-98127010D01*
X148171807Y-98174045D01*
X148181592Y-98205045D01*
X148177092Y-98324230D01*
X148103687Y-98403944D01*
X147980483Y-98431334D01*
X147883821Y-98443388D01*
X147866181Y-98473890D01*
X147926320Y-98514346D01*
X147996250Y-98538996D01*
X148106128Y-98594620D01*
X148148001Y-98679633D01*
X148149738Y-98759761D01*
X148117635Y-98812344D01*
X148036825Y-98846156D01*
X147892437Y-98869973D01*
X147810128Y-98879017D01*
X147657672Y-98892091D01*
X147567056Y-98889679D01*
X147516247Y-98867853D01*
X147483212Y-98822683D01*
X147482039Y-98820503D01*
X147460930Y-98723977D01*
X147477955Y-98618933D01*
X147523330Y-98538676D01*
X147571869Y-98514713D01*
X147587743Y-98498207D01*
X147551750Y-98470276D01*
X147492295Y-98388060D01*
X147477667Y-98280015D01*
X147498255Y-98168538D01*
X147566738Y-98100606D01*
X147693199Y-98071653D01*
X147887717Y-98077108D01*
G36*
X144704834Y-98677659D02*
G01*
X144903020Y-98688796D01*
X145031545Y-98705018D01*
X145105401Y-98733055D01*
X145139576Y-98779636D01*
X145149061Y-98851490D01*
X145149334Y-98877197D01*
X145125782Y-99004743D01*
X145067450Y-99064844D01*
X144997073Y-99097695D01*
X144972200Y-99103638D01*
X144926671Y-99094038D01*
X144823225Y-99074545D01*
X144726000Y-99056887D01*
X144552095Y-99017920D01*
X144448509Y-98970083D01*
X144400934Y-98902017D01*
X144395059Y-98802364D01*
X144395755Y-98794773D01*
X144408500Y-98664167D01*
X144704834Y-98677659D01*
G37*
X144704834Y-98677659D02*
X144903020Y-98688796D01*
X145031545Y-98705018D01*
X145105401Y-98733055D01*
X145139576Y-98779636D01*
X145149061Y-98851490D01*
X145149334Y-98877197D01*
X145125782Y-99004743D01*
X145067450Y-99064844D01*
X144997073Y-99097695D01*
X144972200Y-99103638D01*
X144926671Y-99094038D01*
X144823225Y-99074545D01*
X144726000Y-99056887D01*
X144552095Y-99017920D01*
X144448509Y-98970083D01*
X144400934Y-98902017D01*
X144395059Y-98802364D01*
X144395755Y-98794773D01*
X144408500Y-98664167D01*
X144704834Y-98677659D01*
G36*
X149271154Y-94393322D02*
G01*
X149354790Y-94459397D01*
X149471685Y-94560759D01*
X149557490Y-94638848D01*
X149701808Y-94768994D01*
X149835187Y-94883175D01*
X149937620Y-94964527D01*
X149971846Y-94988153D01*
X150055330Y-95054553D01*
X150166928Y-95162890D01*
X150276396Y-95282814D01*
X150363342Y-95387489D01*
X150422832Y-95474885D01*
X150463583Y-95567586D01*
X150494314Y-95688180D01*
X150523740Y-95859253D01*
X150539903Y-95965542D01*
X150575245Y-96258682D01*
X150590163Y-96549103D01*
X150586202Y-96874249D01*
X150581772Y-96979760D01*
X150555364Y-97539019D01*
X150692851Y-97614760D01*
X150879315Y-97729788D01*
X150994583Y-97829177D01*
X151033667Y-97908064D01*
X151057952Y-97979732D01*
X151118525Y-98081087D01*
X151141784Y-98113065D01*
X151202445Y-98206900D01*
X151236011Y-98307335D01*
X151250247Y-98444830D01*
X151252659Y-98547845D01*
X151249351Y-98754953D01*
X151229720Y-98897135D01*
X151186152Y-98993679D01*
X151111031Y-99063878D01*
X151030660Y-99110201D01*
X150858216Y-99167805D01*
X150696002Y-99151145D01*
X150524063Y-99057948D01*
X150515084Y-99051407D01*
X150430042Y-98972975D01*
X150407091Y-98895698D01*
X150447774Y-98801487D01*
X150546834Y-98679759D01*
X150653575Y-98532389D01*
X150687578Y-98397989D01*
X150646776Y-98265191D01*
X150529101Y-98122629D01*
X150429532Y-98034849D01*
X150242557Y-97881637D01*
X150028987Y-97945060D01*
X149888317Y-97997240D01*
X149802590Y-98062473D01*
X149747209Y-98152223D01*
X149687203Y-98331810D01*
X149698667Y-98476556D01*
X149782618Y-98598573D01*
X149784834Y-98600667D01*
X149857114Y-98684283D01*
X149890416Y-98753795D01*
X149890667Y-98758029D01*
X149865212Y-98822879D01*
X149800216Y-98927902D01*
X149712732Y-99050300D01*
X149619813Y-99167273D01*
X149538511Y-99256024D01*
X149491014Y-99292344D01*
X149427839Y-99278377D01*
X149344888Y-99216142D01*
X149329881Y-99200723D01*
X149260779Y-99108094D01*
X149173556Y-98966283D01*
X149085152Y-98803170D01*
X149070401Y-98773658D01*
X148989022Y-98597130D01*
X148946370Y-98470096D01*
X148936196Y-98370322D01*
X148942346Y-98318111D01*
X148946874Y-98190863D01*
X148918861Y-98116075D01*
X148891032Y-98036570D01*
X148913560Y-97972096D01*
X148985444Y-97877928D01*
X149102565Y-97763102D01*
X149241487Y-97646754D01*
X149378777Y-97548019D01*
X149491001Y-97486033D01*
X149520554Y-97476442D01*
X149615027Y-97435273D01*
X149662793Y-97379592D01*
X149695194Y-97296966D01*
X149748831Y-97183375D01*
X149760106Y-97161334D01*
X149801297Y-97064580D01*
X149817952Y-96963616D01*
X149812937Y-96827888D01*
X149801334Y-96722050D01*
X149788259Y-96419503D01*
X149831601Y-96148769D01*
X149851655Y-96081834D01*
X149854731Y-95969172D01*
X149816465Y-95832934D01*
X149751327Y-95713209D01*
X149700277Y-95662465D01*
X149620159Y-95592526D01*
X149517008Y-95479643D01*
X149431740Y-95372597D01*
X149318874Y-95196862D01*
X149256635Y-95029786D01*
X149236364Y-94917667D01*
X149219006Y-94741571D01*
X149212393Y-94577804D01*
X149216589Y-94449118D01*
X149231660Y-94378261D01*
X149234826Y-94374063D01*
X149271154Y-94393322D01*
G37*
X149271154Y-94393322D02*
X149354790Y-94459397D01*
X149471685Y-94560759D01*
X149557490Y-94638848D01*
X149701808Y-94768994D01*
X149835187Y-94883175D01*
X149937620Y-94964527D01*
X149971846Y-94988153D01*
X150055330Y-95054553D01*
X150166928Y-95162890D01*
X150276396Y-95282814D01*
X150363342Y-95387489D01*
X150422832Y-95474885D01*
X150463583Y-95567586D01*
X150494314Y-95688180D01*
X150523740Y-95859253D01*
X150539903Y-95965542D01*
X150575245Y-96258682D01*
X150590163Y-96549103D01*
X150586202Y-96874249D01*
X150581772Y-96979760D01*
X150555364Y-97539019D01*
X150692851Y-97614760D01*
X150879315Y-97729788D01*
X150994583Y-97829177D01*
X151033667Y-97908064D01*
X151057952Y-97979732D01*
X151118525Y-98081087D01*
X151141784Y-98113065D01*
X151202445Y-98206900D01*
X151236011Y-98307335D01*
X151250247Y-98444830D01*
X151252659Y-98547845D01*
X151249351Y-98754953D01*
X151229720Y-98897135D01*
X151186152Y-98993679D01*
X151111031Y-99063878D01*
X151030660Y-99110201D01*
X150858216Y-99167805D01*
X150696002Y-99151145D01*
X150524063Y-99057948D01*
X150515084Y-99051407D01*
X150430042Y-98972975D01*
X150407091Y-98895698D01*
X150447774Y-98801487D01*
X150546834Y-98679759D01*
X150653575Y-98532389D01*
X150687578Y-98397989D01*
X150646776Y-98265191D01*
X150529101Y-98122629D01*
X150429532Y-98034849D01*
X150242557Y-97881637D01*
X150028987Y-97945060D01*
X149888317Y-97997240D01*
X149802590Y-98062473D01*
X149747209Y-98152223D01*
X149687203Y-98331810D01*
X149698667Y-98476556D01*
X149782618Y-98598573D01*
X149784834Y-98600667D01*
X149857114Y-98684283D01*
X149890416Y-98753795D01*
X149890667Y-98758029D01*
X149865212Y-98822879D01*
X149800216Y-98927902D01*
X149712732Y-99050300D01*
X149619813Y-99167273D01*
X149538511Y-99256024D01*
X149491014Y-99292344D01*
X149427839Y-99278377D01*
X149344888Y-99216142D01*
X149329881Y-99200723D01*
X149260779Y-99108094D01*
X149173556Y-98966283D01*
X149085152Y-98803170D01*
X149070401Y-98773658D01*
X148989022Y-98597130D01*
X148946370Y-98470096D01*
X148936196Y-98370322D01*
X148942346Y-98318111D01*
X148946874Y-98190863D01*
X148918861Y-98116075D01*
X148891032Y-98036570D01*
X148913560Y-97972096D01*
X148985444Y-97877928D01*
X149102565Y-97763102D01*
X149241487Y-97646754D01*
X149378777Y-97548019D01*
X149491001Y-97486033D01*
X149520554Y-97476442D01*
X149615027Y-97435273D01*
X149662793Y-97379592D01*
X149695194Y-97296966D01*
X149748831Y-97183375D01*
X149760106Y-97161334D01*
X149801297Y-97064580D01*
X149817952Y-96963616D01*
X149812937Y-96827888D01*
X149801334Y-96722050D01*
X149788259Y-96419503D01*
X149831601Y-96148769D01*
X149851655Y-96081834D01*
X149854731Y-95969172D01*
X149816465Y-95832934D01*
X149751327Y-95713209D01*
X149700277Y-95662465D01*
X149620159Y-95592526D01*
X149517008Y-95479643D01*
X149431740Y-95372597D01*
X149318874Y-95196862D01*
X149256635Y-95029786D01*
X149236364Y-94917667D01*
X149219006Y-94741571D01*
X149212393Y-94577804D01*
X149216589Y-94449118D01*
X149231660Y-94378261D01*
X149234826Y-94374063D01*
X149271154Y-94393322D01*
G36*
X143372197Y-94454210D02*
G01*
X143398800Y-94497175D01*
X143408714Y-94584714D01*
X143405615Y-94730081D01*
X143393176Y-94946526D01*
X143392997Y-94949417D01*
X143362176Y-95446834D01*
X143140492Y-95700834D01*
X142918807Y-95954834D01*
X142890379Y-96396063D01*
X142880130Y-96744911D01*
X142900843Y-97026771D01*
X142954983Y-97254378D01*
X143045012Y-97440472D01*
X143109381Y-97528140D01*
X143200147Y-97622506D01*
X143277184Y-97677421D01*
X143310629Y-97683570D01*
X143378458Y-97697100D01*
X143438472Y-97786069D01*
X143488182Y-97941419D01*
X143525098Y-98154089D01*
X143546731Y-98415020D01*
X143551006Y-98558334D01*
X143533635Y-98701988D01*
X143485368Y-98863827D01*
X143417176Y-99019493D01*
X143340028Y-99144628D01*
X143264894Y-99214874D01*
X143253196Y-99219579D01*
X143150916Y-99259666D01*
X143108713Y-99280223D01*
X143030580Y-99291590D01*
X143002891Y-99266550D01*
X142884623Y-99077454D01*
X142811777Y-98940439D01*
X142779179Y-98839702D01*
X142781651Y-98759441D01*
X142812738Y-98686068D01*
X142850453Y-98601447D01*
X142854635Y-98514327D01*
X142826569Y-98387798D01*
X142823513Y-98376810D01*
X142774289Y-98243889D01*
X142714348Y-98137871D01*
X142690810Y-98110946D01*
X142581510Y-98054061D01*
X142428864Y-98021494D01*
X142271837Y-98017737D01*
X142149395Y-98047285D01*
X142147478Y-98048294D01*
X142052977Y-98133692D01*
X142006020Y-98246167D01*
X142019688Y-98350765D01*
X142029989Y-98430289D01*
X142013512Y-98459888D01*
X142014725Y-98517096D01*
X142081596Y-98621972D01*
X142142493Y-98695120D01*
X142232898Y-98804315D01*
X142294719Y-98891402D01*
X142313000Y-98931205D01*
X142278097Y-98975476D01*
X142189915Y-99038887D01*
X142073245Y-99107811D01*
X141952879Y-99168625D01*
X141853609Y-99207705D01*
X141801478Y-99212323D01*
X141732730Y-99139228D01*
X141650385Y-99005730D01*
X141565434Y-98832447D01*
X141488866Y-98639994D01*
X141475409Y-98600667D01*
X141427588Y-98446306D01*
X141407951Y-98340397D01*
X141414170Y-98252415D01*
X141441676Y-98158300D01*
X141505463Y-98032865D01*
X141606649Y-97892115D01*
X141678279Y-97812523D01*
X141822735Y-97656926D01*
X141925530Y-97512455D01*
X142013717Y-97340769D01*
X142018280Y-97330667D01*
X142035991Y-97248087D01*
X142051069Y-97090667D01*
X142062930Y-96868207D01*
X142070993Y-96590507D01*
X142073824Y-96395527D01*
X142081786Y-95566220D01*
X142641204Y-95011124D01*
X142820871Y-94835225D01*
X142982442Y-94681518D01*
X143115512Y-94559545D01*
X143209675Y-94478847D01*
X143254228Y-94448998D01*
X143325232Y-94442569D01*
X143372197Y-94454210D01*
G37*
X143372197Y-94454210D02*
X143398800Y-94497175D01*
X143408714Y-94584714D01*
X143405615Y-94730081D01*
X143393176Y-94946526D01*
X143392997Y-94949417D01*
X143362176Y-95446834D01*
X143140492Y-95700834D01*
X142918807Y-95954834D01*
X142890379Y-96396063D01*
X142880130Y-96744911D01*
X142900843Y-97026771D01*
X142954983Y-97254378D01*
X143045012Y-97440472D01*
X143109381Y-97528140D01*
X143200147Y-97622506D01*
X143277184Y-97677421D01*
X143310629Y-97683570D01*
X143378458Y-97697100D01*
X143438472Y-97786069D01*
X143488182Y-97941419D01*
X143525098Y-98154089D01*
X143546731Y-98415020D01*
X143551006Y-98558334D01*
X143533635Y-98701988D01*
X143485368Y-98863827D01*
X143417176Y-99019493D01*
X143340028Y-99144628D01*
X143264894Y-99214874D01*
X143253196Y-99219579D01*
X143150916Y-99259666D01*
X143108713Y-99280223D01*
X143030580Y-99291590D01*
X143002891Y-99266550D01*
X142884623Y-99077454D01*
X142811777Y-98940439D01*
X142779179Y-98839702D01*
X142781651Y-98759441D01*
X142812738Y-98686068D01*
X142850453Y-98601447D01*
X142854635Y-98514327D01*
X142826569Y-98387798D01*
X142823513Y-98376810D01*
X142774289Y-98243889D01*
X142714348Y-98137871D01*
X142690810Y-98110946D01*
X142581510Y-98054061D01*
X142428864Y-98021494D01*
X142271837Y-98017737D01*
X142149395Y-98047285D01*
X142147478Y-98048294D01*
X142052977Y-98133692D01*
X142006020Y-98246167D01*
X142019688Y-98350765D01*
X142029989Y-98430289D01*
X142013512Y-98459888D01*
X142014725Y-98517096D01*
X142081596Y-98621972D01*
X142142493Y-98695120D01*
X142232898Y-98804315D01*
X142294719Y-98891402D01*
X142313000Y-98931205D01*
X142278097Y-98975476D01*
X142189915Y-99038887D01*
X142073245Y-99107811D01*
X141952879Y-99168625D01*
X141853609Y-99207705D01*
X141801478Y-99212323D01*
X141732730Y-99139228D01*
X141650385Y-99005730D01*
X141565434Y-98832447D01*
X141488866Y-98639994D01*
X141475409Y-98600667D01*
X141427588Y-98446306D01*
X141407951Y-98340397D01*
X141414170Y-98252415D01*
X141441676Y-98158300D01*
X141505463Y-98032865D01*
X141606649Y-97892115D01*
X141678279Y-97812523D01*
X141822735Y-97656926D01*
X141925530Y-97512455D01*
X142013717Y-97340769D01*
X142018280Y-97330667D01*
X142035991Y-97248087D01*
X142051069Y-97090667D01*
X142062930Y-96868207D01*
X142070993Y-96590507D01*
X142073824Y-96395527D01*
X142081786Y-95566220D01*
X142641204Y-95011124D01*
X142820871Y-94835225D01*
X142982442Y-94681518D01*
X143115512Y-94559545D01*
X143209675Y-94478847D01*
X143254228Y-94448998D01*
X143325232Y-94442569D01*
X143372197Y-94454210D01*
G36*
X147982573Y-98990716D02*
G01*
X148106902Y-99016556D01*
X148173979Y-99073848D01*
X148196401Y-99168693D01*
X148196685Y-99187934D01*
X148185718Y-99290388D01*
X148143682Y-99356811D01*
X148054709Y-99397611D01*
X147902930Y-99423200D01*
X147826074Y-99431045D01*
X147663027Y-99443120D01*
X147565400Y-99440461D01*
X147514903Y-99421026D01*
X147496982Y-99394274D01*
X147483888Y-99310846D01*
X147483813Y-99189267D01*
X147485429Y-99166035D01*
X147498834Y-99002834D01*
X147788394Y-98990229D01*
X147982573Y-98990716D01*
G37*
X147982573Y-98990716D02*
X148106902Y-99016556D01*
X148173979Y-99073848D01*
X148196401Y-99168693D01*
X148196685Y-99187934D01*
X148185718Y-99290388D01*
X148143682Y-99356811D01*
X148054709Y-99397611D01*
X147902930Y-99423200D01*
X147826074Y-99431045D01*
X147663027Y-99443120D01*
X147565400Y-99440461D01*
X147514903Y-99421026D01*
X147496982Y-99394274D01*
X147483888Y-99310846D01*
X147483813Y-99189267D01*
X147485429Y-99166035D01*
X147498834Y-99002834D01*
X147788394Y-98990229D01*
X147982573Y-98990716D01*
G36*
X144754976Y-99151857D02*
G01*
X144780644Y-99154928D01*
X144957879Y-99179253D01*
X145067065Y-99204018D01*
X145124479Y-99237279D01*
X145146396Y-99287094D01*
X145149334Y-99337437D01*
X145114022Y-99454976D01*
X145017103Y-99530455D01*
X144872106Y-99560847D01*
X144692557Y-99543125D01*
X144507197Y-99481153D01*
X144396911Y-99418989D01*
X144350438Y-99350217D01*
X144345000Y-99302726D01*
X144365411Y-99211254D01*
X144433593Y-99157976D01*
X144559973Y-99139356D01*
X144754976Y-99151857D01*
G37*
X144754976Y-99151857D02*
X144780644Y-99154928D01*
X144957879Y-99179253D01*
X145067065Y-99204018D01*
X145124479Y-99237279D01*
X145146396Y-99287094D01*
X145149334Y-99337437D01*
X145114022Y-99454976D01*
X145017103Y-99530455D01*
X144872106Y-99560847D01*
X144692557Y-99543125D01*
X144507197Y-99481153D01*
X144396911Y-99418989D01*
X144350438Y-99350217D01*
X144345000Y-99302726D01*
X144365411Y-99211254D01*
X144433593Y-99157976D01*
X144559973Y-99139356D01*
X144754976Y-99151857D01*
G36*
X146309110Y-97476640D02*
G01*
X146585764Y-97481843D01*
X146834755Y-97488764D01*
X147043341Y-97496865D01*
X147198780Y-97505611D01*
X147288330Y-97514464D01*
X147304083Y-97518540D01*
X147326387Y-97574037D01*
X147341045Y-97698731D01*
X147346431Y-97877369D01*
X147346284Y-97914894D01*
X147346710Y-98108753D01*
X147350331Y-98353839D01*
X147356525Y-98616797D01*
X147363494Y-98833500D01*
X147368330Y-99129779D01*
X147356896Y-99349464D01*
X147327815Y-99499305D01*
X147279712Y-99586054D01*
X147211212Y-99616463D01*
X147203911Y-99616667D01*
X147150149Y-99604293D01*
X147111600Y-99555091D01*
X147078034Y-99450944D01*
X147056110Y-99354912D01*
X147021401Y-99214914D01*
X146971189Y-99038085D01*
X146927326Y-98897000D01*
X146862488Y-98697363D01*
X146791402Y-98477312D01*
X146749405Y-98346667D01*
X146679353Y-98145738D01*
X146613553Y-98010292D01*
X146538323Y-97923064D01*
X146439981Y-97866791D01*
X146343702Y-97834762D01*
X146124715Y-97792939D01*
X145967505Y-97808731D01*
X145880940Y-97869128D01*
X145848315Y-97948380D01*
X145882197Y-97992164D01*
X145951641Y-97987476D01*
X146085070Y-97961546D01*
X146222115Y-97959660D01*
X146332091Y-97980092D01*
X146380110Y-98011583D01*
X146412276Y-98086193D01*
X146402290Y-98161982D01*
X146342899Y-98257756D01*
X146237889Y-98380230D01*
X146123809Y-98509287D01*
X145996603Y-98659148D01*
X145867980Y-98815235D01*
X145749645Y-98962970D01*
X145653307Y-99087773D01*
X145590671Y-99175065D01*
X145572667Y-99208629D01*
X145598730Y-99240839D01*
X145669250Y-99219188D01*
X145772728Y-99153353D01*
X145897662Y-99053012D01*
X146032551Y-98927842D01*
X146165893Y-98787520D01*
X146286188Y-98641722D01*
X146345536Y-98558334D01*
X146415884Y-98464624D01*
X146475061Y-98420578D01*
X146527425Y-98432012D01*
X146577335Y-98504747D01*
X146629150Y-98644600D01*
X146687228Y-98857391D01*
X146741921Y-99087500D01*
X146784653Y-99245876D01*
X146831765Y-99378007D01*
X146873170Y-99455674D01*
X146873748Y-99456340D01*
X146914150Y-99541422D01*
X146911246Y-99597530D01*
X146886829Y-99631547D01*
X146834773Y-99647999D01*
X146736883Y-99648755D01*
X146574964Y-99635683D01*
X146556861Y-99633915D01*
X146391836Y-99619245D01*
X146255066Y-99609951D01*
X146172287Y-99607726D01*
X146165334Y-99608183D01*
X146081206Y-99618057D01*
X145962785Y-99633155D01*
X145953667Y-99634358D01*
X145819114Y-99638128D01*
X145701168Y-99619908D01*
X145699667Y-99619424D01*
X145582615Y-99599560D01*
X145504669Y-99603836D01*
X145405295Y-99591007D01*
X145345919Y-99553205D01*
X145300290Y-99488585D01*
X145275183Y-99397008D01*
X145269507Y-99263138D01*
X145282170Y-99071639D01*
X145299938Y-98907135D01*
X145303936Y-98775579D01*
X145287819Y-98669351D01*
X145279580Y-98649066D01*
X145261274Y-98575676D01*
X145244917Y-98439382D01*
X145232666Y-98261945D01*
X145227704Y-98125573D01*
X145225557Y-97909592D01*
X145232233Y-97759690D01*
X145249739Y-97657555D01*
X145280084Y-97584873D01*
X145288495Y-97571303D01*
X145359574Y-97462822D01*
X146309110Y-97476640D01*
G37*
X146309110Y-97476640D02*
X146585764Y-97481843D01*
X146834755Y-97488764D01*
X147043341Y-97496865D01*
X147198780Y-97505611D01*
X147288330Y-97514464D01*
X147304083Y-97518540D01*
X147326387Y-97574037D01*
X147341045Y-97698731D01*
X147346431Y-97877369D01*
X147346284Y-97914894D01*
X147346710Y-98108753D01*
X147350331Y-98353839D01*
X147356525Y-98616797D01*
X147363494Y-98833500D01*
X147368330Y-99129779D01*
X147356896Y-99349464D01*
X147327815Y-99499305D01*
X147279712Y-99586054D01*
X147211212Y-99616463D01*
X147203911Y-99616667D01*
X147150149Y-99604293D01*
X147111600Y-99555091D01*
X147078034Y-99450944D01*
X147056110Y-99354912D01*
X147021401Y-99214914D01*
X146971189Y-99038085D01*
X146927326Y-98897000D01*
X146862488Y-98697363D01*
X146791402Y-98477312D01*
X146749405Y-98346667D01*
X146679353Y-98145738D01*
X146613553Y-98010292D01*
X146538323Y-97923064D01*
X146439981Y-97866791D01*
X146343702Y-97834762D01*
X146124715Y-97792939D01*
X145967505Y-97808731D01*
X145880940Y-97869128D01*
X145848315Y-97948380D01*
X145882197Y-97992164D01*
X145951641Y-97987476D01*
X146085070Y-97961546D01*
X146222115Y-97959660D01*
X146332091Y-97980092D01*
X146380110Y-98011583D01*
X146412276Y-98086193D01*
X146402290Y-98161982D01*
X146342899Y-98257756D01*
X146237889Y-98380230D01*
X146123809Y-98509287D01*
X145996603Y-98659148D01*
X145867980Y-98815235D01*
X145749645Y-98962970D01*
X145653307Y-99087773D01*
X145590671Y-99175065D01*
X145572667Y-99208629D01*
X145598730Y-99240839D01*
X145669250Y-99219188D01*
X145772728Y-99153353D01*
X145897662Y-99053012D01*
X146032551Y-98927842D01*
X146165893Y-98787520D01*
X146286188Y-98641722D01*
X146345536Y-98558334D01*
X146415884Y-98464624D01*
X146475061Y-98420578D01*
X146527425Y-98432012D01*
X146577335Y-98504747D01*
X146629150Y-98644600D01*
X146687228Y-98857391D01*
X146741921Y-99087500D01*
X146784653Y-99245876D01*
X146831765Y-99378007D01*
X146873170Y-99455674D01*
X146873748Y-99456340D01*
X146914150Y-99541422D01*
X146911246Y-99597530D01*
X146886829Y-99631547D01*
X146834773Y-99647999D01*
X146736883Y-99648755D01*
X146574964Y-99635683D01*
X146556861Y-99633915D01*
X146391836Y-99619245D01*
X146255066Y-99609951D01*
X146172287Y-99607726D01*
X146165334Y-99608183D01*
X146081206Y-99618057D01*
X145962785Y-99633155D01*
X145953667Y-99634358D01*
X145819114Y-99638128D01*
X145701168Y-99619908D01*
X145699667Y-99619424D01*
X145582615Y-99599560D01*
X145504669Y-99603836D01*
X145405295Y-99591007D01*
X145345919Y-99553205D01*
X145300290Y-99488585D01*
X145275183Y-99397008D01*
X145269507Y-99263138D01*
X145282170Y-99071639D01*
X145299938Y-98907135D01*
X145303936Y-98775579D01*
X145287819Y-98669351D01*
X145279580Y-98649066D01*
X145261274Y-98575676D01*
X145244917Y-98439382D01*
X145232666Y-98261945D01*
X145227704Y-98125573D01*
X145225557Y-97909592D01*
X145232233Y-97759690D01*
X145249739Y-97657555D01*
X145280084Y-97584873D01*
X145288495Y-97571303D01*
X145359574Y-97462822D01*
X146309110Y-97476640D01*
G36*
X146162499Y-99797288D02*
G01*
X146226111Y-99824840D01*
X146228992Y-99828590D01*
X146249378Y-99904289D01*
X146256879Y-100020194D01*
X146251979Y-100140530D01*
X146235162Y-100229523D01*
X146223288Y-100250338D01*
X146128592Y-100302246D01*
X146024936Y-100312479D01*
X145962259Y-100285659D01*
X145933295Y-100216600D01*
X145914847Y-100095570D01*
X145911334Y-100010367D01*
X145911334Y-99786000D01*
X146057002Y-99786000D01*
X146162499Y-99797288D01*
G37*
X146162499Y-99797288D02*
X146226111Y-99824840D01*
X146228992Y-99828590D01*
X146249378Y-99904289D01*
X146256879Y-100020194D01*
X146251979Y-100140530D01*
X146235162Y-100229523D01*
X146223288Y-100250338D01*
X146128592Y-100302246D01*
X146024936Y-100312479D01*
X145962259Y-100285659D01*
X145933295Y-100216600D01*
X145914847Y-100095570D01*
X145911334Y-100010367D01*
X145911334Y-99786000D01*
X146057002Y-99786000D01*
X146162499Y-99797288D01*
G36*
X145674859Y-99768587D02*
G01*
X145725579Y-99861529D01*
X145738854Y-100019925D01*
X145734536Y-100082255D01*
X145701439Y-100194444D01*
X145638904Y-100276942D01*
X145566023Y-100313297D01*
X145501889Y-100287053D01*
X145499822Y-100284527D01*
X145468400Y-100211108D01*
X145440528Y-100091342D01*
X145433163Y-100042513D01*
X145425484Y-99910868D01*
X145448602Y-99833107D01*
X145480363Y-99800443D01*
X145591513Y-99746444D01*
X145674859Y-99768587D01*
G37*
X145674859Y-99768587D02*
X145725579Y-99861529D01*
X145738854Y-100019925D01*
X145734536Y-100082255D01*
X145701439Y-100194444D01*
X145638904Y-100276942D01*
X145566023Y-100313297D01*
X145501889Y-100287053D01*
X145499822Y-100284527D01*
X145468400Y-100211108D01*
X145440528Y-100091342D01*
X145433163Y-100042513D01*
X145425484Y-99910868D01*
X145448602Y-99833107D01*
X145480363Y-99800443D01*
X145591513Y-99746444D01*
X145674859Y-99768587D01*
G36*
X148179131Y-100316926D02*
G01*
X148226935Y-100359887D01*
X148254429Y-100403909D01*
X148274097Y-100480915D01*
X148287380Y-100603974D01*
X148295717Y-100786154D01*
X148300376Y-101026637D01*
X148301097Y-101250172D01*
X148297859Y-101448607D01*
X148291240Y-101603948D01*
X148281814Y-101698201D01*
X148278424Y-101712167D01*
X148194574Y-101933015D01*
X148122723Y-102075955D01*
X148058976Y-102146237D01*
X147999438Y-102149114D01*
X147970470Y-102127359D01*
X147958774Y-102072789D01*
X147953195Y-101949560D01*
X147953002Y-101773403D01*
X147957465Y-101560048D01*
X147965854Y-101325225D01*
X147977440Y-101084664D01*
X147991491Y-100854097D01*
X148007278Y-100649253D01*
X148024072Y-100485863D01*
X148041142Y-100379657D01*
X148053064Y-100347556D01*
X148118857Y-100299570D01*
X148179131Y-100316926D01*
G37*
X148179131Y-100316926D02*
X148226935Y-100359887D01*
X148254429Y-100403909D01*
X148274097Y-100480915D01*
X148287380Y-100603974D01*
X148295717Y-100786154D01*
X148300376Y-101026637D01*
X148301097Y-101250172D01*
X148297859Y-101448607D01*
X148291240Y-101603948D01*
X148281814Y-101698201D01*
X148278424Y-101712167D01*
X148194574Y-101933015D01*
X148122723Y-102075955D01*
X148058976Y-102146237D01*
X147999438Y-102149114D01*
X147970470Y-102127359D01*
X147958774Y-102072789D01*
X147953195Y-101949560D01*
X147953002Y-101773403D01*
X147957465Y-101560048D01*
X147965854Y-101325225D01*
X147977440Y-101084664D01*
X147991491Y-100854097D01*
X148007278Y-100649253D01*
X148024072Y-100485863D01*
X148041142Y-100379657D01*
X148053064Y-100347556D01*
X148118857Y-100299570D01*
X148179131Y-100316926D01*
G36*
X148980253Y-100425026D02*
G01*
X149219714Y-100505456D01*
X149434092Y-100663802D01*
X149435584Y-100665246D01*
X149531342Y-100767435D01*
X149578309Y-100856748D01*
X149593416Y-100973252D01*
X149594334Y-101040927D01*
X149585969Y-101171674D01*
X149564546Y-101265286D01*
X149547076Y-101291877D01*
X149529249Y-101344412D01*
X149522989Y-101455610D01*
X149526973Y-101600453D01*
X149539877Y-101753925D01*
X149560377Y-101891008D01*
X149583351Y-101977441D01*
X149586703Y-102021569D01*
X149562119Y-102014754D01*
X149503008Y-102014491D01*
X149488927Y-102028976D01*
X149423008Y-102072206D01*
X149335587Y-102057448D01*
X149249531Y-101998826D01*
X149187709Y-101910463D01*
X149171000Y-101832629D01*
X149141566Y-101746623D01*
X149070215Y-101653505D01*
X149065167Y-101648667D01*
X148992248Y-101588639D01*
X148958891Y-101594468D01*
X148954280Y-101673607D01*
X148957677Y-101722750D01*
X148947693Y-101796798D01*
X148922521Y-101818000D01*
X148889086Y-101855391D01*
X148855391Y-101949516D01*
X148844295Y-101997917D01*
X148813473Y-102114093D01*
X148770266Y-102168717D01*
X148704220Y-102184390D01*
X148584705Y-102180924D01*
X148514834Y-102169698D01*
X148427184Y-102136393D01*
X148388502Y-102079908D01*
X148391381Y-101979104D01*
X148412532Y-101877687D01*
X148430969Y-101758484D01*
X148447084Y-101577020D01*
X148459386Y-101355700D01*
X148466388Y-101116926D01*
X148467145Y-101056000D01*
X148468115Y-100944744D01*
X148799572Y-100944744D01*
X148812198Y-101053989D01*
X148873362Y-101146067D01*
X148931306Y-101180604D01*
X149020774Y-101177389D01*
X149088532Y-101103903D01*
X149124220Y-100973778D01*
X149127167Y-100922946D01*
X149100036Y-100818861D01*
X149017001Y-100777580D01*
X148922485Y-100788300D01*
X148836121Y-100846719D01*
X148799572Y-100944744D01*
X148468115Y-100944744D01*
X148472500Y-100442167D01*
X148704907Y-100418868D01*
X148980253Y-100425026D01*
G37*
X148980253Y-100425026D02*
X149219714Y-100505456D01*
X149434092Y-100663802D01*
X149435584Y-100665246D01*
X149531342Y-100767435D01*
X149578309Y-100856748D01*
X149593416Y-100973252D01*
X149594334Y-101040927D01*
X149585969Y-101171674D01*
X149564546Y-101265286D01*
X149547076Y-101291877D01*
X149529249Y-101344412D01*
X149522989Y-101455610D01*
X149526973Y-101600453D01*
X149539877Y-101753925D01*
X149560377Y-101891008D01*
X149583351Y-101977441D01*
X149586703Y-102021569D01*
X149562119Y-102014754D01*
X149503008Y-102014491D01*
X149488927Y-102028976D01*
X149423008Y-102072206D01*
X149335587Y-102057448D01*
X149249531Y-101998826D01*
X149187709Y-101910463D01*
X149171000Y-101832629D01*
X149141566Y-101746623D01*
X149070215Y-101653505D01*
X149065167Y-101648667D01*
X148992248Y-101588639D01*
X148958891Y-101594468D01*
X148954280Y-101673607D01*
X148957677Y-101722750D01*
X148947693Y-101796798D01*
X148922521Y-101818000D01*
X148889086Y-101855391D01*
X148855391Y-101949516D01*
X148844295Y-101997917D01*
X148813473Y-102114093D01*
X148770266Y-102168717D01*
X148704220Y-102184390D01*
X148584705Y-102180924D01*
X148514834Y-102169698D01*
X148427184Y-102136393D01*
X148388502Y-102079908D01*
X148391381Y-101979104D01*
X148412532Y-101877687D01*
X148430969Y-101758484D01*
X148447084Y-101577020D01*
X148459386Y-101355700D01*
X148466388Y-101116926D01*
X148467145Y-101056000D01*
X148468115Y-100944744D01*
X148799572Y-100944744D01*
X148812198Y-101053989D01*
X148873362Y-101146067D01*
X148931306Y-101180604D01*
X149020774Y-101177389D01*
X149088532Y-101103903D01*
X149124220Y-100973778D01*
X149127167Y-100922946D01*
X149100036Y-100818861D01*
X149017001Y-100777580D01*
X148922485Y-100788300D01*
X148836121Y-100846719D01*
X148799572Y-100944744D01*
X148468115Y-100944744D01*
X148472500Y-100442167D01*
X148704907Y-100418868D01*
X148980253Y-100425026D01*
G36*
X147289676Y-99761611D02*
G01*
X147294878Y-99768220D01*
X147329728Y-99856517D01*
X147324719Y-99911785D01*
X147298414Y-99996735D01*
X147272158Y-100115523D01*
X147270498Y-100124667D01*
X147225201Y-100247724D01*
X147159797Y-100310165D01*
X147117867Y-100338452D01*
X147092104Y-100390099D01*
X147078344Y-100483577D01*
X147072424Y-100637357D01*
X147071512Y-100701748D01*
X147073192Y-100887389D01*
X147084380Y-100999904D01*
X147106665Y-101050460D01*
X147121930Y-101056000D01*
X147191201Y-101027264D01*
X147202500Y-101013667D01*
X147260901Y-100980801D01*
X147331192Y-100971334D01*
X147420732Y-100935259D01*
X147468508Y-100834467D01*
X147470349Y-100680105D01*
X147461153Y-100624179D01*
X147463126Y-100474282D01*
X147525340Y-100359815D01*
X147635339Y-100299141D01*
X147685126Y-100294000D01*
X147798061Y-100309182D01*
X147863833Y-100362687D01*
X147887306Y-100466457D01*
X147873345Y-100632433D01*
X147858321Y-100719168D01*
X147836691Y-100876936D01*
X147818348Y-101091767D01*
X147805164Y-101336067D01*
X147799009Y-101582245D01*
X147798911Y-101595315D01*
X147796476Y-101828712D01*
X147791487Y-101990790D01*
X147782130Y-102094895D01*
X147766594Y-102154372D01*
X147743065Y-102182564D01*
X147717934Y-102191435D01*
X147630335Y-102176128D01*
X147555374Y-102129202D01*
X147503950Y-102055564D01*
X147489545Y-101950109D01*
X147511755Y-101795791D01*
X147544387Y-101665729D01*
X147543712Y-101594243D01*
X147481601Y-101542346D01*
X147442596Y-101524675D01*
X147320484Y-101491245D01*
X147217103Y-101486446D01*
X147163054Y-101501972D01*
X147130394Y-101542637D01*
X147111006Y-101628216D01*
X147096774Y-101778485D01*
X147096667Y-101779897D01*
X147077204Y-101935020D01*
X147047430Y-102062610D01*
X147017400Y-102129147D01*
X146928045Y-102181578D01*
X146804684Y-102196819D01*
X146687654Y-102174249D01*
X146630664Y-102135095D01*
X146598256Y-102043641D01*
X146609974Y-101892595D01*
X146610140Y-101891678D01*
X146626043Y-101789446D01*
X146635631Y-101682572D01*
X146638991Y-101554586D01*
X146636211Y-101389021D01*
X146627377Y-101169406D01*
X146615229Y-100929000D01*
X146604628Y-100694196D01*
X146604180Y-100530932D01*
X146617183Y-100426362D01*
X146646938Y-100367638D01*
X146696742Y-100341912D01*
X146767414Y-100336334D01*
X146854566Y-100332549D01*
X146868927Y-100310160D01*
X146825143Y-100255692D01*
X146759484Y-100201919D01*
X146689588Y-100209285D01*
X146648949Y-100228597D01*
X146529731Y-100262451D01*
X146438399Y-100261626D01*
X146373968Y-100242758D01*
X146347047Y-100202682D01*
X146348370Y-100116710D01*
X146357192Y-100045304D01*
X146361148Y-100018834D01*
X146419334Y-100018834D01*
X146440500Y-100040000D01*
X146461667Y-100018834D01*
X146440500Y-99997667D01*
X146419334Y-100018834D01*
X146361148Y-100018834D01*
X146380520Y-99889238D01*
X146407648Y-99799139D01*
X146452391Y-99756899D01*
X146528565Y-99744412D01*
X146587338Y-99743667D01*
X146696780Y-99749100D01*
X146745649Y-99775817D01*
X146757852Y-99839440D01*
X146758000Y-99855209D01*
X146758000Y-99966752D01*
X146844501Y-99856783D01*
X146950293Y-99766365D01*
X147077930Y-99716789D01*
X147200146Y-99713417D01*
X147289676Y-99761611D01*
G37*
X147289676Y-99761611D02*
X147294878Y-99768220D01*
X147329728Y-99856517D01*
X147324719Y-99911785D01*
X147298414Y-99996735D01*
X147272158Y-100115523D01*
X147270498Y-100124667D01*
X147225201Y-100247724D01*
X147159797Y-100310165D01*
X147117867Y-100338452D01*
X147092104Y-100390099D01*
X147078344Y-100483577D01*
X147072424Y-100637357D01*
X147071512Y-100701748D01*
X147073192Y-100887389D01*
X147084380Y-100999904D01*
X147106665Y-101050460D01*
X147121930Y-101056000D01*
X147191201Y-101027264D01*
X147202500Y-101013667D01*
X147260901Y-100980801D01*
X147331192Y-100971334D01*
X147420732Y-100935259D01*
X147468508Y-100834467D01*
X147470349Y-100680105D01*
X147461153Y-100624179D01*
X147463126Y-100474282D01*
X147525340Y-100359815D01*
X147635339Y-100299141D01*
X147685126Y-100294000D01*
X147798061Y-100309182D01*
X147863833Y-100362687D01*
X147887306Y-100466457D01*
X147873345Y-100632433D01*
X147858321Y-100719168D01*
X147836691Y-100876936D01*
X147818348Y-101091767D01*
X147805164Y-101336067D01*
X147799009Y-101582245D01*
X147798911Y-101595315D01*
X147796476Y-101828712D01*
X147791487Y-101990790D01*
X147782130Y-102094895D01*
X147766594Y-102154372D01*
X147743065Y-102182564D01*
X147717934Y-102191435D01*
X147630335Y-102176128D01*
X147555374Y-102129202D01*
X147503950Y-102055564D01*
X147489545Y-101950109D01*
X147511755Y-101795791D01*
X147544387Y-101665729D01*
X147543712Y-101594243D01*
X147481601Y-101542346D01*
X147442596Y-101524675D01*
X147320484Y-101491245D01*
X147217103Y-101486446D01*
X147163054Y-101501972D01*
X147130394Y-101542637D01*
X147111006Y-101628216D01*
X147096774Y-101778485D01*
X147096667Y-101779897D01*
X147077204Y-101935020D01*
X147047430Y-102062610D01*
X147017400Y-102129147D01*
X146928045Y-102181578D01*
X146804684Y-102196819D01*
X146687654Y-102174249D01*
X146630664Y-102135095D01*
X146598256Y-102043641D01*
X146609974Y-101892595D01*
X146610140Y-101891678D01*
X146626043Y-101789446D01*
X146635631Y-101682572D01*
X146638991Y-101554586D01*
X146636211Y-101389021D01*
X146627377Y-101169406D01*
X146615229Y-100929000D01*
X146604628Y-100694196D01*
X146604180Y-100530932D01*
X146617183Y-100426362D01*
X146646938Y-100367638D01*
X146696742Y-100341912D01*
X146767414Y-100336334D01*
X146854566Y-100332549D01*
X146868927Y-100310160D01*
X146825143Y-100255692D01*
X146759484Y-100201919D01*
X146689588Y-100209285D01*
X146648949Y-100228597D01*
X146529731Y-100262451D01*
X146438399Y-100261626D01*
X146373968Y-100242758D01*
X146347047Y-100202682D01*
X146348370Y-100116710D01*
X146357192Y-100045304D01*
X146361148Y-100018834D01*
X146419334Y-100018834D01*
X146440500Y-100040000D01*
X146461667Y-100018834D01*
X146440500Y-99997667D01*
X146419334Y-100018834D01*
X146361148Y-100018834D01*
X146380520Y-99889238D01*
X146407648Y-99799139D01*
X146452391Y-99756899D01*
X146528565Y-99744412D01*
X146587338Y-99743667D01*
X146696780Y-99749100D01*
X146745649Y-99775817D01*
X146757852Y-99839440D01*
X146758000Y-99855209D01*
X146758000Y-99966752D01*
X146844501Y-99856783D01*
X146950293Y-99766365D01*
X147077930Y-99716789D01*
X147200146Y-99713417D01*
X147289676Y-99761611D01*
G36*
X143622659Y-100410225D02*
G01*
X143625334Y-100418850D01*
X143661470Y-100452574D01*
X143728668Y-100463334D01*
X143817537Y-100477855D01*
X143856419Y-100502838D01*
X143890238Y-100594741D01*
X143925512Y-100755951D01*
X143959676Y-100971205D01*
X143990165Y-101225240D01*
X144005779Y-101391732D01*
X144020580Y-101644529D01*
X144013231Y-101829234D01*
X143979742Y-101960450D01*
X143916119Y-102052783D01*
X143818370Y-102120836D01*
X143804534Y-102127878D01*
X143644638Y-102175550D01*
X143458348Y-102186809D01*
X143289174Y-102160463D01*
X143244334Y-102143225D01*
X143084024Y-102041076D01*
X142935739Y-101902549D01*
X142838132Y-101767186D01*
X142808812Y-101674495D01*
X142789151Y-101542829D01*
X142779673Y-101395856D01*
X142780060Y-101351960D01*
X143208914Y-101351960D01*
X143216342Y-101498767D01*
X143249560Y-101615620D01*
X143310014Y-101682511D01*
X143348408Y-101691000D01*
X143417085Y-101665407D01*
X143511981Y-101602186D01*
X143532564Y-101585489D01*
X143627450Y-101469735D01*
X143681374Y-101329567D01*
X143697264Y-101181936D01*
X143678049Y-101043791D01*
X143626656Y-100932084D01*
X143546016Y-100863764D01*
X143439057Y-100855782D01*
X143408137Y-100865358D01*
X143326885Y-100931898D01*
X143265632Y-101048517D01*
X143225826Y-101195207D01*
X143208914Y-101351960D01*
X142780060Y-101351960D01*
X142780897Y-101257241D01*
X142793348Y-101150652D01*
X142817545Y-101099755D01*
X142823381Y-101098334D01*
X142866482Y-101063391D01*
X142924894Y-100974767D01*
X142954086Y-100918417D01*
X143063419Y-100694130D01*
X143143542Y-100540695D01*
X143198400Y-100451057D01*
X143231937Y-100418162D01*
X143234083Y-100417740D01*
X143292502Y-100411377D01*
X143401113Y-100399354D01*
X143445417Y-100394423D01*
X143565513Y-100390550D01*
X143622659Y-100410225D01*
G37*
X143622659Y-100410225D02*
X143625334Y-100418850D01*
X143661470Y-100452574D01*
X143728668Y-100463334D01*
X143817537Y-100477855D01*
X143856419Y-100502838D01*
X143890238Y-100594741D01*
X143925512Y-100755951D01*
X143959676Y-100971205D01*
X143990165Y-101225240D01*
X144005779Y-101391732D01*
X144020580Y-101644529D01*
X144013231Y-101829234D01*
X143979742Y-101960450D01*
X143916119Y-102052783D01*
X143818370Y-102120836D01*
X143804534Y-102127878D01*
X143644638Y-102175550D01*
X143458348Y-102186809D01*
X143289174Y-102160463D01*
X143244334Y-102143225D01*
X143084024Y-102041076D01*
X142935739Y-101902549D01*
X142838132Y-101767186D01*
X142808812Y-101674495D01*
X142789151Y-101542829D01*
X142779673Y-101395856D01*
X142780060Y-101351960D01*
X143208914Y-101351960D01*
X143216342Y-101498767D01*
X143249560Y-101615620D01*
X143310014Y-101682511D01*
X143348408Y-101691000D01*
X143417085Y-101665407D01*
X143511981Y-101602186D01*
X143532564Y-101585489D01*
X143627450Y-101469735D01*
X143681374Y-101329567D01*
X143697264Y-101181936D01*
X143678049Y-101043791D01*
X143626656Y-100932084D01*
X143546016Y-100863764D01*
X143439057Y-100855782D01*
X143408137Y-100865358D01*
X143326885Y-100931898D01*
X143265632Y-101048517D01*
X143225826Y-101195207D01*
X143208914Y-101351960D01*
X142780060Y-101351960D01*
X142780897Y-101257241D01*
X142793348Y-101150652D01*
X142817545Y-101099755D01*
X142823381Y-101098334D01*
X142866482Y-101063391D01*
X142924894Y-100974767D01*
X142954086Y-100918417D01*
X143063419Y-100694130D01*
X143143542Y-100540695D01*
X143198400Y-100451057D01*
X143231937Y-100418162D01*
X143234083Y-100417740D01*
X143292502Y-100411377D01*
X143401113Y-100399354D01*
X143445417Y-100394423D01*
X143565513Y-100390550D01*
X143622659Y-100410225D01*
G36*
X144509790Y-100280546D02*
G01*
X144557305Y-100295042D01*
X144585897Y-100319972D01*
X144599759Y-100373298D01*
X144603085Y-100472981D01*
X144600068Y-100636980D01*
X144599418Y-100664417D01*
X144599284Y-100801472D01*
X144605124Y-100897088D01*
X144614493Y-100929000D01*
X144741211Y-100891319D01*
X144840403Y-100796453D01*
X144874014Y-100718028D01*
X144925555Y-100593830D01*
X145007842Y-100481674D01*
X145093277Y-100415066D01*
X145196344Y-100384190D01*
X145332156Y-100377767D01*
X145482021Y-100376329D01*
X145612816Y-100371469D01*
X145657334Y-100368166D01*
X145727173Y-100369218D01*
X145752221Y-100407432D01*
X145747737Y-100505667D01*
X145731949Y-100761428D01*
X145733385Y-101031895D01*
X145750651Y-101288192D01*
X145782349Y-101501447D01*
X145799176Y-101569678D01*
X145841967Y-101703057D01*
X145879282Y-101771326D01*
X145924327Y-101791958D01*
X145964237Y-101788054D01*
X146049802Y-101741796D01*
X146137092Y-101651425D01*
X146151159Y-101631304D01*
X146164980Y-101606655D01*
X146252773Y-101606655D01*
X146263285Y-101628577D01*
X146286934Y-101659250D01*
X146348724Y-101725065D01*
X146376305Y-101724779D01*
X146377000Y-101717350D01*
X146348071Y-101682013D01*
X146302917Y-101643267D01*
X146252773Y-101606655D01*
X146164980Y-101606655D01*
X146196495Y-101550452D01*
X146221746Y-101464112D01*
X146230610Y-101347529D01*
X146226786Y-101175947D01*
X146225016Y-101136892D01*
X146214494Y-100953704D01*
X146201720Y-100787780D01*
X146189093Y-100669292D01*
X146186437Y-100651777D01*
X146189498Y-100508254D01*
X146249206Y-100417552D01*
X146357160Y-100389683D01*
X146401261Y-100395832D01*
X146473148Y-100416561D01*
X146507966Y-100453525D01*
X146516254Y-100530709D01*
X146510418Y-100644257D01*
X146490449Y-100784933D01*
X146455927Y-100897707D01*
X146433747Y-100935193D01*
X146399188Y-100997840D01*
X146417253Y-101020029D01*
X146444081Y-101069170D01*
X146461150Y-101181373D01*
X146468850Y-101335642D01*
X146467571Y-101510984D01*
X146457704Y-101686403D01*
X146439637Y-101840904D01*
X146413762Y-101953493D01*
X146399326Y-101985458D01*
X146346517Y-102030021D01*
X146249863Y-102085735D01*
X146229527Y-102095675D01*
X146117939Y-102137480D01*
X146019137Y-102136445D01*
X145924408Y-102109394D01*
X145765995Y-102034834D01*
X145634789Y-101934978D01*
X145550641Y-101827676D01*
X145530334Y-101755047D01*
X145514984Y-101663461D01*
X145495361Y-101625384D01*
X145432725Y-101507419D01*
X145389902Y-101336303D01*
X145372462Y-101142345D01*
X145379814Y-100996672D01*
X145393290Y-100868366D01*
X145397436Y-100782300D01*
X145393486Y-100759667D01*
X145355915Y-100785712D01*
X145277523Y-100852234D01*
X145221106Y-100902960D01*
X145102055Y-101046065D01*
X145066647Y-101180173D01*
X145115005Y-101304419D01*
X145156836Y-101350237D01*
X145213320Y-101419039D01*
X145220463Y-101464644D01*
X145220244Y-101464868D01*
X145222310Y-101513880D01*
X145257783Y-101566891D01*
X145311017Y-101654548D01*
X145359545Y-101781484D01*
X145396438Y-101920252D01*
X145414766Y-102043409D01*
X145407599Y-102123508D01*
X145400904Y-102133697D01*
X145332378Y-102153078D01*
X145247608Y-102090099D01*
X145146357Y-101944526D01*
X145076133Y-101814540D01*
X145003117Y-101679049D01*
X144939429Y-101577267D01*
X144898060Y-101529812D01*
X144896216Y-101529017D01*
X144857225Y-101480208D01*
X144853000Y-101451786D01*
X144829690Y-101409415D01*
X144757750Y-101418240D01*
X144682650Y-101442820D01*
X144658432Y-101452842D01*
X144607454Y-101540992D01*
X144567460Y-101645317D01*
X144548284Y-101734475D01*
X144557073Y-101775918D01*
X144591806Y-101838951D01*
X144605285Y-101948140D01*
X144597400Y-102067659D01*
X144568045Y-102161681D01*
X144558270Y-102175902D01*
X144461951Y-102235742D01*
X144339847Y-102215467D01*
X144264570Y-102171803D01*
X144205767Y-102120090D01*
X144181540Y-102055482D01*
X144184056Y-101948394D01*
X144190288Y-101891306D01*
X144197939Y-101754425D01*
X144189141Y-101645105D01*
X144178675Y-101611587D01*
X144167091Y-101531013D01*
X144177320Y-101388033D01*
X144203470Y-101225334D01*
X144235168Y-101030730D01*
X144241797Y-100888392D01*
X144224193Y-100769980D01*
X144217606Y-100745878D01*
X144189685Y-100559724D01*
X144218237Y-100410565D01*
X144295973Y-100310009D01*
X144415604Y-100269667D01*
X144509790Y-100280546D01*
G37*
X144509790Y-100280546D02*
X144557305Y-100295042D01*
X144585897Y-100319972D01*
X144599759Y-100373298D01*
X144603085Y-100472981D01*
X144600068Y-100636980D01*
X144599418Y-100664417D01*
X144599284Y-100801472D01*
X144605124Y-100897088D01*
X144614493Y-100929000D01*
X144741211Y-100891319D01*
X144840403Y-100796453D01*
X144874014Y-100718028D01*
X144925555Y-100593830D01*
X145007842Y-100481674D01*
X145093277Y-100415066D01*
X145196344Y-100384190D01*
X145332156Y-100377767D01*
X145482021Y-100376329D01*
X145612816Y-100371469D01*
X145657334Y-100368166D01*
X145727173Y-100369218D01*
X145752221Y-100407432D01*
X145747737Y-100505667D01*
X145731949Y-100761428D01*
X145733385Y-101031895D01*
X145750651Y-101288192D01*
X145782349Y-101501447D01*
X145799176Y-101569678D01*
X145841967Y-101703057D01*
X145879282Y-101771326D01*
X145924327Y-101791958D01*
X145964237Y-101788054D01*
X146049802Y-101741796D01*
X146137092Y-101651425D01*
X146151159Y-101631304D01*
X146164980Y-101606655D01*
X146252773Y-101606655D01*
X146263285Y-101628577D01*
X146286934Y-101659250D01*
X146348724Y-101725065D01*
X146376305Y-101724779D01*
X146377000Y-101717350D01*
X146348071Y-101682013D01*
X146302917Y-101643267D01*
X146252773Y-101606655D01*
X146164980Y-101606655D01*
X146196495Y-101550452D01*
X146221746Y-101464112D01*
X146230610Y-101347529D01*
X146226786Y-101175947D01*
X146225016Y-101136892D01*
X146214494Y-100953704D01*
X146201720Y-100787780D01*
X146189093Y-100669292D01*
X146186437Y-100651777D01*
X146189498Y-100508254D01*
X146249206Y-100417552D01*
X146357160Y-100389683D01*
X146401261Y-100395832D01*
X146473148Y-100416561D01*
X146507966Y-100453525D01*
X146516254Y-100530709D01*
X146510418Y-100644257D01*
X146490449Y-100784933D01*
X146455927Y-100897707D01*
X146433747Y-100935193D01*
X146399188Y-100997840D01*
X146417253Y-101020029D01*
X146444081Y-101069170D01*
X146461150Y-101181373D01*
X146468850Y-101335642D01*
X146467571Y-101510984D01*
X146457704Y-101686403D01*
X146439637Y-101840904D01*
X146413762Y-101953493D01*
X146399326Y-101985458D01*
X146346517Y-102030021D01*
X146249863Y-102085735D01*
X146229527Y-102095675D01*
X146117939Y-102137480D01*
X146019137Y-102136445D01*
X145924408Y-102109394D01*
X145765995Y-102034834D01*
X145634789Y-101934978D01*
X145550641Y-101827676D01*
X145530334Y-101755047D01*
X145514984Y-101663461D01*
X145495361Y-101625384D01*
X145432725Y-101507419D01*
X145389902Y-101336303D01*
X145372462Y-101142345D01*
X145379814Y-100996672D01*
X145393290Y-100868366D01*
X145397436Y-100782300D01*
X145393486Y-100759667D01*
X145355915Y-100785712D01*
X145277523Y-100852234D01*
X145221106Y-100902960D01*
X145102055Y-101046065D01*
X145066647Y-101180173D01*
X145115005Y-101304419D01*
X145156836Y-101350237D01*
X145213320Y-101419039D01*
X145220463Y-101464644D01*
X145220244Y-101464868D01*
X145222310Y-101513880D01*
X145257783Y-101566891D01*
X145311017Y-101654548D01*
X145359545Y-101781484D01*
X145396438Y-101920252D01*
X145414766Y-102043409D01*
X145407599Y-102123508D01*
X145400904Y-102133697D01*
X145332378Y-102153078D01*
X145247608Y-102090099D01*
X145146357Y-101944526D01*
X145076133Y-101814540D01*
X145003117Y-101679049D01*
X144939429Y-101577267D01*
X144898060Y-101529812D01*
X144896216Y-101529017D01*
X144857225Y-101480208D01*
X144853000Y-101451786D01*
X144829690Y-101409415D01*
X144757750Y-101418240D01*
X144682650Y-101442820D01*
X144658432Y-101452842D01*
X144607454Y-101540992D01*
X144567460Y-101645317D01*
X144548284Y-101734475D01*
X144557073Y-101775918D01*
X144591806Y-101838951D01*
X144605285Y-101948140D01*
X144597400Y-102067659D01*
X144568045Y-102161681D01*
X144558270Y-102175902D01*
X144461951Y-102235742D01*
X144339847Y-102215467D01*
X144264570Y-102171803D01*
X144205767Y-102120090D01*
X144181540Y-102055482D01*
X144184056Y-101948394D01*
X144190288Y-101891306D01*
X144197939Y-101754425D01*
X144189141Y-101645105D01*
X144178675Y-101611587D01*
X144167091Y-101531013D01*
X144177320Y-101388033D01*
X144203470Y-101225334D01*
X144235168Y-101030730D01*
X144241797Y-100888392D01*
X144224193Y-100769980D01*
X144217606Y-100745878D01*
X144189685Y-100559724D01*
X144218237Y-100410565D01*
X144295973Y-100310009D01*
X144415604Y-100269667D01*
X144509790Y-100280546D01*
G36*
X149583775Y-92121186D02*
G01*
X149840023Y-92139554D01*
X150124903Y-92175421D01*
X150464204Y-92231407D01*
X150483334Y-92234831D01*
X150664457Y-92270250D01*
X150791368Y-92307560D01*
X150893645Y-92360795D01*
X151000866Y-92443988D01*
X151088551Y-92521982D01*
X151225251Y-92654363D01*
X151311724Y-92765024D01*
X151366645Y-92881455D01*
X151393739Y-92971239D01*
X151431177Y-93150265D01*
X151456509Y-93340049D01*
X151461387Y-93412221D01*
X151469538Y-93541716D01*
X151485625Y-93728579D01*
X151507194Y-93946154D01*
X151527906Y-94134500D01*
X151553357Y-94432826D01*
X151569911Y-94805185D01*
X151577243Y-95241381D01*
X151576166Y-95637334D01*
X151573449Y-95977358D01*
X151571977Y-96342680D01*
X151571757Y-96706825D01*
X151572798Y-97043315D01*
X151575110Y-97325675D01*
X151575577Y-97362417D01*
X151577000Y-97600177D01*
X151574833Y-97805282D01*
X151569499Y-97964151D01*
X151561419Y-98063204D01*
X151552952Y-98090262D01*
X151508631Y-98055528D01*
X151415627Y-97955981D01*
X151276321Y-97794346D01*
X151093093Y-97573343D01*
X150991334Y-97448320D01*
X150957064Y-97403678D01*
X150930836Y-97357593D01*
X150911265Y-97298291D01*
X150896964Y-97213997D01*
X150886548Y-97092940D01*
X150878631Y-96923344D01*
X150871829Y-96693437D01*
X150864754Y-96391444D01*
X150864236Y-96368319D01*
X150842972Y-95418982D01*
X150673736Y-95271332D01*
X150567775Y-95175459D01*
X150433064Y-95048605D01*
X150281533Y-94902606D01*
X150125112Y-94749299D01*
X149975729Y-94600521D01*
X149845314Y-94468109D01*
X149745796Y-94363900D01*
X149692731Y-94303834D01*
X150779667Y-94303834D01*
X150800834Y-94325000D01*
X150822000Y-94303834D01*
X150800834Y-94282667D01*
X150779667Y-94303834D01*
X149692731Y-94303834D01*
X149689105Y-94299730D01*
X149680502Y-94285793D01*
X149687128Y-94235745D01*
X149689534Y-94219167D01*
X150737334Y-94219167D01*
X150758500Y-94240334D01*
X150779667Y-94219167D01*
X150758500Y-94198000D01*
X150737334Y-94219167D01*
X149689534Y-94219167D01*
X149703592Y-94122335D01*
X149726919Y-93965893D01*
X149739090Y-93885371D01*
X149739093Y-93885332D01*
X150361450Y-93885332D01*
X150371911Y-93943780D01*
X150383405Y-93956960D01*
X150436176Y-93965522D01*
X150470694Y-93930907D01*
X150663396Y-93930907D01*
X150670278Y-93954584D01*
X150705926Y-94040548D01*
X150720952Y-94081107D01*
X150758295Y-94132246D01*
X150782883Y-94132512D01*
X150793936Y-94082729D01*
X150771275Y-94005988D01*
X150723342Y-93928906D01*
X150684677Y-93901667D01*
X150663396Y-93930907D01*
X150470694Y-93930907D01*
X150478963Y-93922615D01*
X150483334Y-93899168D01*
X150449008Y-93863815D01*
X150419834Y-93859334D01*
X150361450Y-93885332D01*
X149739093Y-93885332D01*
X149743202Y-93838167D01*
X150991334Y-93838167D01*
X151012500Y-93859334D01*
X151033667Y-93838167D01*
X151012500Y-93817000D01*
X150991334Y-93838167D01*
X149743202Y-93838167D01*
X149770226Y-93527984D01*
X149750003Y-93287834D01*
X150229334Y-93287834D01*
X150250500Y-93309000D01*
X150271667Y-93287834D01*
X150250500Y-93266667D01*
X150229334Y-93287834D01*
X149750003Y-93287834D01*
X149745427Y-93233507D01*
X149664548Y-93001163D01*
X149543983Y-92844808D01*
X149247148Y-92624774D01*
X148910869Y-92467154D01*
X148553305Y-92377664D01*
X148192616Y-92362019D01*
X148057086Y-92376846D01*
X147906609Y-92395912D01*
X147788492Y-92403009D01*
X147728095Y-92396623D01*
X147727879Y-92396492D01*
X147669581Y-92384228D01*
X147548480Y-92372885D01*
X147386435Y-92364278D01*
X147311352Y-92361913D01*
X147103278Y-92350254D01*
X146951463Y-92328283D01*
X146869910Y-92298038D01*
X146869397Y-92297617D01*
X146813229Y-92269349D01*
X146745858Y-92288460D01*
X146670650Y-92337244D01*
X146621714Y-92370194D01*
X146572570Y-92393760D01*
X146509976Y-92408759D01*
X146420693Y-92416008D01*
X146291481Y-92416322D01*
X146109099Y-92410518D01*
X145860309Y-92399413D01*
X145748408Y-92394106D01*
X145261684Y-92374294D01*
X144851079Y-92365334D01*
X144508697Y-92367578D01*
X144226643Y-92381382D01*
X143997024Y-92407099D01*
X143811943Y-92445083D01*
X143685512Y-92486571D01*
X143547536Y-92539523D01*
X143440048Y-92576837D01*
X143389179Y-92589931D01*
X143331245Y-92619271D01*
X143238940Y-92693099D01*
X143133064Y-92791677D01*
X143034417Y-92895270D01*
X142963798Y-92984141D01*
X142950612Y-93006068D01*
X142932571Y-93074521D01*
X142911144Y-93206447D01*
X142888496Y-93380834D01*
X142866790Y-93576669D01*
X142848190Y-93772942D01*
X142834862Y-93948639D01*
X142828969Y-94082750D01*
X142832439Y-94153367D01*
X142819470Y-94256650D01*
X142744635Y-94399517D01*
X142614662Y-94571919D01*
X142436278Y-94763806D01*
X142400326Y-94798890D01*
X142223578Y-94979227D01*
X142063700Y-95161384D01*
X141928611Y-95334129D01*
X141826231Y-95486228D01*
X141764477Y-95606448D01*
X141751271Y-95683557D01*
X141763922Y-95701609D01*
X141776195Y-95749626D01*
X141786423Y-95867955D01*
X141793939Y-96042254D01*
X141798075Y-96258180D01*
X141798531Y-96444835D01*
X141797041Y-96707124D01*
X141794086Y-96897802D01*
X141787893Y-97029928D01*
X141776686Y-97116557D01*
X141758691Y-97170747D01*
X141732131Y-97205553D01*
X141695233Y-97234033D01*
X141690825Y-97237093D01*
X141502111Y-97379277D01*
X141367480Y-97514809D01*
X141263778Y-97671724D01*
X141174375Y-97862429D01*
X141097855Y-98064048D01*
X141061886Y-98213171D01*
X141061872Y-98328928D01*
X141062034Y-98329960D01*
X141114205Y-98519872D01*
X141208516Y-98741714D01*
X141329772Y-98965118D01*
X141462777Y-99159715D01*
X141499551Y-99204325D01*
X141598660Y-99322527D01*
X141677967Y-99424096D01*
X141714047Y-99476931D01*
X141750291Y-99519327D01*
X141808936Y-99525774D01*
X141917701Y-99498947D01*
X141923676Y-99497162D01*
X142067665Y-99432830D01*
X142207273Y-99338652D01*
X142231170Y-99317684D01*
X142379101Y-99192045D01*
X142491136Y-99135724D01*
X142582492Y-99150542D01*
X142668384Y-99238318D01*
X142753000Y-99380093D01*
X142796911Y-99479526D01*
X142798060Y-99556398D01*
X142747149Y-99627072D01*
X142634876Y-99707914D01*
X142531658Y-99769574D01*
X142320451Y-99903910D01*
X142131450Y-100046504D01*
X141976297Y-100186356D01*
X141866634Y-100312462D01*
X141814105Y-100413821D01*
X141812370Y-100449297D01*
X141864370Y-100511358D01*
X141980188Y-100549020D01*
X142142012Y-100560364D01*
X142332031Y-100543468D01*
X142454126Y-100518487D01*
X142594916Y-100486003D01*
X142680578Y-100477891D01*
X142737340Y-100495076D01*
X142782209Y-100530039D01*
X142848292Y-100613638D01*
X142854896Y-100707389D01*
X142803495Y-100837212D01*
X142800075Y-100843866D01*
X142730459Y-100934964D01*
X142626225Y-100974298D01*
X142583346Y-100979347D01*
X142429874Y-100992500D01*
X142437076Y-101532758D01*
X142437605Y-101782678D01*
X142428649Y-101956227D01*
X142406028Y-102061538D01*
X142365559Y-102106740D01*
X142303060Y-102099964D01*
X142214351Y-102049341D01*
X142182713Y-102027326D01*
X142050421Y-101891733D01*
X141968038Y-101722294D01*
X141949730Y-101549200D01*
X141951645Y-101534883D01*
X141965337Y-101427888D01*
X141981456Y-101274805D01*
X141992797Y-101151250D01*
X142015369Y-100886667D01*
X141839434Y-100886667D01*
X141695537Y-100868461D01*
X141591426Y-100821244D01*
X141586966Y-100817404D01*
X141545484Y-100781087D01*
X141517465Y-100773628D01*
X141493913Y-100808223D01*
X141465833Y-100898069D01*
X141424322Y-101056000D01*
X141363837Y-101345030D01*
X141350377Y-101576186D01*
X141383861Y-101761951D01*
X141419245Y-101843719D01*
X141530001Y-102029015D01*
X141647364Y-102166989D01*
X141789052Y-102269116D01*
X141972784Y-102346868D01*
X142216279Y-102411718D01*
X142335057Y-102436753D01*
X142568509Y-102470647D01*
X142874461Y-102494617D01*
X143241307Y-102508471D01*
X143657440Y-102512018D01*
X144111256Y-102505065D01*
X144591148Y-102487423D01*
X144789500Y-102477236D01*
X145496581Y-102443085D01*
X146179310Y-102420230D01*
X146828830Y-102408616D01*
X147436285Y-102408188D01*
X147992818Y-102418891D01*
X148489571Y-102440672D01*
X148917690Y-102473474D01*
X149181822Y-102504354D01*
X149433478Y-102538955D01*
X149617733Y-102561844D01*
X149750993Y-102573323D01*
X149849667Y-102573696D01*
X149930163Y-102563266D01*
X150008888Y-102542335D01*
X150073974Y-102520836D01*
X150316883Y-102410427D01*
X150497246Y-102269581D01*
X150609326Y-102106228D01*
X150647385Y-101928298D01*
X150616843Y-101770448D01*
X150561902Y-101694970D01*
X150477719Y-101638523D01*
X150391762Y-101612756D01*
X150331497Y-101629316D01*
X150322121Y-101645471D01*
X150272556Y-101686840D01*
X150245644Y-101691000D01*
X150207714Y-101696310D01*
X150179699Y-101724201D01*
X150152628Y-101792618D01*
X150117532Y-101919505D01*
X150102792Y-101976750D01*
X150065539Y-102091664D01*
X150019943Y-102144355D01*
X149950492Y-102156667D01*
X149864719Y-102131957D01*
X149803907Y-102052624D01*
X149765544Y-101910861D01*
X149747118Y-101698863D01*
X149744656Y-101516982D01*
X149748977Y-101331167D01*
X149975334Y-101331167D01*
X149996500Y-101352334D01*
X150017667Y-101331167D01*
X149996500Y-101310000D01*
X149975334Y-101331167D01*
X149748977Y-101331167D01*
X149749458Y-101310516D01*
X149755067Y-101254838D01*
X150076100Y-101254838D01*
X150108355Y-101286232D01*
X150206384Y-101309186D01*
X150314000Y-101322761D01*
X150428479Y-101335497D01*
X150508405Y-101345008D01*
X150512585Y-101345559D01*
X150573972Y-101329943D01*
X150582255Y-101320584D01*
X150579196Y-101266397D01*
X150550893Y-101160609D01*
X150519961Y-101071050D01*
X150438415Y-100853266D01*
X150266873Y-100936146D01*
X150154803Y-101002592D01*
X150116797Y-101061030D01*
X150120730Y-101085212D01*
X150118483Y-101172160D01*
X150098296Y-101209032D01*
X150076100Y-101254838D01*
X149755067Y-101254838D01*
X149764664Y-101159584D01*
X149795446Y-101035214D01*
X149846975Y-100908434D01*
X149857169Y-100886667D01*
X149921959Y-100739818D01*
X149972988Y-100605975D01*
X149993241Y-100538062D01*
X150051739Y-100432176D01*
X150119585Y-100397033D01*
X150236315Y-100401304D01*
X150372521Y-100450695D01*
X150488911Y-100529378D01*
X150513655Y-100555792D01*
X150571107Y-100640915D01*
X150642565Y-100766045D01*
X150715489Y-100906443D01*
X150777339Y-101037370D01*
X150815576Y-101134088D01*
X150822000Y-101164116D01*
X150856114Y-101234551D01*
X150882827Y-101251332D01*
X150926106Y-101298432D01*
X150924226Y-101325302D01*
X150931929Y-101395356D01*
X150966383Y-101459382D01*
X151031134Y-101511409D01*
X151084083Y-101486560D01*
X151119159Y-101392433D01*
X151130429Y-101254105D01*
X151122653Y-101152714D01*
X151093470Y-101051555D01*
X151034101Y-100930227D01*
X150935764Y-100768334D01*
X150892497Y-100701353D01*
X150790281Y-100549453D01*
X150702785Y-100428486D01*
X150641242Y-100353468D01*
X150619466Y-100336334D01*
X150576398Y-100309508D01*
X150484023Y-100236238D01*
X150355409Y-100127335D01*
X150203619Y-99993609D01*
X150184600Y-99976527D01*
X150029827Y-99840343D01*
X149895311Y-99727791D01*
X149794527Y-99649738D01*
X149740949Y-99617052D01*
X149738478Y-99616693D01*
X149670447Y-99586248D01*
X149606007Y-99516724D01*
X149570226Y-99440729D01*
X149574311Y-99403148D01*
X149611036Y-99377525D01*
X149638028Y-99407202D01*
X149677092Y-99419487D01*
X149754056Y-99378717D01*
X149877569Y-99280087D01*
X149896592Y-99263555D01*
X150012328Y-99166022D01*
X150104082Y-99095515D01*
X150153027Y-99066445D01*
X150154243Y-99066333D01*
X150197089Y-99094141D01*
X150283559Y-99168305D01*
X150397789Y-99274938D01*
X150444413Y-99320333D01*
X150569102Y-99436239D01*
X150677221Y-99524406D01*
X150750872Y-99570666D01*
X150765239Y-99574334D01*
X150864102Y-99546606D01*
X150997725Y-99474237D01*
X151142008Y-99373443D01*
X151272849Y-99260444D01*
X151339425Y-99187940D01*
X151424324Y-99092921D01*
X151493632Y-99033750D01*
X151517002Y-99023997D01*
X151530877Y-99056492D01*
X151541842Y-99156186D01*
X151549996Y-99326396D01*
X151555437Y-99570438D01*
X151558265Y-99891625D01*
X151558577Y-100293275D01*
X151558262Y-100410414D01*
X151553690Y-101796834D01*
X151382055Y-102053774D01*
X151271992Y-102205262D01*
X151154017Y-102347216D01*
X151062013Y-102441017D01*
X150887614Y-102558944D01*
X150653992Y-102666464D01*
X150386593Y-102753221D01*
X150187000Y-102797093D01*
X150071973Y-102811006D01*
X149899938Y-102824137D01*
X149685423Y-102836112D01*
X149442958Y-102846557D01*
X149187071Y-102855099D01*
X148932292Y-102861363D01*
X148693151Y-102864976D01*
X148484175Y-102865565D01*
X148319894Y-102862755D01*
X148214837Y-102856173D01*
X148183728Y-102848617D01*
X148137403Y-102843583D01*
X148012986Y-102838701D01*
X147817050Y-102834042D01*
X147556169Y-102829678D01*
X147236918Y-102825678D01*
X146865870Y-102822114D01*
X146449599Y-102819056D01*
X145994679Y-102816575D01*
X145507685Y-102814742D01*
X144995190Y-102813628D01*
X144923995Y-102813536D01*
X141695512Y-102809704D01*
X141485673Y-102681510D01*
X141359536Y-102607020D01*
X141255606Y-102550151D01*
X141211010Y-102529206D01*
X141159666Y-102480766D01*
X141089703Y-102378178D01*
X141023078Y-102256799D01*
X140899971Y-102008500D01*
X140905044Y-98410167D01*
X140906582Y-97608005D01*
X140908256Y-97119000D01*
X141297000Y-97119000D01*
X141312489Y-97153845D01*
X141325222Y-97147222D01*
X141330289Y-97096983D01*
X141325222Y-97090778D01*
X141300055Y-97096589D01*
X141297000Y-97119000D01*
X140908256Y-97119000D01*
X140909054Y-96885975D01*
X140912820Y-96239540D01*
X140918235Y-95664168D01*
X140925658Y-95155325D01*
X140935447Y-94708475D01*
X140947958Y-94319086D01*
X140963550Y-93982622D01*
X140982580Y-93694550D01*
X141005406Y-93450336D01*
X141032384Y-93245446D01*
X141063874Y-93075345D01*
X141100232Y-92935499D01*
X141141815Y-92821375D01*
X141188983Y-92728438D01*
X141242091Y-92652154D01*
X141301498Y-92587989D01*
X141367561Y-92531409D01*
X141368741Y-92530489D01*
X141500412Y-92441905D01*
X141629388Y-92377350D01*
X141694491Y-92357493D01*
X141782206Y-92346003D01*
X141931708Y-92329489D01*
X142125014Y-92309643D01*
X142344142Y-92288159D01*
X142571112Y-92266732D01*
X142787940Y-92247055D01*
X142976645Y-92230822D01*
X143119245Y-92219727D01*
X143197758Y-92215464D01*
X143202000Y-92215491D01*
X143263536Y-92214432D01*
X143394550Y-92210526D01*
X143579919Y-92204281D01*
X143804523Y-92196201D01*
X144006334Y-92188600D01*
X144200742Y-92182436D01*
X144467705Y-92175912D01*
X144795112Y-92169229D01*
X145170853Y-92162587D01*
X145582816Y-92156190D01*
X146018892Y-92150237D01*
X146466969Y-92144931D01*
X146885000Y-92140742D01*
X147314178Y-92136828D01*
X147726925Y-92133032D01*
X148113662Y-92129445D01*
X148464811Y-92126156D01*
X148770796Y-92123256D01*
X149022037Y-92120836D01*
X149208958Y-92118985D01*
X149321980Y-92117794D01*
X149330368Y-92117697D01*
X149583775Y-92121186D01*
G37*
X149583775Y-92121186D02*
X149840023Y-92139554D01*
X150124903Y-92175421D01*
X150464204Y-92231407D01*
X150483334Y-92234831D01*
X150664457Y-92270250D01*
X150791368Y-92307560D01*
X150893645Y-92360795D01*
X151000866Y-92443988D01*
X151088551Y-92521982D01*
X151225251Y-92654363D01*
X151311724Y-92765024D01*
X151366645Y-92881455D01*
X151393739Y-92971239D01*
X151431177Y-93150265D01*
X151456509Y-93340049D01*
X151461387Y-93412221D01*
X151469538Y-93541716D01*
X151485625Y-93728579D01*
X151507194Y-93946154D01*
X151527906Y-94134500D01*
X151553357Y-94432826D01*
X151569911Y-94805185D01*
X151577243Y-95241381D01*
X151576166Y-95637334D01*
X151573449Y-95977358D01*
X151571977Y-96342680D01*
X151571757Y-96706825D01*
X151572798Y-97043315D01*
X151575110Y-97325675D01*
X151575577Y-97362417D01*
X151577000Y-97600177D01*
X151574833Y-97805282D01*
X151569499Y-97964151D01*
X151561419Y-98063204D01*
X151552952Y-98090262D01*
X151508631Y-98055528D01*
X151415627Y-97955981D01*
X151276321Y-97794346D01*
X151093093Y-97573343D01*
X150991334Y-97448320D01*
X150957064Y-97403678D01*
X150930836Y-97357593D01*
X150911265Y-97298291D01*
X150896964Y-97213997D01*
X150886548Y-97092940D01*
X150878631Y-96923344D01*
X150871829Y-96693437D01*
X150864754Y-96391444D01*
X150864236Y-96368319D01*
X150842972Y-95418982D01*
X150673736Y-95271332D01*
X150567775Y-95175459D01*
X150433064Y-95048605D01*
X150281533Y-94902606D01*
X150125112Y-94749299D01*
X149975729Y-94600521D01*
X149845314Y-94468109D01*
X149745796Y-94363900D01*
X149692731Y-94303834D01*
X150779667Y-94303834D01*
X150800834Y-94325000D01*
X150822000Y-94303834D01*
X150800834Y-94282667D01*
X150779667Y-94303834D01*
X149692731Y-94303834D01*
X149689105Y-94299730D01*
X149680502Y-94285793D01*
X149687128Y-94235745D01*
X149689534Y-94219167D01*
X150737334Y-94219167D01*
X150758500Y-94240334D01*
X150779667Y-94219167D01*
X150758500Y-94198000D01*
X150737334Y-94219167D01*
X149689534Y-94219167D01*
X149703592Y-94122335D01*
X149726919Y-93965893D01*
X149739090Y-93885371D01*
X149739093Y-93885332D01*
X150361450Y-93885332D01*
X150371911Y-93943780D01*
X150383405Y-93956960D01*
X150436176Y-93965522D01*
X150470694Y-93930907D01*
X150663396Y-93930907D01*
X150670278Y-93954584D01*
X150705926Y-94040548D01*
X150720952Y-94081107D01*
X150758295Y-94132246D01*
X150782883Y-94132512D01*
X150793936Y-94082729D01*
X150771275Y-94005988D01*
X150723342Y-93928906D01*
X150684677Y-93901667D01*
X150663396Y-93930907D01*
X150470694Y-93930907D01*
X150478963Y-93922615D01*
X150483334Y-93899168D01*
X150449008Y-93863815D01*
X150419834Y-93859334D01*
X150361450Y-93885332D01*
X149739093Y-93885332D01*
X149743202Y-93838167D01*
X150991334Y-93838167D01*
X151012500Y-93859334D01*
X151033667Y-93838167D01*
X151012500Y-93817000D01*
X150991334Y-93838167D01*
X149743202Y-93838167D01*
X149770226Y-93527984D01*
X149750003Y-93287834D01*
X150229334Y-93287834D01*
X150250500Y-93309000D01*
X150271667Y-93287834D01*
X150250500Y-93266667D01*
X150229334Y-93287834D01*
X149750003Y-93287834D01*
X149745427Y-93233507D01*
X149664548Y-93001163D01*
X149543983Y-92844808D01*
X149247148Y-92624774D01*
X148910869Y-92467154D01*
X148553305Y-92377664D01*
X148192616Y-92362019D01*
X148057086Y-92376846D01*
X147906609Y-92395912D01*
X147788492Y-92403009D01*
X147728095Y-92396623D01*
X147727879Y-92396492D01*
X147669581Y-92384228D01*
X147548480Y-92372885D01*
X147386435Y-92364278D01*
X147311352Y-92361913D01*
X147103278Y-92350254D01*
X146951463Y-92328283D01*
X146869910Y-92298038D01*
X146869397Y-92297617D01*
X146813229Y-92269349D01*
X146745858Y-92288460D01*
X146670650Y-92337244D01*
X146621714Y-92370194D01*
X146572570Y-92393760D01*
X146509976Y-92408759D01*
X146420693Y-92416008D01*
X146291481Y-92416322D01*
X146109099Y-92410518D01*
X145860309Y-92399413D01*
X145748408Y-92394106D01*
X145261684Y-92374294D01*
X144851079Y-92365334D01*
X144508697Y-92367578D01*
X144226643Y-92381382D01*
X143997024Y-92407099D01*
X143811943Y-92445083D01*
X143685512Y-92486571D01*
X143547536Y-92539523D01*
X143440048Y-92576837D01*
X143389179Y-92589931D01*
X143331245Y-92619271D01*
X143238940Y-92693099D01*
X143133064Y-92791677D01*
X143034417Y-92895270D01*
X142963798Y-92984141D01*
X142950612Y-93006068D01*
X142932571Y-93074521D01*
X142911144Y-93206447D01*
X142888496Y-93380834D01*
X142866790Y-93576669D01*
X142848190Y-93772942D01*
X142834862Y-93948639D01*
X142828969Y-94082750D01*
X142832439Y-94153367D01*
X142819470Y-94256650D01*
X142744635Y-94399517D01*
X142614662Y-94571919D01*
X142436278Y-94763806D01*
X142400326Y-94798890D01*
X142223578Y-94979227D01*
X142063700Y-95161384D01*
X141928611Y-95334129D01*
X141826231Y-95486228D01*
X141764477Y-95606448D01*
X141751271Y-95683557D01*
X141763922Y-95701609D01*
X141776195Y-95749626D01*
X141786423Y-95867955D01*
X141793939Y-96042254D01*
X141798075Y-96258180D01*
X141798531Y-96444835D01*
X141797041Y-96707124D01*
X141794086Y-96897802D01*
X141787893Y-97029928D01*
X141776686Y-97116557D01*
X141758691Y-97170747D01*
X141732131Y-97205553D01*
X141695233Y-97234033D01*
X141690825Y-97237093D01*
X141502111Y-97379277D01*
X141367480Y-97514809D01*
X141263778Y-97671724D01*
X141174375Y-97862429D01*
X141097855Y-98064048D01*
X141061886Y-98213171D01*
X141061872Y-98328928D01*
X141062034Y-98329960D01*
X141114205Y-98519872D01*
X141208516Y-98741714D01*
X141329772Y-98965118D01*
X141462777Y-99159715D01*
X141499551Y-99204325D01*
X141598660Y-99322527D01*
X141677967Y-99424096D01*
X141714047Y-99476931D01*
X141750291Y-99519327D01*
X141808936Y-99525774D01*
X141917701Y-99498947D01*
X141923676Y-99497162D01*
X142067665Y-99432830D01*
X142207273Y-99338652D01*
X142231170Y-99317684D01*
X142379101Y-99192045D01*
X142491136Y-99135724D01*
X142582492Y-99150542D01*
X142668384Y-99238318D01*
X142753000Y-99380093D01*
X142796911Y-99479526D01*
X142798060Y-99556398D01*
X142747149Y-99627072D01*
X142634876Y-99707914D01*
X142531658Y-99769574D01*
X142320451Y-99903910D01*
X142131450Y-100046504D01*
X141976297Y-100186356D01*
X141866634Y-100312462D01*
X141814105Y-100413821D01*
X141812370Y-100449297D01*
X141864370Y-100511358D01*
X141980188Y-100549020D01*
X142142012Y-100560364D01*
X142332031Y-100543468D01*
X142454126Y-100518487D01*
X142594916Y-100486003D01*
X142680578Y-100477891D01*
X142737340Y-100495076D01*
X142782209Y-100530039D01*
X142848292Y-100613638D01*
X142854896Y-100707389D01*
X142803495Y-100837212D01*
X142800075Y-100843866D01*
X142730459Y-100934964D01*
X142626225Y-100974298D01*
X142583346Y-100979347D01*
X142429874Y-100992500D01*
X142437076Y-101532758D01*
X142437605Y-101782678D01*
X142428649Y-101956227D01*
X142406028Y-102061538D01*
X142365559Y-102106740D01*
X142303060Y-102099964D01*
X142214351Y-102049341D01*
X142182713Y-102027326D01*
X142050421Y-101891733D01*
X141968038Y-101722294D01*
X141949730Y-101549200D01*
X141951645Y-101534883D01*
X141965337Y-101427888D01*
X141981456Y-101274805D01*
X141992797Y-101151250D01*
X142015369Y-100886667D01*
X141839434Y-100886667D01*
X141695537Y-100868461D01*
X141591426Y-100821244D01*
X141586966Y-100817404D01*
X141545484Y-100781087D01*
X141517465Y-100773628D01*
X141493913Y-100808223D01*
X141465833Y-100898069D01*
X141424322Y-101056000D01*
X141363837Y-101345030D01*
X141350377Y-101576186D01*
X141383861Y-101761951D01*
X141419245Y-101843719D01*
X141530001Y-102029015D01*
X141647364Y-102166989D01*
X141789052Y-102269116D01*
X141972784Y-102346868D01*
X142216279Y-102411718D01*
X142335057Y-102436753D01*
X142568509Y-102470647D01*
X142874461Y-102494617D01*
X143241307Y-102508471D01*
X143657440Y-102512018D01*
X144111256Y-102505065D01*
X144591148Y-102487423D01*
X144789500Y-102477236D01*
X145496581Y-102443085D01*
X146179310Y-102420230D01*
X146828830Y-102408616D01*
X147436285Y-102408188D01*
X147992818Y-102418891D01*
X148489571Y-102440672D01*
X148917690Y-102473474D01*
X149181822Y-102504354D01*
X149433478Y-102538955D01*
X149617733Y-102561844D01*
X149750993Y-102573323D01*
X149849667Y-102573696D01*
X149930163Y-102563266D01*
X150008888Y-102542335D01*
X150073974Y-102520836D01*
X150316883Y-102410427D01*
X150497246Y-102269581D01*
X150609326Y-102106228D01*
X150647385Y-101928298D01*
X150616843Y-101770448D01*
X150561902Y-101694970D01*
X150477719Y-101638523D01*
X150391762Y-101612756D01*
X150331497Y-101629316D01*
X150322121Y-101645471D01*
X150272556Y-101686840D01*
X150245644Y-101691000D01*
X150207714Y-101696310D01*
X150179699Y-101724201D01*
X150152628Y-101792618D01*
X150117532Y-101919505D01*
X150102792Y-101976750D01*
X150065539Y-102091664D01*
X150019943Y-102144355D01*
X149950492Y-102156667D01*
X149864719Y-102131957D01*
X149803907Y-102052624D01*
X149765544Y-101910861D01*
X149747118Y-101698863D01*
X149744656Y-101516982D01*
X149748977Y-101331167D01*
X149975334Y-101331167D01*
X149996500Y-101352334D01*
X150017667Y-101331167D01*
X149996500Y-101310000D01*
X149975334Y-101331167D01*
X149748977Y-101331167D01*
X149749458Y-101310516D01*
X149755067Y-101254838D01*
X150076100Y-101254838D01*
X150108355Y-101286232D01*
X150206384Y-101309186D01*
X150314000Y-101322761D01*
X150428479Y-101335497D01*
X150508405Y-101345008D01*
X150512585Y-101345559D01*
X150573972Y-101329943D01*
X150582255Y-101320584D01*
X150579196Y-101266397D01*
X150550893Y-101160609D01*
X150519961Y-101071050D01*
X150438415Y-100853266D01*
X150266873Y-100936146D01*
X150154803Y-101002592D01*
X150116797Y-101061030D01*
X150120730Y-101085212D01*
X150118483Y-101172160D01*
X150098296Y-101209032D01*
X150076100Y-101254838D01*
X149755067Y-101254838D01*
X149764664Y-101159584D01*
X149795446Y-101035214D01*
X149846975Y-100908434D01*
X149857169Y-100886667D01*
X149921959Y-100739818D01*
X149972988Y-100605975D01*
X149993241Y-100538062D01*
X150051739Y-100432176D01*
X150119585Y-100397033D01*
X150236315Y-100401304D01*
X150372521Y-100450695D01*
X150488911Y-100529378D01*
X150513655Y-100555792D01*
X150571107Y-100640915D01*
X150642565Y-100766045D01*
X150715489Y-100906443D01*
X150777339Y-101037370D01*
X150815576Y-101134088D01*
X150822000Y-101164116D01*
X150856114Y-101234551D01*
X150882827Y-101251332D01*
X150926106Y-101298432D01*
X150924226Y-101325302D01*
X150931929Y-101395356D01*
X150966383Y-101459382D01*
X151031134Y-101511409D01*
X151084083Y-101486560D01*
X151119159Y-101392433D01*
X151130429Y-101254105D01*
X151122653Y-101152714D01*
X151093470Y-101051555D01*
X151034101Y-100930227D01*
X150935764Y-100768334D01*
X150892497Y-100701353D01*
X150790281Y-100549453D01*
X150702785Y-100428486D01*
X150641242Y-100353468D01*
X150619466Y-100336334D01*
X150576398Y-100309508D01*
X150484023Y-100236238D01*
X150355409Y-100127335D01*
X150203619Y-99993609D01*
X150184600Y-99976527D01*
X150029827Y-99840343D01*
X149895311Y-99727791D01*
X149794527Y-99649738D01*
X149740949Y-99617052D01*
X149738478Y-99616693D01*
X149670447Y-99586248D01*
X149606007Y-99516724D01*
X149570226Y-99440729D01*
X149574311Y-99403148D01*
X149611036Y-99377525D01*
X149638028Y-99407202D01*
X149677092Y-99419487D01*
X149754056Y-99378717D01*
X149877569Y-99280087D01*
X149896592Y-99263555D01*
X150012328Y-99166022D01*
X150104082Y-99095515D01*
X150153027Y-99066445D01*
X150154243Y-99066333D01*
X150197089Y-99094141D01*
X150283559Y-99168305D01*
X150397789Y-99274938D01*
X150444413Y-99320333D01*
X150569102Y-99436239D01*
X150677221Y-99524406D01*
X150750872Y-99570666D01*
X150765239Y-99574334D01*
X150864102Y-99546606D01*
X150997725Y-99474237D01*
X151142008Y-99373443D01*
X151272849Y-99260444D01*
X151339425Y-99187940D01*
X151424324Y-99092921D01*
X151493632Y-99033750D01*
X151517002Y-99023997D01*
X151530877Y-99056492D01*
X151541842Y-99156186D01*
X151549996Y-99326396D01*
X151555437Y-99570438D01*
X151558265Y-99891625D01*
X151558577Y-100293275D01*
X151558262Y-100410414D01*
X151553690Y-101796834D01*
X151382055Y-102053774D01*
X151271992Y-102205262D01*
X151154017Y-102347216D01*
X151062013Y-102441017D01*
X150887614Y-102558944D01*
X150653992Y-102666464D01*
X150386593Y-102753221D01*
X150187000Y-102797093D01*
X150071973Y-102811006D01*
X149899938Y-102824137D01*
X149685423Y-102836112D01*
X149442958Y-102846557D01*
X149187071Y-102855099D01*
X148932292Y-102861363D01*
X148693151Y-102864976D01*
X148484175Y-102865565D01*
X148319894Y-102862755D01*
X148214837Y-102856173D01*
X148183728Y-102848617D01*
X148137403Y-102843583D01*
X148012986Y-102838701D01*
X147817050Y-102834042D01*
X147556169Y-102829678D01*
X147236918Y-102825678D01*
X146865870Y-102822114D01*
X146449599Y-102819056D01*
X145994679Y-102816575D01*
X145507685Y-102814742D01*
X144995190Y-102813628D01*
X144923995Y-102813536D01*
X141695512Y-102809704D01*
X141485673Y-102681510D01*
X141359536Y-102607020D01*
X141255606Y-102550151D01*
X141211010Y-102529206D01*
X141159666Y-102480766D01*
X141089703Y-102378178D01*
X141023078Y-102256799D01*
X140899971Y-102008500D01*
X140905044Y-98410167D01*
X140906582Y-97608005D01*
X140908256Y-97119000D01*
X141297000Y-97119000D01*
X141312489Y-97153845D01*
X141325222Y-97147222D01*
X141330289Y-97096983D01*
X141325222Y-97090778D01*
X141300055Y-97096589D01*
X141297000Y-97119000D01*
X140908256Y-97119000D01*
X140909054Y-96885975D01*
X140912820Y-96239540D01*
X140918235Y-95664168D01*
X140925658Y-95155325D01*
X140935447Y-94708475D01*
X140947958Y-94319086D01*
X140963550Y-93982622D01*
X140982580Y-93694550D01*
X141005406Y-93450336D01*
X141032384Y-93245446D01*
X141063874Y-93075345D01*
X141100232Y-92935499D01*
X141141815Y-92821375D01*
X141188983Y-92728438D01*
X141242091Y-92652154D01*
X141301498Y-92587989D01*
X141367561Y-92531409D01*
X141368741Y-92530489D01*
X141500412Y-92441905D01*
X141629388Y-92377350D01*
X141694491Y-92357493D01*
X141782206Y-92346003D01*
X141931708Y-92329489D01*
X142125014Y-92309643D01*
X142344142Y-92288159D01*
X142571112Y-92266732D01*
X142787940Y-92247055D01*
X142976645Y-92230822D01*
X143119245Y-92219727D01*
X143197758Y-92215464D01*
X143202000Y-92215491D01*
X143263536Y-92214432D01*
X143394550Y-92210526D01*
X143579919Y-92204281D01*
X143804523Y-92196201D01*
X144006334Y-92188600D01*
X144200742Y-92182436D01*
X144467705Y-92175912D01*
X144795112Y-92169229D01*
X145170853Y-92162587D01*
X145582816Y-92156190D01*
X146018892Y-92150237D01*
X146466969Y-92144931D01*
X146885000Y-92140742D01*
X147314178Y-92136828D01*
X147726925Y-92133032D01*
X148113662Y-92129445D01*
X148464811Y-92126156D01*
X148770796Y-92123256D01*
X149022037Y-92120836D01*
X149208958Y-92118985D01*
X149321980Y-92117794D01*
X149330368Y-92117697D01*
X149583775Y-92121186D01*
D11*
G04 #@! TO.C,P5*
X138534000Y-107450000D02*
G75*
G03X138534000Y-107450000I-2286000J0D01*
G01*
G04 #@! TO.C,P6*
X158534000Y-107490000D02*
G75*
G03X158534000Y-107490000I-2286000J0D01*
G01*
G04 #@! TO.C,P7*
X138534000Y-87490000D02*
G75*
G03X138534000Y-87490000I-2286000J0D01*
G01*
G04 #@! TO.C,P8*
X158534000Y-87490000D02*
G75*
G03X158534000Y-87490000I-2286000J0D01*
G01*
D13*
G04 #@! TO.C,JP1*
X136565000Y-94265000D02*
X135762530Y-94265000D01*
X135147470Y-94265000D02*
X134345000Y-94265000D01*
X136565000Y-95470000D02*
X136565000Y-94265000D01*
X134345000Y-95470000D02*
X134345000Y-94265000D01*
X136565000Y-95470000D02*
X136018471Y-95470000D01*
X134891529Y-95470000D02*
X134345000Y-95470000D01*
X136565000Y-96230000D02*
X136565000Y-96990000D01*
X136565000Y-96990000D02*
X135455000Y-96990000D01*
G04 #@! TO.C,U1*
X152660000Y-104610000D02*
X153360000Y-104610000D01*
X153360000Y-104610000D02*
X153360000Y-103910000D01*
X139840000Y-104610000D02*
X139140000Y-104610000D01*
X139140000Y-104610000D02*
X139140000Y-103910000D01*
X152660000Y-90390000D02*
X153360000Y-90390000D01*
X153360000Y-90390000D02*
X153360000Y-91090000D01*
X139840000Y-90390000D02*
X139140000Y-90390000D01*
X139140000Y-90390000D02*
X139140000Y-91090000D01*
X139140000Y-91090000D02*
X137775000Y-91090000D01*
G04 #@! TO.C,J1*
X136565000Y-98075000D02*
X135762530Y-98075000D01*
X135147470Y-98075000D02*
X134345000Y-98075000D01*
X136565000Y-99280000D02*
X136565000Y-98075000D01*
X134345000Y-99280000D02*
X134345000Y-98075000D01*
X136565000Y-99280000D02*
X136018471Y-99280000D01*
X134891529Y-99280000D02*
X134345000Y-99280000D01*
X136565000Y-100040000D02*
X136565000Y-100800000D01*
X136565000Y-100800000D02*
X135455000Y-100800000D01*
G04 #@! TO.C,J2*
X158630000Y-90225000D02*
X157807530Y-90225000D01*
X155922470Y-90225000D02*
X155100000Y-90225000D01*
X157192470Y-90225000D02*
X156537530Y-90225000D01*
X158630000Y-95240000D02*
X158630000Y-90225000D01*
X155100000Y-96695000D02*
X155100000Y-90225000D01*
X158630000Y-95240000D02*
X158063471Y-95240000D01*
X156936529Y-95240000D02*
X156793471Y-95240000D01*
X156740000Y-95293471D02*
X156740000Y-95436529D01*
X156740000Y-96563471D02*
X156740000Y-96695000D01*
X156740000Y-96695000D02*
X156537530Y-96695000D01*
X155922470Y-96695000D02*
X155100000Y-96695000D01*
X158630000Y-96000000D02*
X158630000Y-96760000D01*
X158630000Y-96760000D02*
X157500000Y-96760000D01*
G04 #@! TO.C,SW1*
D10*
X146350000Y-107892857D02*
X146435714Y-107921428D01*
X146578571Y-107921428D01*
X146635714Y-107892857D01*
X146664285Y-107864285D01*
X146692857Y-107807142D01*
X146692857Y-107750000D01*
X146664285Y-107692857D01*
X146635714Y-107664285D01*
X146578571Y-107635714D01*
X146464285Y-107607142D01*
X146407142Y-107578571D01*
X146378571Y-107550000D01*
X146350000Y-107492857D01*
X146350000Y-107435714D01*
X146378571Y-107378571D01*
X146407142Y-107350000D01*
X146464285Y-107321428D01*
X146607142Y-107321428D01*
X146692857Y-107350000D01*
X146892857Y-107321428D02*
X147035714Y-107921428D01*
X147150000Y-107492857D01*
X147264285Y-107921428D01*
X147407142Y-107321428D01*
X147950000Y-107921428D02*
X147607142Y-107921428D01*
X147778571Y-107921428D02*
X147778571Y-107321428D01*
X147721428Y-107407142D01*
X147664285Y-107464285D01*
X147607142Y-107492857D01*
G04 #@! TO.C,JP1*
X134955000Y-93271428D02*
X134955000Y-93700000D01*
X134926428Y-93785714D01*
X134869285Y-93842857D01*
X134783571Y-93871428D01*
X134726428Y-93871428D01*
X135240714Y-93871428D02*
X135240714Y-93271428D01*
X135469285Y-93271428D01*
X135526428Y-93300000D01*
X135555000Y-93328571D01*
X135583571Y-93385714D01*
X135583571Y-93471428D01*
X135555000Y-93528571D01*
X135526428Y-93557142D01*
X135469285Y-93585714D01*
X135240714Y-93585714D01*
X136155000Y-93871428D02*
X135812142Y-93871428D01*
X135983571Y-93871428D02*
X135983571Y-93271428D01*
X135926428Y-93357142D01*
X135869285Y-93414285D01*
X135812142Y-93442857D01*
G04 #@! TO.C,U1*
X137892857Y-90271428D02*
X137892857Y-90757142D01*
X137921428Y-90814285D01*
X137950000Y-90842857D01*
X138007142Y-90871428D01*
X138121428Y-90871428D01*
X138178571Y-90842857D01*
X138207142Y-90814285D01*
X138235714Y-90757142D01*
X138235714Y-90271428D01*
X138835714Y-90871428D02*
X138492857Y-90871428D01*
X138664285Y-90871428D02*
X138664285Y-90271428D01*
X138607142Y-90357142D01*
X138550000Y-90414285D01*
X138492857Y-90442857D01*
G04 #@! TO.C,J1*
X135255000Y-101071428D02*
X135255000Y-101500000D01*
X135226428Y-101585714D01*
X135169285Y-101642857D01*
X135083571Y-101671428D01*
X135026428Y-101671428D01*
X135855000Y-101671428D02*
X135512142Y-101671428D01*
X135683571Y-101671428D02*
X135683571Y-101071428D01*
X135626428Y-101157142D01*
X135569285Y-101214285D01*
X135512142Y-101242857D01*
G04 #@! TO.C,J2*
X157950000Y-89371428D02*
X157950000Y-89800000D01*
X157921428Y-89885714D01*
X157864285Y-89942857D01*
X157778571Y-89971428D01*
X157721428Y-89971428D01*
X158207142Y-89428571D02*
X158235714Y-89400000D01*
X158292857Y-89371428D01*
X158435714Y-89371428D01*
X158492857Y-89400000D01*
X158521428Y-89428571D01*
X158550000Y-89485714D01*
X158550000Y-89542857D01*
X158521428Y-89628571D01*
X158178571Y-89971428D01*
X158550000Y-89971428D01*
G04 #@! TO.C,1*
X158421428Y-98571428D02*
X158078571Y-98571428D01*
X158250000Y-98571428D02*
X158250000Y-97971428D01*
X158192857Y-98057142D01*
X158135714Y-98114285D01*
X158078571Y-98142857D01*
G04 #@! TO.C,2*
X156828571Y-98028571D02*
X156857142Y-98000000D01*
X156914285Y-97971428D01*
X157057142Y-97971428D01*
X157114285Y-98000000D01*
X157142857Y-98028571D01*
X157171428Y-98085714D01*
X157171428Y-98142857D01*
X157142857Y-98228571D01*
X156800000Y-98571428D01*
X157171428Y-98571428D01*
G04 #@! TO.C,3*
X155550000Y-97971428D02*
X155921428Y-97971428D01*
X155721428Y-98200000D01*
X155807142Y-98200000D01*
X155864285Y-98228571D01*
X155892857Y-98257142D01*
X155921428Y-98314285D01*
X155921428Y-98457142D01*
X155892857Y-98514285D01*
X155864285Y-98542857D01*
X155807142Y-98571428D01*
X155635714Y-98571428D01*
X155578571Y-98542857D01*
X155550000Y-98514285D01*
G04 #@! TO.C,4*
X158364285Y-99771428D02*
X158364285Y-100171428D01*
X158221428Y-99542857D02*
X158078571Y-99971428D01*
X158450000Y-99971428D01*
G04 #@! TO.C,5*
X157142857Y-99571428D02*
X156857142Y-99571428D01*
X156828571Y-99857142D01*
X156857142Y-99828571D01*
X156914285Y-99800000D01*
X157057142Y-99800000D01*
X157114285Y-99828571D01*
X157142857Y-99857142D01*
X157171428Y-99914285D01*
X157171428Y-100057142D01*
X157142857Y-100114285D01*
X157114285Y-100142857D01*
X157057142Y-100171428D01*
X156914285Y-100171428D01*
X156857142Y-100142857D01*
X156828571Y-100114285D01*
G04 #@! TO.C,6*
X155864285Y-99571428D02*
X155750000Y-99571428D01*
X155692857Y-99600000D01*
X155664285Y-99628571D01*
X155607142Y-99714285D01*
X155578571Y-99828571D01*
X155578571Y-100057142D01*
X155607142Y-100114285D01*
X155635714Y-100142857D01*
X155692857Y-100171428D01*
X155807142Y-100171428D01*
X155864285Y-100142857D01*
X155892857Y-100114285D01*
X155921428Y-100057142D01*
X155921428Y-99914285D01*
X155892857Y-99857142D01*
X155864285Y-99828571D01*
X155807142Y-99800000D01*
X155692857Y-99800000D01*
X155635714Y-99828571D01*
X155607142Y-99857142D01*
X155578571Y-99914285D01*
G04 #@! TO.C,7*
X158050000Y-101171428D02*
X158450000Y-101171428D01*
X158192857Y-101771428D01*
G04 #@! TO.C,8*
X156942857Y-101428571D02*
X156885714Y-101400000D01*
X156857142Y-101371428D01*
X156828571Y-101314285D01*
X156828571Y-101285714D01*
X156857142Y-101228571D01*
X156885714Y-101200000D01*
X156942857Y-101171428D01*
X157057142Y-101171428D01*
X157114285Y-101200000D01*
X157142857Y-101228571D01*
X157171428Y-101285714D01*
X157171428Y-101314285D01*
X157142857Y-101371428D01*
X157114285Y-101400000D01*
X157057142Y-101428571D01*
X156942857Y-101428571D01*
X156885714Y-101457142D01*
X156857142Y-101485714D01*
X156828571Y-101542857D01*
X156828571Y-101657142D01*
X156857142Y-101714285D01*
X156885714Y-101742857D01*
X156942857Y-101771428D01*
X157057142Y-101771428D01*
X157114285Y-101742857D01*
X157142857Y-101714285D01*
X157171428Y-101657142D01*
X157171428Y-101542857D01*
X157142857Y-101485714D01*
X157114285Y-101457142D01*
X157057142Y-101428571D01*
G04 #@! TO.C,9*
X155635714Y-101771428D02*
X155750000Y-101771428D01*
X155807142Y-101742857D01*
X155835714Y-101714285D01*
X155892857Y-101628571D01*
X155921428Y-101514285D01*
X155921428Y-101285714D01*
X155892857Y-101228571D01*
X155864285Y-101200000D01*
X155807142Y-101171428D01*
X155692857Y-101171428D01*
X155635714Y-101200000D01*
X155607142Y-101228571D01*
X155578571Y-101285714D01*
X155578571Y-101428571D01*
X155607142Y-101485714D01*
X155635714Y-101514285D01*
X155692857Y-101542857D01*
X155807142Y-101542857D01*
X155864285Y-101514285D01*
X155892857Y-101485714D01*
X155921428Y-101428571D01*
G04 #@! TO.C,10*
X158135714Y-103371428D02*
X157792857Y-103371428D01*
X157964285Y-103371428D02*
X157964285Y-102771428D01*
X157907142Y-102857142D01*
X157850000Y-102914285D01*
X157792857Y-102942857D01*
X158507142Y-102771428D02*
X158564285Y-102771428D01*
X158621428Y-102800000D01*
X158650000Y-102828571D01*
X158678571Y-102885714D01*
X158707142Y-103000000D01*
X158707142Y-103142857D01*
X158678571Y-103257142D01*
X158650000Y-103314285D01*
X158621428Y-103342857D01*
X158564285Y-103371428D01*
X158507142Y-103371428D01*
X158450000Y-103342857D01*
X158421428Y-103314285D01*
X158392857Y-103257142D01*
X158364285Y-103142857D01*
X158364285Y-103000000D01*
X158392857Y-102885714D01*
X158421428Y-102828571D01*
X158450000Y-102800000D01*
X158507142Y-102771428D01*
G04 #@! TO.C,11*
X156885714Y-103371428D02*
X156542857Y-103371428D01*
X156714285Y-103371428D02*
X156714285Y-102771428D01*
X156657142Y-102857142D01*
X156600000Y-102914285D01*
X156542857Y-102942857D01*
X157457142Y-103371428D02*
X157114285Y-103371428D01*
X157285714Y-103371428D02*
X157285714Y-102771428D01*
X157228571Y-102857142D01*
X157171428Y-102914285D01*
X157114285Y-102942857D01*
G04 #@! TO.C,12*
X155635714Y-103371428D02*
X155292857Y-103371428D01*
X155464285Y-103371428D02*
X155464285Y-102771428D01*
X155407142Y-102857142D01*
X155350000Y-102914285D01*
X155292857Y-102942857D01*
X155864285Y-102828571D02*
X155892857Y-102800000D01*
X155950000Y-102771428D01*
X156092857Y-102771428D01*
X156150000Y-102800000D01*
X156178571Y-102828571D01*
X156207142Y-102885714D01*
X156207142Y-102942857D01*
X156178571Y-103028571D01*
X155835714Y-103371428D01*
X156207142Y-103371428D01*
G04 #@! TO.C,13*
X158135714Y-104971428D02*
X157792857Y-104971428D01*
X157964285Y-104971428D02*
X157964285Y-104371428D01*
X157907142Y-104457142D01*
X157850000Y-104514285D01*
X157792857Y-104542857D01*
X158335714Y-104371428D02*
X158707142Y-104371428D01*
X158507142Y-104600000D01*
X158592857Y-104600000D01*
X158650000Y-104628571D01*
X158678571Y-104657142D01*
X158707142Y-104714285D01*
X158707142Y-104857142D01*
X158678571Y-104914285D01*
X158650000Y-104942857D01*
X158592857Y-104971428D01*
X158421428Y-104971428D01*
X158364285Y-104942857D01*
X158335714Y-104914285D01*
G04 #@! TO.C,14*
X156885714Y-104971428D02*
X156542857Y-104971428D01*
X156714285Y-104971428D02*
X156714285Y-104371428D01*
X156657142Y-104457142D01*
X156600000Y-104514285D01*
X156542857Y-104542857D01*
X157400000Y-104571428D02*
X157400000Y-104971428D01*
X157257142Y-104342857D02*
X157114285Y-104771428D01*
X157485714Y-104771428D01*
G04 #@! TO.C,15*
X155635714Y-104971428D02*
X155292857Y-104971428D01*
X155464285Y-104971428D02*
X155464285Y-104371428D01*
X155407142Y-104457142D01*
X155350000Y-104514285D01*
X155292857Y-104542857D01*
X156178571Y-104371428D02*
X155892857Y-104371428D01*
X155864285Y-104657142D01*
X155892857Y-104628571D01*
X155950000Y-104600000D01*
X156092857Y-104600000D01*
X156150000Y-104628571D01*
X156178571Y-104657142D01*
X156207142Y-104714285D01*
X156207142Y-104857142D01*
X156178571Y-104914285D01*
X156150000Y-104942857D01*
X156092857Y-104971428D01*
X155950000Y-104971428D01*
X155892857Y-104942857D01*
X155864285Y-104914285D01*
G04 #@! TO.C,16*
X158135714Y-106571428D02*
X157792857Y-106571428D01*
X157964285Y-106571428D02*
X157964285Y-105971428D01*
X157907142Y-106057142D01*
X157850000Y-106114285D01*
X157792857Y-106142857D01*
X158650000Y-105971428D02*
X158535714Y-105971428D01*
X158478571Y-106000000D01*
X158450000Y-106028571D01*
X158392857Y-106114285D01*
X158364285Y-106228571D01*
X158364285Y-106457142D01*
X158392857Y-106514285D01*
X158421428Y-106542857D01*
X158478571Y-106571428D01*
X158592857Y-106571428D01*
X158650000Y-106542857D01*
X158678571Y-106514285D01*
X158707142Y-106457142D01*
X158707142Y-106314285D01*
X158678571Y-106257142D01*
X158650000Y-106228571D01*
X158592857Y-106200000D01*
X158478571Y-106200000D01*
X158421428Y-106228571D01*
X158392857Y-106257142D01*
X158364285Y-106314285D01*
G04 #@! TO.C,3V3*
X150607142Y-85171428D02*
X150978571Y-85171428D01*
X150778571Y-85400000D01*
X150864285Y-85400000D01*
X150921428Y-85428571D01*
X150950000Y-85457142D01*
X150978571Y-85514285D01*
X150978571Y-85657142D01*
X150950000Y-85714285D01*
X150921428Y-85742857D01*
X150864285Y-85771428D01*
X150692857Y-85771428D01*
X150635714Y-85742857D01*
X150607142Y-85714285D01*
X151150000Y-85171428D02*
X151350000Y-85771428D01*
X151550000Y-85171428D01*
X151692857Y-85171428D02*
X152064285Y-85171428D01*
X151864285Y-85400000D01*
X151950000Y-85400000D01*
X152007142Y-85428571D01*
X152035714Y-85457142D01*
X152064285Y-85514285D01*
X152064285Y-85657142D01*
X152035714Y-85714285D01*
X152007142Y-85742857D01*
X151950000Y-85771428D01*
X151778571Y-85771428D01*
X151721428Y-85742857D01*
X151692857Y-85714285D01*
G04 #@! TO.C,=*
X151621428Y-109457142D02*
X152078571Y-109457142D01*
X152078571Y-109628571D02*
X151621428Y-109628571D01*
G04 #@! TO.C,3V3*
X149007142Y-109171428D02*
X149378571Y-109171428D01*
X149178571Y-109400000D01*
X149264285Y-109400000D01*
X149321428Y-109428571D01*
X149350000Y-109457142D01*
X149378571Y-109514285D01*
X149378571Y-109657142D01*
X149350000Y-109714285D01*
X149321428Y-109742857D01*
X149264285Y-109771428D01*
X149092857Y-109771428D01*
X149035714Y-109742857D01*
X149007142Y-109714285D01*
X149550000Y-109171428D02*
X149750000Y-109771428D01*
X149950000Y-109171428D01*
X150092857Y-109171428D02*
X150464285Y-109171428D01*
X150264285Y-109400000D01*
X150350000Y-109400000D01*
X150407142Y-109428571D01*
X150435714Y-109457142D01*
X150464285Y-109514285D01*
X150464285Y-109657142D01*
X150435714Y-109714285D01*
X150407142Y-109742857D01*
X150350000Y-109771428D01*
X150178571Y-109771428D01*
X150121428Y-109742857D01*
X150092857Y-109714285D01*
G04 #@! TO.C,GND*
X150892857Y-86800000D02*
X150835714Y-86771428D01*
X150750000Y-86771428D01*
X150664285Y-86800000D01*
X150607142Y-86857142D01*
X150578571Y-86914285D01*
X150550000Y-87028571D01*
X150550000Y-87114285D01*
X150578571Y-87228571D01*
X150607142Y-87285714D01*
X150664285Y-87342857D01*
X150750000Y-87371428D01*
X150807142Y-87371428D01*
X150892857Y-87342857D01*
X150921428Y-87314285D01*
X150921428Y-87114285D01*
X150807142Y-87114285D01*
X151178571Y-87371428D02*
X151178571Y-86771428D01*
X151521428Y-87371428D01*
X151521428Y-86771428D01*
X151807142Y-87371428D02*
X151807142Y-86771428D01*
X151950000Y-86771428D01*
X152035714Y-86800000D01*
X152092857Y-86857142D01*
X152121428Y-86914285D01*
X152150000Y-87028571D01*
X152150000Y-87114285D01*
X152121428Y-87228571D01*
X152092857Y-87285714D01*
X152035714Y-87342857D01*
X151950000Y-87371428D01*
X151807142Y-87371428D01*
G04 #@! TO.C,=*
X151621428Y-107857142D02*
X152078571Y-107857142D01*
X152078571Y-108028571D02*
X151621428Y-108028571D01*
G04 #@! TO.C,GND*
X149292857Y-107600000D02*
X149235714Y-107571428D01*
X149150000Y-107571428D01*
X149064285Y-107600000D01*
X149007142Y-107657142D01*
X148978571Y-107714285D01*
X148950000Y-107828571D01*
X148950000Y-107914285D01*
X148978571Y-108028571D01*
X149007142Y-108085714D01*
X149064285Y-108142857D01*
X149150000Y-108171428D01*
X149207142Y-108171428D01*
X149292857Y-108142857D01*
X149321428Y-108114285D01*
X149321428Y-107914285D01*
X149207142Y-107914285D01*
X149578571Y-108171428D02*
X149578571Y-107571428D01*
X149921428Y-108171428D01*
X149921428Y-107571428D01*
X150207142Y-108171428D02*
X150207142Y-107571428D01*
X150350000Y-107571428D01*
X150435714Y-107600000D01*
X150492857Y-107657142D01*
X150521428Y-107714285D01*
X150550000Y-107828571D01*
X150550000Y-107914285D01*
X150521428Y-108028571D01*
X150492857Y-108085714D01*
X150435714Y-108142857D01*
X150350000Y-108171428D01*
X150207142Y-108171428D01*
G04 #@! TD*
M02*
